<?xml version="1.0" encoding="UTF-8" standalone="no"?>
<!-- Created with Inkscape (http://www.inkscape.org/) -->

<svg
   xmlns:dc="http://purl.org/dc/elements/1.1/"
   xmlns:cc="http://creativecommons.org/ns#"
   xmlns:rdf="http://www.w3.org/1999/02/22-rdf-syntax-ns#"
   xmlns:svg="http://www.w3.org/2000/svg"
   xmlns="http://www.w3.org/2000/svg"
   xmlns:sodipodi="http://sodipodi.sourceforge.net/DTD/sodipodi-0.dtd"
   xmlns:inkscape="http://www.inkscape.org/namespaces/inkscape"
   version="1.1"
   id="svg4616"
   xml:space="preserve"
   width="625.94971"
   height="675.85907"
   viewBox="0 0 625.94971 675.85907"
   sodipodi:docname="cubegraph.svg"
   inkscape:version="0.92.1 r15371"><metadata
     id="metadata4622"><rdf:RDF><cc:Work
         rdf:about=""><dc:format>image/svg+xml</dc:format><dc:type
           rdf:resource="http://purl.org/dc/dcmitype/StillImage" /><dc:title /></cc:Work></rdf:RDF></metadata><defs
     id="defs4620"><clipPath
       clipPathUnits="userSpaceOnUse"
       id="clipPath4766"><path
         d="m 62.574,67.285 c 0,-3.945 -3.199,-7.141 -7.144,-7.141 -3.946,0 -7.145,3.196 -7.145,7.141 0,3.945 3.199,7.144 7.145,7.144 3.945,0 7.144,-3.199 7.144,-7.144 z"
         id="path4764"
         inkscape:connector-curvature="0" /></clipPath><linearGradient
       x1="125"
       y1="714.36218"
       x2="111"
       y2="700.36218"
       gradientUnits="userSpaceOnUse"
       gradientTransform="matrix(1,0,0,-1,-63.574958,775.31885)"
       spreadMethod="pad"
       id="linearGradient4774"><stop
         style="stop-opacity:1;stop-color:#353535"
         offset="0"
         id="stop4770" /><stop
         style="stop-opacity:1;stop-color:#ffffff"
         offset="1"
         id="stop4772" /></linearGradient><clipPath
       clipPathUnits="userSpaceOnUse"
       id="clipPath4784"><path
         d="m 74.992,79.34 c 0,-3.946 -3.199,-7.145 -7.144,-7.145 -3.946,0 -7.145,3.199 -7.145,7.145 0,3.945 3.199,7.14 7.145,7.14 3.945,0 7.144,-3.195 7.144,-7.14 z"
         id="path4782"
         inkscape:connector-curvature="0" /></clipPath><linearGradient
       x1="125"
       y1="714.36218"
       x2="111"
       y2="700.36218"
       gradientUnits="userSpaceOnUse"
       gradientTransform="matrix(1,0,0,-1,-51.1569,787.37208)"
       spreadMethod="pad"
       id="linearGradient4792"><stop
         style="stop-opacity:1;stop-color:#353535"
         offset="0"
         id="stop4788" /><stop
         style="stop-opacity:1;stop-color:#ffffff"
         offset="1"
         id="stop4790" /></linearGradient><clipPath
       clipPathUnits="userSpaceOnUse"
       id="clipPath4802"><path
         d="m 48.32,75.844 c 0,-3.946 -3.195,-7.141 -7.14,-7.141 -3.946,0 -7.145,3.195 -7.145,7.141 0,3.945 3.199,7.144 7.145,7.144 3.945,0 7.14,-3.199 7.14,-7.144 z"
         id="path4800"
         inkscape:connector-curvature="0" /></clipPath><linearGradient
       x1="125"
       y1="714.36218"
       x2="111"
       y2="700.36218"
       gradientUnits="userSpaceOnUse"
       gradientTransform="matrix(1,0,0,-1,-77.825649,783.87839)"
       spreadMethod="pad"
       id="linearGradient4810"><stop
         style="stop-opacity:1;stop-color:#353535"
         offset="0"
         id="stop4806" /><stop
         style="stop-opacity:1;stop-color:#ffffff"
         offset="1"
         id="stop4808" /></linearGradient><clipPath
       clipPathUnits="userSpaceOnUse"
       id="clipPath4820"><path
         d="m 50.223,97.762 c 0,-3.946 -3.196,-7.145 -7.141,-7.145 -3.945,0 -7.144,3.199 -7.144,7.145 0,3.945 3.199,7.14 7.144,7.14 3.945,0 7.141,-3.195 7.141,-7.14 z"
         id="path4818"
         inkscape:connector-curvature="0" /></clipPath><linearGradient
       x1="125"
       y1="714.36218"
       x2="111"
       y2="700.36218"
       gradientUnits="userSpaceOnUse"
       gradientTransform="matrix(1,0,0,-1,-75.92369,805.79434)"
       spreadMethod="pad"
       id="linearGradient4828"><stop
         style="stop-opacity:1;stop-color:#353535"
         offset="0"
         id="stop4824" /><stop
         style="stop-opacity:1;stop-color:#ffffff"
         offset="1"
         id="stop4826" /></linearGradient><clipPath
       clipPathUnits="userSpaceOnUse"
       id="clipPath4838"><path
         d="m 61.586,86.043 c 0,-3.946 -3.199,-7.145 -7.145,-7.145 -3.945,0 -7.14,3.199 -7.14,7.145 0,3.945 3.195,7.144 7.14,7.144 3.946,0 7.145,-3.199 7.145,-7.144 z"
         id="path4836"
         inkscape:connector-curvature="0" /></clipPath><linearGradient
       x1="125"
       y1="714.36218"
       x2="111"
       y2="700.36218"
       gradientUnits="userSpaceOnUse"
       gradientTransform="matrix(1,0,0,-1,-64.562342,794.07657)"
       spreadMethod="pad"
       id="linearGradient4846"><stop
         style="stop-opacity:1;stop-color:#353535"
         offset="0"
         id="stop4842" /><stop
         style="stop-opacity:1;stop-color:#ffffff"
         offset="1"
         id="stop4844" /></linearGradient><clipPath
       clipPathUnits="userSpaceOnUse"
       id="clipPath4856"><path
         d="m 74.109,98.711 c 0,-3.946 -3.195,-7.145 -7.14,-7.145 -3.946,0 -7.145,3.199 -7.145,7.145 0,3.945 3.199,7.14 7.145,7.14 3.945,0 7.14,-3.195 7.14,-7.14 z"
         id="path4854"
         inkscape:connector-curvature="0" /></clipPath><linearGradient
       x1="125"
       y1="714.36218"
       x2="111"
       y2="700.36218"
       gradientUnits="userSpaceOnUse"
       gradientTransform="matrix(1,0,0,-1,-52.03645,806.74394)"
       spreadMethod="pad"
       id="linearGradient4864"><stop
         style="stop-opacity:1;stop-color:#353535"
         offset="0"
         id="stop4860" /><stop
         style="stop-opacity:1;stop-color:#ffffff"
         offset="1"
         id="stop4862" /></linearGradient><clipPath
       clipPathUnits="userSpaceOnUse"
       id="clipPath4874"><path
         d="m 59.082,282.535 c 0,-3.941 -3.195,-7.141 -7.141,-7.141 -3.945,0 -7.144,3.2 -7.144,7.141 0,3.945 3.199,7.144 7.144,7.144 3.946,0 7.141,-3.199 7.141,-7.144 z"
         id="path4872"
         inkscape:connector-curvature="0" /></clipPath><linearGradient
       x1="125"
       y1="714.36218"
       x2="111"
       y2="700.36218"
       gradientUnits="userSpaceOnUse"
       gradientTransform="matrix(1,0,0,-1,-67.064382,990.57026)"
       spreadMethod="pad"
       id="linearGradient4882"><stop
         style="stop-opacity:1;stop-color:#353535"
         offset="0"
         id="stop4878" /><stop
         style="stop-opacity:1;stop-color:#ffffff"
         offset="1"
         id="stop4880" /></linearGradient><clipPath
       clipPathUnits="userSpaceOnUse"
       id="clipPath4892"><path
         d="m 74.84,269.203 c 0,-3.945 -3.195,-7.145 -7.141,-7.145 -3.945,0 -7.144,3.2 -7.144,7.145 0,3.945 3.199,7.144 7.144,7.144 3.946,0 7.141,-3.199 7.141,-7.144 z"
         id="path4890"
         inkscape:connector-curvature="0" /></clipPath><linearGradient
       x1="125"
       y1="714.36218"
       x2="111"
       y2="700.36218"
       gradientUnits="userSpaceOnUse"
       gradientTransform="matrix(1,0,0,-1,-51.306002,977.23624)"
       spreadMethod="pad"
       id="linearGradient4900"><stop
         style="stop-opacity:1;stop-color:#353535"
         offset="0"
         id="stop4896" /><stop
         style="stop-opacity:1;stop-color:#ffffff"
         offset="1"
         id="stop4898" /></linearGradient><clipPath
       clipPathUnits="userSpaceOnUse"
       id="clipPath4910"><path
         d="m 136.902,179.859 c 0,-5.781 -4.687,-10.465 -10.464,-10.465 -5.782,0 -10.465,4.684 -10.465,10.465 0,5.781 4.683,10.465 10.465,10.465 5.777,0 10.464,-4.684 10.464,-10.465 z"
         id="path4908"
         inkscape:connector-curvature="0" /></clipPath><linearGradient
       x1="220"
       y1="582.36218"
       x2="170"
       y2="532.36218"
       gradientUnits="userSpaceOnUse"
       gradientTransform="matrix(0.8,0,0,-0.8,-41.131177,635.49788)"
       spreadMethod="pad"
       id="linearGradient4918"><stop
         style="stop-opacity:1;stop-color:#000000"
         offset="0"
         id="stop4914" /><stop
         style="stop-opacity:1;stop-color:#ffffff"
         offset="1"
         id="stop4916" /></linearGradient><clipPath
       clipPathUnits="userSpaceOnUse"
       id="clipPath4928"><path
         d="m 159.527,203.293 c 0,-5.778 -4.683,-10.465 -10.465,-10.465 -5.777,0 -10.464,4.687 -10.464,10.465 0,5.781 4.687,10.465 10.464,10.465 5.782,0 10.465,-4.684 10.465,-10.465 z"
         id="path4926"
         inkscape:connector-curvature="0" /></clipPath><linearGradient
       x1="220"
       y1="582.36218"
       x2="170"
       y2="532.36218"
       gradientUnits="userSpaceOnUse"
       gradientTransform="matrix(0.8,0,0,-0.8,-18.503759,658.93341)"
       spreadMethod="pad"
       id="linearGradient4936"><stop
         style="stop-opacity:1;stop-color:#000000"
         offset="0"
         id="stop4932" /><stop
         style="stop-opacity:1;stop-color:#ffffff"
         offset="1"
         id="stop4934" /></linearGradient><clipPath
       clipPathUnits="userSpaceOnUse"
       id="clipPath4950"><path
         d="m 392.934,189.941 c 0,-5.781 -4.688,-10.465 -10.465,-10.465 -5.781,0 -10.465,4.684 -10.465,10.465 0,5.778 4.684,10.465 10.465,10.465 5.777,0 10.465,-4.687 10.465,-10.465 z"
         id="path4948"
         inkscape:connector-curvature="0" /></clipPath><linearGradient
       x1="220"
       y1="582.36218"
       x2="170"
       y2="532.36218"
       gradientUnits="userSpaceOnUse"
       gradientTransform="matrix(0.8,0,0,-0.8,214.90065,645.5791)"
       spreadMethod="pad"
       id="linearGradient4958"><stop
         style="stop-opacity:1;stop-color:#000000"
         offset="0"
         id="stop4954" /><stop
         style="stop-opacity:1;stop-color:#ffffff"
         offset="1"
         id="stop4956" /></linearGradient><clipPath
       clipPathUnits="userSpaceOnUse"
       id="clipPath4968"><path
         d="m 384.41,218.117 c 0,-5.781 -4.687,-10.465 -10.465,-10.465 -5.781,0 -10.465,4.684 -10.465,10.465 0,5.777 4.684,10.465 10.465,10.465 5.778,0 10.465,-4.688 10.465,-10.465 z"
         id="path4966"
         inkscape:connector-curvature="0" /></clipPath><linearGradient
       x1="220"
       y1="582.36218"
       x2="170"
       y2="532.36218"
       gradientUnits="userSpaceOnUse"
       gradientTransform="matrix(0.8,0,0,-0.8,206.3765,673.75517)"
       spreadMethod="pad"
       id="linearGradient4976"><stop
         style="stop-opacity:1;stop-color:#000000"
         offset="0"
         id="stop4972" /><stop
         style="stop-opacity:1;stop-color:#ffffff"
         offset="1"
         id="stop4974" /></linearGradient><clipPath
       clipPathUnits="userSpaceOnUse"
       id="clipPath4986"><path
         d="m 404.859,209.285 c 0,-5.777 -4.687,-10.465 -10.464,-10.465 -5.782,0 -10.465,4.688 -10.465,10.465 0,5.781 4.683,10.465 10.465,10.465 5.777,0 10.464,-4.684 10.464,-10.465 z"
         id="path4984"
         inkscape:connector-curvature="0" /></clipPath><linearGradient
       x1="220"
       y1="582.36218"
       x2="170"
       y2="532.36218"
       gradientUnits="userSpaceOnUse"
       gradientTransform="matrix(0.8,0,0,-0.8,226.8264,664.925)"
       spreadMethod="pad"
       id="linearGradient4994"><stop
         style="stop-opacity:1;stop-color:#000000"
         offset="0"
         id="stop4990" /><stop
         style="stop-opacity:1;stop-color:#ffffff"
         offset="1"
         id="stop4992" /></linearGradient><clipPath
       clipPathUnits="userSpaceOnUse"
       id="clipPath5004"><path
         d="m 419.484,192.301 c 0,-5.782 -4.687,-10.465 -10.468,-10.465 -5.778,0 -10.465,4.683 -10.465,10.465 0,5.777 4.687,10.464 10.465,10.464 5.781,0 10.468,-4.687 10.468,-10.464 z"
         id="path5002"
         inkscape:connector-curvature="0" /></clipPath><linearGradient
       x1="220"
       y1="582.36218"
       x2="170"
       y2="532.36218"
       gradientUnits="userSpaceOnUse"
       gradientTransform="matrix(0.8,0,0,-0.8,241.45034,647.93834)"
       spreadMethod="pad"
       id="linearGradient5012"><stop
         style="stop-opacity:1;stop-color:#000000"
         offset="0"
         id="stop5008" /><stop
         style="stop-opacity:1;stop-color:#ffffff"
         offset="1"
         id="stop5010" /></linearGradient><clipPath
       clipPathUnits="userSpaceOnUse"
       id="clipPath5022"><path
         d="m 401,167.551 c 0,-5.782 -4.684,-10.465 -10.465,-10.465 -5.777,0 -10.465,4.683 -10.465,10.465 0,5.777 4.688,10.464 10.465,10.464 5.781,0 10.465,-4.687 10.465,-10.464 z"
         id="path5020"
         inkscape:connector-curvature="0" /></clipPath><linearGradient
       x1="220"
       y1="582.36218"
       x2="170"
       y2="532.36218"
       gradientUnits="userSpaceOnUse"
       gradientTransform="matrix(0.8,0,0,-0.8,222.96926,623.18837)"
       spreadMethod="pad"
       id="linearGradient5030"><stop
         style="stop-opacity:1;stop-color:#000000"
         offset="0"
         id="stop5026" /><stop
         style="stop-opacity:1;stop-color:#ffffff"
         offset="1"
         id="stop5028" /></linearGradient><clipPath
       clipPathUnits="userSpaceOnUse"
       id="clipPath5040"><path
         d="m 377.902,168.859 c 0,-5.777 -4.687,-10.465 -10.464,-10.465 -5.782,0 -10.469,4.688 -10.469,10.465 0,5.781 4.687,10.465 10.469,10.465 5.777,0 10.464,-4.684 10.464,-10.465 z"
         id="path5038"
         inkscape:connector-curvature="0" /></clipPath><linearGradient
       x1="220"
       y1="582.36218"
       x2="170"
       y2="532.36218"
       gradientUnits="userSpaceOnUse"
       gradientTransform="matrix(0.8,0,0,-0.8,199.86845,624.4986)"
       spreadMethod="pad"
       id="linearGradient5048"><stop
         style="stop-opacity:1;stop-color:#000000"
         offset="0"
         id="stop5044" /><stop
         style="stop-opacity:1;stop-color:#ffffff"
         offset="1"
         id="stop5046" /></linearGradient><clipPath
       clipPathUnits="userSpaceOnUse"
       id="clipPath5058"><path
         d="m 372.059,198.179 c 0,-5.781 -4.684,-10.464 -10.465,-10.464 -5.778,0 -10.465,4.683 -10.465,10.464 0,5.778 4.687,10.465 10.465,10.465 5.781,0 10.465,-4.687 10.465,-10.465 z"
         id="path5056"
         inkscape:connector-curvature="0" /></clipPath><linearGradient
       x1="220"
       y1="582.36218"
       x2="170"
       y2="532.36218"
       gradientUnits="userSpaceOnUse"
       gradientTransform="matrix(0.8,0,0,-0.8,194.02813,653.81753)"
       spreadMethod="pad"
       id="linearGradient5066"><stop
         style="stop-opacity:1;stop-color:#000000"
         offset="0"
         id="stop5062" /><stop
         style="stop-opacity:1;stop-color:#ffffff"
         offset="1"
         id="stop5064" /></linearGradient><clipPath
       clipPathUnits="userSpaceOnUse"
       id="clipPath5076"><path
         d="m 426.133,216.566 c 0,-5.777 -4.688,-10.465 -10.469,-10.465 -5.777,0 -10.465,4.688 -10.465,10.465 0,5.781 4.688,10.465 10.465,10.465 5.781,0 10.469,-4.684 10.469,-10.465 z"
         id="path5074"
         inkscape:connector-curvature="0" /></clipPath><linearGradient
       x1="220"
       y1="582.36218"
       x2="170"
       y2="532.36218"
       gradientUnits="userSpaceOnUse"
       gradientTransform="matrix(0.8,0,0,-0.8,248.09878,672.20651)"
       spreadMethod="pad"
       id="linearGradient5084"><stop
         style="stop-opacity:1;stop-color:#000000"
         offset="0"
         id="stop5080" /><stop
         style="stop-opacity:1;stop-color:#ffffff"
         offset="1"
         id="stop5082" /></linearGradient><clipPath
       clipPathUnits="userSpaceOnUse"
       id="clipPath5094"><path
         d="m 423.816,170.191 c 0,-5.781 -4.683,-10.465 -10.464,-10.465 -5.782,0 -10.465,4.684 -10.465,10.465 0,5.778 4.683,10.465 10.465,10.465 5.781,0 10.464,-4.687 10.464,-10.465 z"
         id="path5092"
         inkscape:connector-curvature="0" /></clipPath><linearGradient
       x1="220"
       y1="582.36218"
       x2="170"
       y2="532.36218"
       gradientUnits="userSpaceOnUse"
       gradientTransform="matrix(0.8,0,0,-0.8,245.78435,625.82913)"
       spreadMethod="pad"
       id="linearGradient5102"><stop
         style="stop-opacity:1;stop-color:#000000"
         offset="0"
         id="stop5098" /><stop
         style="stop-opacity:1;stop-color:#ffffff"
         offset="1"
         id="stop5100" /></linearGradient></defs><sodipodi:namedview
     pagecolor="#ffffff"
     bordercolor="#666666"
     borderopacity="1"
     objecttolerance="10"
     gridtolerance="10"
     guidetolerance="10"
     inkscape:pageopacity="0"
     inkscape:pageshadow="2"
     inkscape:window-width="1889"
     inkscape:window-height="1052"
     id="namedview4618"
     showgrid="false"
     inkscape:zoom="1.3050058"
     inkscape:cx="220.5547"
     inkscape:cy="470.01851"
     inkscape:window-x="0"
     inkscape:window-y="0"
     inkscape:window-maximized="1"
     inkscape:current-layer="g4624" /><g
     id="g4624"
     inkscape:groupmode="layer"
     inkscape:label="cubegraph"
     transform="matrix(1.3333333,0,0,-1.3333333,0,675.85909)"><g
       transform="matrix(1,0,0,-1,0,506.89432)"
       id="g4628"><path
         inkscape:connector-curvature="0"
         id="path4630"
         style="fill:#ff9f92;fill-opacity:1;fill-rule:nonzero;stroke:#000000;stroke-width:5.03749418;stroke-linecap:butt;stroke-linejoin:miter;stroke-miterlimit:4;stroke-dasharray:none;stroke-opacity:1"
         d="m 385.426,104.848 c 17.133,0 26.66,0 32.879,-6.219 6.222,-6.223 6.222,-15.746 6.222,-32.879 0,-17.133 0,-26.656 -6.222,-32.879 -6.219,-6.223 -15.746,-6.223 -32.879,-6.223 -17.133,0 -26.656,0 -32.879,6.223 -6.219,6.223 -6.219,15.746 -6.219,32.879 0,17.133 0,26.656 6.219,32.879 6.223,6.219 15.746,6.219 32.879,6.219 z" /></g><g
       transform="matrix(1,0,0,-1,0,506.89432)"
       id="g4632"><path
         inkscape:connector-curvature="0"
         id="path4634"
         style="fill:#cedff0;fill-opacity:1;fill-rule:nonzero;stroke:#646464;stroke-width:4;stroke-linecap:butt;stroke-linejoin:miter;stroke-miterlimit:4;stroke-dasharray:none;stroke-opacity:1"
         d="m 254.684,456.684 c 13.605,0 21.168,0 26.109,-4.942 4.937,-4.941 4.937,-12.504 4.937,-26.105 0,-13.606 0,-21.168 -4.937,-26.11 -4.941,-4.937 -12.504,-4.937 -26.109,-4.937 -13.606,0 -21.168,0 -26.106,4.937 -4.941,4.942 -4.941,12.504 -4.941,26.11 0,13.601 0,21.164 4.941,26.105 4.938,4.942 12.5,4.942 26.106,4.942 z" /></g><g
       transform="matrix(1,0,0,-1,0,506.89432)"
       id="g4636"><path
         inkscape:connector-curvature="0"
         id="path4638"
         style="fill:#cedff0;fill-opacity:1;fill-rule:nonzero;stroke:#646464;stroke-width:4;stroke-linecap:butt;stroke-linejoin:miter;stroke-miterlimit:4;stroke-dasharray:none;stroke-opacity:1"
         d="m 254.797,258.512 c 13.605,0 21.168,0 26.109,-4.942 4.938,-4.937 4.938,-12.504 4.938,-26.105 0,-13.606 0,-21.168 -4.938,-26.11 -4.941,-4.937 -12.504,-4.937 -26.109,-4.937 -13.602,0 -21.164,0 -26.106,4.937 -4.937,4.942 -4.937,12.504 -4.937,26.11 0,13.601 0,21.168 4.937,26.105 4.942,4.942 12.504,4.942 26.106,4.942 z" /></g><g
       transform="matrix(1,0,0,-1,0,506.89432)"
       id="g4640"><path
         inkscape:connector-curvature="0"
         id="path4642"
         style="fill:none;stroke:#646464;stroke-width:4;stroke-linecap:butt;stroke-linejoin:miter;stroke-miterlimit:4;stroke-dasharray:none;stroke-opacity:1"
         d="m 56.398,258.512 c 13.606,0 21.168,0 26.106,-4.942 4.941,-4.937 4.941,-12.504 4.941,-26.105 0,-13.606 0,-21.168 -4.941,-26.11 -4.938,-4.937 -12.5,-4.937 -26.106,-4.937 -13.605,0 -21.168,0 -26.105,4.937 -4.941,4.942 -4.941,12.504 -4.941,26.11 0,13.601 0,21.168 4.941,26.105 4.937,4.942 12.5,4.942 26.105,4.942 z" /></g><g
       transform="matrix(1,0,0,-1,0,506.89432)"
       id="g4644"><path
         inkscape:connector-curvature="0"
         id="path4646"
         style="fill:none;stroke:#646464;stroke-width:4;stroke-linecap:butt;stroke-linejoin:miter;stroke-miterlimit:4;stroke-dasharray:none;stroke-opacity:1"
         d="m 56.398,456.789 c 13.606,0 21.168,0 26.106,-4.937 4.941,-4.942 4.941,-12.504 4.941,-26.11 0,-13.601 0,-21.164 -4.941,-26.105 -4.938,-4.942 -12.5,-4.942 -26.106,-4.942 -13.605,0 -21.168,0 -26.105,4.942 -4.941,4.941 -4.941,12.504 -4.941,26.105 0,13.606 0,21.168 4.941,26.11 4.937,4.937 12.5,4.937 26.105,4.937 z" /></g><g
       transform="matrix(1,0,0,-1,0,506.89432)"
       id="g4648"><path
         inkscape:connector-curvature="0"
         id="path4650"
         style="fill:none;stroke:#000000;stroke-width:5.03749418;stroke-linecap:butt;stroke-linejoin:miter;stroke-miterlimit:4;stroke-dasharray:none;stroke-opacity:1"
         d="m 135.828,104.848 c 17.133,0 26.656,0 32.879,-6.219 6.219,-6.223 6.219,-15.746 6.219,-32.879 0,-17.133 0,-26.656 -6.219,-32.879 -6.223,-6.223 -15.746,-6.223 -32.879,-6.223 -17.133,0 -26.66,0 -32.879,6.223 -6.222,6.223 -6.222,15.746 -6.222,32.879 0,17.133 0,26.656 6.222,32.879 6.219,6.219 15.746,6.219 32.879,6.219 z" /></g><g
       transform="matrix(1,0,0,-1,0,506.89432)"
       id="g4652"><path
         inkscape:connector-curvature="0"
         id="path4654"
         style="fill:none;stroke:#000000;stroke-width:5.03749418;stroke-linecap:butt;stroke-linejoin:miter;stroke-miterlimit:4;stroke-dasharray:none;stroke-opacity:1"
         d="m 135.828,354.559 c 17.133,0 26.656,0 32.879,-6.223 6.219,-6.219 6.219,-15.746 6.219,-32.879 0,-17.133 0,-26.656 -6.219,-32.879 -6.223,-6.219 -15.746,-6.219 -32.879,-6.219 -17.133,0 -26.66,0 -32.879,6.219 -6.222,6.223 -6.222,15.746 -6.222,32.879 0,17.133 0,26.66 6.222,32.879 6.219,6.223 15.746,6.223 32.879,6.223 z" /></g><g
       transform="matrix(1,0,0,-1,0,506.89432)"
       id="g4656"><path
         inkscape:connector-curvature="0"
         id="path4658"
         style="fill:none;stroke:#646464;stroke-width:4;stroke-linecap:butt;stroke-linejoin:miter;stroke-miterlimit:4;stroke-dasharray:none;stroke-opacity:1"
         d="M 94.867,425.285 H 207.598" /></g><g
       transform="matrix(1,0,0,-1,0,506.89432)"
       id="g4660"><path
         inkscape:connector-curvature="0"
         id="path4662"
         style="fill:#646464;fill-opacity:1;fill-rule:evenodd;stroke:#646464;stroke-width:2;stroke-linecap:butt;stroke-linejoin:miter;stroke-miterlimit:4;stroke-dasharray:none;stroke-opacity:1"
         d="m 216.828,425.285 -13.84,8 v -16 z" /></g><g
       transform="matrix(1,0,0,-1,0,506.89432)"
       id="g4664"><path
         inkscape:connector-curvature="0"
         id="path4666"
         style="fill:none;stroke:#646464;stroke-width:4;stroke-linecap:butt;stroke-linejoin:miter;stroke-miterlimit:4;stroke-dasharray:none;stroke-opacity:1"
         d="M 94.07,225.285 H 206.797" /></g><g
       transform="matrix(1,0,0,-1,0,506.89432)"
       id="g4668"><path
         inkscape:connector-curvature="0"
         id="path4670"
         style="fill:#646464;fill-opacity:1;fill-rule:evenodd;stroke:#646464;stroke-width:2;stroke-linecap:butt;stroke-linejoin:miter;stroke-miterlimit:4;stroke-dasharray:none;stroke-opacity:1"
         d="m 216.027,225.285 -13.839,8 v -16 z" /></g><g
       transform="matrix(1,0,0,-1,0,506.89432)"
       id="g4672"><path
         inkscape:connector-curvature="0"
         id="path4674"
         style="fill:none;stroke:#646464;stroke-width:4;stroke-linecap:butt;stroke-linejoin:miter;stroke-miterlimit:4;stroke-dasharray:none;stroke-opacity:1"
         d="M 257.23,386.852 V 274.121" /></g><g
       transform="matrix(0,1,1,0,0,506.89432)"
       id="g4676"><path
         inkscape:connector-curvature="0"
         id="path4678"
         style="fill:#646464;fill-opacity:1;fill-rule:evenodd;stroke:#646464;stroke-width:2;stroke-linecap:butt;stroke-linejoin:miter;stroke-miterlimit:4;stroke-dasharray:none;stroke-opacity:1"
         d="m -264.891,257.23 -13.839,8 v -16 z" /></g><g
       transform="matrix(1,0,0,-1,0,506.89432)"
       id="g4680"><path
         inkscape:connector-curvature="0"
         id="path4682"
         style="fill:none;stroke:#646464;stroke-width:4;stroke-linecap:butt;stroke-linejoin:miter;stroke-miterlimit:4;stroke-dasharray:none;stroke-opacity:1"
         d="M 57.23,387.648 V 274.922" /></g><g
       transform="matrix(0,1,1,0,0,506.89432)"
       id="g4684"><path
         inkscape:connector-curvature="0"
         id="path4686"
         style="fill:#646464;fill-opacity:1;fill-rule:evenodd;stroke:#646464;stroke-width:2;stroke-linecap:butt;stroke-linejoin:miter;stroke-miterlimit:4;stroke-dasharray:none;stroke-opacity:1"
         d="m -265.691,57.23 -13.84,8 v -16 z" /></g><g
       transform="matrix(1,0,0,-1,0,506.89432)"
       id="g4688"><path
         inkscape:connector-curvature="0"
         id="path4690"
         style="fill:none;stroke:#000000;stroke-width:5.03760004;stroke-linecap:butt;stroke-linejoin:miter;stroke-miterlimit:4;stroke-dasharray:none;stroke-opacity:1"
         d="M 184.207,315.699 H 324.332" /></g><g
       transform="matrix(1,0,0,-1,0,506.89432)"
       id="g4692"><path
         inkscape:connector-curvature="0"
         id="path4694"
         style="fill:#000000;fill-opacity:1;fill-rule:evenodd;stroke:#000000;stroke-width:2.51880002;stroke-linecap:butt;stroke-linejoin:miter;stroke-miterlimit:4;stroke-dasharray:none;stroke-opacity:1"
         d="m 335.957,315.699 -17.43,10.078 v -20.152 z" /></g><g
       transform="matrix(1,0,0,-1,0,506.89432)"
       id="g4696"><path
         inkscape:connector-curvature="0"
         id="path4698"
         style="fill:none;stroke:#000000;stroke-width:5.03760004;stroke-linecap:butt;stroke-linejoin:miter;stroke-miterlimit:4;stroke-dasharray:none;stroke-opacity:1"
         d="M 183.215,67.094 H 323.336" /></g><g
       transform="matrix(1,0,0,-1,0,506.89432)"
       id="g4700"><path
         inkscape:connector-curvature="0"
         id="path4702"
         style="fill:#000000;fill-opacity:1;fill-rule:evenodd;stroke:#000000;stroke-width:2.51880002;stroke-linecap:butt;stroke-linejoin:miter;stroke-miterlimit:4;stroke-dasharray:none;stroke-opacity:1"
         d="M 334.965,67.094 317.531,77.172 V 57.02 Z" /></g><g
       transform="matrix(1,0,0,-1,0,506.89432)"
       id="g4704"><path
         inkscape:connector-curvature="0"
         id="path4706"
         style="fill:none;stroke:#000000;stroke-width:5.03760004;stroke-linecap:butt;stroke-linejoin:miter;stroke-miterlimit:4;stroke-dasharray:none;stroke-opacity:1"
         d="M 386.031,267.922 V 127.801" /></g><g
       transform="matrix(0,1,1,0,0,506.89432)"
       id="g4708"><path
         inkscape:connector-curvature="0"
         id="path4710"
         style="fill:#000000;fill-opacity:1;fill-rule:evenodd;stroke:#000000;stroke-width:2.51880002;stroke-linecap:butt;stroke-linejoin:miter;stroke-miterlimit:4;stroke-dasharray:none;stroke-opacity:1"
         d="m -116.172,386.031 -17.433,10.074 v -20.148 z" /></g><g
       transform="matrix(1,0,0,-1,0,506.89432)"
       id="g4712"><path
         inkscape:connector-curvature="0"
         id="path4714"
         style="fill:none;stroke:#000000;stroke-width:5.03760004;stroke-linecap:butt;stroke-linejoin:miter;stroke-miterlimit:4;stroke-dasharray:none;stroke-opacity:1"
         d="M 137.426,268.918 V 128.793" /></g><g
       transform="matrix(0,1,1,0,0,506.89432)"
       id="g4716"><path
         inkscape:connector-curvature="0"
         id="path4718"
         style="fill:#000000;fill-opacity:1;fill-rule:evenodd;stroke:#000000;stroke-width:2.51880002;stroke-linecap:butt;stroke-linejoin:miter;stroke-miterlimit:4;stroke-dasharray:none;stroke-opacity:1"
         d="m -117.168,137.426 -17.43,10.074 v -20.148 z" /></g><g
       transform="matrix(1,0,0,-1,0,506.89432)"
       id="g4720"><path
         inkscape:connector-curvature="0"
         id="path4722"
         style="fill:none;stroke:#000000;stroke-width:4;stroke-linecap:butt;stroke-linejoin:miter;stroke-miterlimit:4;stroke-dasharray:none;stroke-opacity:1"
         d="M 66.035,189.285 95.879,115.508" /></g><g
       transform="matrix(0.40452,1,1,-0.40452,0,506.89432)"
       id="g4724"><path
         inkscape:connector-curvature="0"
         id="path4726"
         style="fill:#000000;fill-opacity:1;fill-rule:evenodd;stroke:#000000;stroke-width:1.85405004;stroke-linecap:butt;stroke-linejoin:miter;stroke-miterlimit:4;stroke-dasharray:none;stroke-opacity:1"
         d="m -57.376,122.549 -12.831,7.418 v -14.832 z" /></g><g
       transform="matrix(1,0,0,-1,0,506.89432)"
       id="g4728"><path
         inkscape:connector-curvature="0"
         id="path4730"
         style="fill:none;stroke:#000000;stroke-width:4;stroke-linecap:butt;stroke-linejoin:miter;stroke-miterlimit:4;stroke-dasharray:none;stroke-opacity:1"
         d="m 288.891,400.715 48.988,-40.637" /></g><g
       transform="matrix(1,0.829495,0.829495,-1,0,506.89432)"
       id="g4732"><path
         inkscape:connector-curvature="0"
         id="path4734"
         style="fill:#000000;fill-opacity:1;fill-rule:evenodd;stroke:#000000;stroke-width:1.53934395;stroke-linecap:butt;stroke-linejoin:miter;stroke-miterlimit:4;stroke-dasharray:none;stroke-opacity:1"
         d="m 30.323,379.34 -10.65,6.158 0.001,-12.316 z" /></g><g
       transform="matrix(1,0,0,-1,0,506.89432)"
       id="g4736"><path
         inkscape:connector-curvature="0"
         id="path4738"
         style="fill:none;stroke:#000000;stroke-width:4;stroke-linecap:butt;stroke-linejoin:miter;stroke-miterlimit:4;stroke-dasharray:none;stroke-opacity:1"
         d="m 282.867,193.203 62.711,-78.262" /></g><g
       transform="matrix(0.801256,1,1,-0.801256,0,506.89432)"
       id="g4740"><path
         inkscape:connector-curvature="0"
         id="path4742"
         style="fill:#000000;fill-opacity:1;fill-rule:evenodd;stroke:#000000;stroke-width:1.560781;stroke-linecap:butt;stroke-linejoin:miter;stroke-miterlimit:4;stroke-dasharray:none;stroke-opacity:1"
         d="m 105.834,266.547 -10.799,6.243 0.001,-12.485 z" /></g><g
       transform="matrix(1,0,0,-1,0,506.89432)"
       id="g4744"><path
         inkscape:connector-curvature="0"
         id="path4746"
         style="fill:none;stroke:#000000;stroke-width:4;stroke-linecap:butt;stroke-linejoin:miter;stroke-miterlimit:4;stroke-dasharray:none;stroke-opacity:1"
         d="m 83.477,393.082 18.664,-25.328" /></g><g
       transform="matrix(0.736884,1,1,-0.736884,0,506.89432)"
       id="g4748"><path
         inkscape:connector-curvature="0"
         id="path4750"
         style="fill:#000000;fill-opacity:1;fill-rule:evenodd;stroke:#000000;stroke-width:1.61007905;stroke-linecap:butt;stroke-linejoin:miter;stroke-miterlimit:4;stroke-dasharray:none;stroke-opacity:1"
         d="m -182.125,241.822 -11.141,6.441 0.001,-12.88 z" /></g><g
       id="g4760"><g
         clip-path="url(#clipPath4766)"
         id="g4762"><g
           id="g4768"><path
             inkscape:connector-curvature="0"
             id="path4776"
             style="fill:url(#linearGradient4774);stroke:none"
             d="m 62.574,67.285 c 0,-3.945 -3.199,-7.141 -7.144,-7.141 -3.946,0 -7.145,3.196 -7.145,7.141 0,3.945 3.199,7.144 7.145,7.144 3.945,0 7.144,-3.199 7.144,-7.144 z" /></g></g></g><g
       id="g4778"><g
         clip-path="url(#clipPath4784)"
         id="g4780"><g
           id="g4786"><path
             inkscape:connector-curvature="0"
             id="path4794"
             style="fill:url(#linearGradient4792);stroke:none"
             d="m 74.992,79.34 c 0,-3.946 -3.199,-7.145 -7.144,-7.145 -3.946,0 -7.145,3.199 -7.145,7.145 0,3.945 3.199,7.14 7.145,7.14 3.945,0 7.144,-3.195 7.144,-7.14 z" /></g></g></g><g
       id="g4796"><g
         clip-path="url(#clipPath4802)"
         id="g4798"><g
           id="g4804"><path
             inkscape:connector-curvature="0"
             id="path4812"
             style="fill:url(#linearGradient4810);stroke:none"
             d="m 48.32,75.844 c 0,-3.946 -3.195,-7.141 -7.14,-7.141 -3.946,0 -7.145,3.195 -7.145,7.141 0,3.945 3.199,7.144 7.145,7.144 3.945,0 7.14,-3.199 7.14,-7.144 z" /></g></g></g><g
       id="g4814"><g
         clip-path="url(#clipPath4820)"
         id="g4816"><g
           id="g4822"><path
             inkscape:connector-curvature="0"
             id="path4830"
             style="fill:url(#linearGradient4828);stroke:none"
             d="m 50.223,97.762 c 0,-3.946 -3.196,-7.145 -7.141,-7.145 -3.945,0 -7.144,3.199 -7.144,7.145 0,3.945 3.199,7.14 7.144,7.14 3.945,0 7.141,-3.195 7.141,-7.14 z" /></g></g></g><g
       id="g4832"><g
         clip-path="url(#clipPath4838)"
         id="g4834"><g
           id="g4840"><path
             inkscape:connector-curvature="0"
             id="path4848"
             style="fill:url(#linearGradient4846);stroke:none"
             d="m 61.586,86.043 c 0,-3.946 -3.199,-7.145 -7.145,-7.145 -3.945,0 -7.14,3.199 -7.14,7.145 0,3.945 3.195,7.144 7.14,7.144 3.946,0 7.145,-3.199 7.145,-7.144 z" /></g></g></g><g
       id="g4850"><g
         clip-path="url(#clipPath4856)"
         id="g4852"><g
           id="g4858"><path
             inkscape:connector-curvature="0"
             id="path4866"
             style="fill:url(#linearGradient4864);stroke:none"
             d="m 74.109,98.711 c 0,-3.946 -3.195,-7.145 -7.14,-7.145 -3.946,0 -7.145,3.199 -7.145,7.145 0,3.945 3.199,7.14 7.145,7.14 3.945,0 7.14,-3.195 7.14,-7.14 z" /></g></g></g><g
       id="g4868"><g
         clip-path="url(#clipPath4874)"
         id="g4870"><g
           id="g4876"><path
             inkscape:connector-curvature="0"
             id="path4884"
             style="fill:url(#linearGradient4882);stroke:none"
             d="m 59.082,282.535 c 0,-3.941 -3.195,-7.141 -7.141,-7.141 -3.945,0 -7.144,3.2 -7.144,7.141 0,3.945 3.199,7.144 7.144,7.144 3.946,0 7.141,-3.199 7.141,-7.144 z" /></g></g></g><g
       id="g4886"><g
         clip-path="url(#clipPath4892)"
         id="g4888"><g
           id="g4894"><path
             inkscape:connector-curvature="0"
             id="path4902"
             style="fill:url(#linearGradient4900);stroke:none"
             d="m 74.84,269.203 c 0,-3.945 -3.195,-7.145 -7.141,-7.145 -3.945,0 -7.144,3.2 -7.144,7.145 0,3.945 3.199,7.144 7.144,7.144 3.946,0 7.141,-3.199 7.141,-7.144 z" /></g></g></g><g
       id="g4904"><g
         clip-path="url(#clipPath4910)"
         id="g4906"><g
           id="g4912"><path
             inkscape:connector-curvature="0"
             id="path4920"
             style="fill:url(#linearGradient4918);stroke:none"
             d="m 136.902,179.859 c 0,-5.781 -4.687,-10.465 -10.464,-10.465 -5.782,0 -10.465,4.684 -10.465,10.465 0,5.781 4.683,10.465 10.465,10.465 5.777,0 10.464,-4.684 10.464,-10.465 z" /></g></g></g><g
       id="g4922"><g
         clip-path="url(#clipPath4928)"
         id="g4924"><g
           id="g4930"><path
             inkscape:connector-curvature="0"
             id="path4938"
             style="fill:url(#linearGradient4936);stroke:none"
             d="m 159.527,203.293 c 0,-5.778 -4.683,-10.465 -10.465,-10.465 -5.777,0 -10.464,4.687 -10.464,10.465 0,5.781 4.687,10.465 10.464,10.465 5.782,0 10.465,-4.684 10.465,-10.465 z" /></g></g></g><g
       transform="matrix(1,0,0,-1,0,506.89432)"
       id="g4940"><path
         inkscape:connector-curvature="0"
         id="path4942"
         style="fill:#cedff0;fill-opacity:1;fill-rule:nonzero;stroke:#000000;stroke-width:5.03749418;stroke-linecap:butt;stroke-linejoin:miter;stroke-miterlimit:4;stroke-dasharray:none;stroke-opacity:1"
         d="m 385.605,354.465 c 17.133,0 26.657,0 32.879,-6.219 6.219,-6.223 6.219,-15.746 6.219,-32.879 0,-17.133 0,-26.66 -6.219,-32.879 -6.222,-6.222 -15.746,-6.222 -32.879,-6.222 -17.132,0 -26.656,0 -32.878,6.222 -6.223,6.219 -6.223,15.746 -6.223,32.879 0,17.133 0,26.656 6.223,32.879 6.222,6.219 15.746,6.219 32.878,6.219 z" /></g><g
       id="g4944"><g
         clip-path="url(#clipPath4950)"
         id="g4946"><g
           id="g4952"><path
             inkscape:connector-curvature="0"
             id="path4960"
             style="fill:url(#linearGradient4958);stroke:none"
             d="m 392.934,189.941 c 0,-5.781 -4.688,-10.465 -10.465,-10.465 -5.781,0 -10.465,4.684 -10.465,10.465 0,5.778 4.684,10.465 10.465,10.465 5.777,0 10.465,-4.687 10.465,-10.465 z" /></g></g></g><g
       id="g4962"><g
         clip-path="url(#clipPath4968)"
         id="g4964"><g
           id="g4970"><path
             inkscape:connector-curvature="0"
             id="path4978"
             style="fill:url(#linearGradient4976);stroke:none"
             d="m 384.41,218.117 c 0,-5.781 -4.687,-10.465 -10.465,-10.465 -5.781,0 -10.465,4.684 -10.465,10.465 0,5.777 4.684,10.465 10.465,10.465 5.778,0 10.465,-4.688 10.465,-10.465 z" /></g></g></g><g
       id="g4980"><g
         clip-path="url(#clipPath4986)"
         id="g4982"><g
           id="g4988"><path
             inkscape:connector-curvature="0"
             id="path4996"
             style="fill:url(#linearGradient4994);stroke:none"
             d="m 404.859,209.285 c 0,-5.777 -4.687,-10.465 -10.464,-10.465 -5.782,0 -10.465,4.688 -10.465,10.465 0,5.781 4.683,10.465 10.465,10.465 5.777,0 10.464,-4.684 10.464,-10.465 z" /></g></g></g><g
       id="g4998"><g
         clip-path="url(#clipPath5004)"
         id="g5000"><g
           id="g5006"><path
             inkscape:connector-curvature="0"
             id="path5014"
             style="fill:url(#linearGradient5012);stroke:none"
             d="m 419.484,192.301 c 0,-5.782 -4.687,-10.465 -10.468,-10.465 -5.778,0 -10.465,4.683 -10.465,10.465 0,5.777 4.687,10.464 10.465,10.464 5.781,0 10.468,-4.687 10.468,-10.464 z" /></g></g></g><g
       id="g5016"><g
         clip-path="url(#clipPath5022)"
         id="g5018"><g
           id="g5024"><path
             inkscape:connector-curvature="0"
             id="path5032"
             style="fill:url(#linearGradient5030);stroke:none"
             d="m 401,167.551 c 0,-5.782 -4.684,-10.465 -10.465,-10.465 -5.777,0 -10.465,4.683 -10.465,10.465 0,5.777 4.688,10.464 10.465,10.464 5.781,0 10.465,-4.687 10.465,-10.464 z" /></g></g></g><g
       id="g5034"><g
         clip-path="url(#clipPath5040)"
         id="g5036"><g
           id="g5042"><path
             inkscape:connector-curvature="0"
             id="path5050"
             style="fill:url(#linearGradient5048);stroke:none"
             d="m 377.902,168.859 c 0,-5.777 -4.687,-10.465 -10.464,-10.465 -5.782,0 -10.469,4.688 -10.469,10.465 0,5.781 4.687,10.465 10.469,10.465 5.777,0 10.464,-4.684 10.464,-10.465 z" /></g></g></g><g
       id="g5052"><g
         clip-path="url(#clipPath5058)"
         id="g5054"><g
           id="g5060"><path
             inkscape:connector-curvature="0"
             id="path5068"
             style="fill:url(#linearGradient5066);stroke:none"
             d="m 372.059,198.179 c 0,-5.781 -4.684,-10.464 -10.465,-10.464 -5.778,0 -10.465,4.683 -10.465,10.464 0,5.778 4.687,10.465 10.465,10.465 5.781,0 10.465,-4.687 10.465,-10.465 z" /></g></g></g><g
       id="g5070"><g
         clip-path="url(#clipPath5076)"
         id="g5072"><g
           id="g5078"><path
             inkscape:connector-curvature="0"
             id="path5086"
             style="fill:url(#linearGradient5084);stroke:none"
             d="m 426.133,216.566 c 0,-5.777 -4.688,-10.465 -10.469,-10.465 -5.777,0 -10.465,4.688 -10.465,10.465 0,5.781 4.688,10.465 10.465,10.465 5.781,0 10.469,-4.684 10.469,-10.465 z" /></g></g></g><g
       id="g5088"><g
         clip-path="url(#clipPath5094)"
         id="g5090"><g
           id="g5096"><path
             inkscape:connector-curvature="0"
             id="path5104"
             style="fill:url(#linearGradient5102);stroke:none"
             d="m 423.816,170.191 c 0,-5.781 -4.683,-10.465 -10.464,-10.465 -5.782,0 -10.465,4.684 -10.465,10.465 0,5.778 4.683,10.465 10.465,10.465 5.781,0 10.464,-4.687 10.464,-10.465 z" /></g></g></g><g
       transform="matrix(1,0,0,-1,0,506.89432)"
       id="g5106"><path
         inkscape:connector-curvature="0"
         id="path5108"
         style="fill:none;stroke:#000000;stroke-width:5.03760004;stroke-linecap:butt;stroke-linejoin:miter;stroke-miterlimit:4;stroke-dasharray:none;stroke-opacity:1"
         d="m 372.867,373.352 c -61.453,61.453 86.035,61.453 25.02,0.878" /></g><g
       transform="matrix(-1,0.992806,0.992806,1,0,506.89432)"
       id="g5110"><path
         inkscape:connector-curvature="0"
         id="path5112"
         style="fill:#000000;fill-opacity:1;fill-rule:evenodd;stroke:#000000;stroke-width:1.78747904;stroke-linecap:butt;stroke-linejoin:miter;stroke-miterlimit:4;stroke-dasharray:none;stroke-opacity:1"
         d="m -379.238,10.474 -12.371,7.149 10e-4,-14.301 z" /></g><g
       transform="matrix(1,0,0,-1,0,506.89432)"
       id="g5114"><path
         inkscape:connector-curvature="0"
         id="path5116"
         style="fill:none;stroke:#646464;stroke-width:4;stroke-linecap:butt;stroke-linejoin:miter;stroke-miterlimit:4;stroke-dasharray:none;stroke-opacity:1"
         d="m 247.27,469.883 c -44.082,44.082 61.714,44.082 17.949,0.629" /></g><g
       transform="matrix(-1,0.992806,0.992806,1,0,506.89432)"
       id="g5118"><path
         inkscape:connector-curvature="0"
         id="path5120"
         style="fill:#646464;fill-opacity:1;fill-rule:evenodd;stroke:#646464;stroke-width:1.41930997;stroke-linecap:butt;stroke-linejoin:miter;stroke-miterlimit:4;stroke-dasharray:none;stroke-opacity:1"
         d="m -362.266,-104.348 -9.821,5.676 v -11.355 z" /></g><g
       transform="matrix(1,0,0,-1,0,506.89432)"
       id="g5122"><path
         inkscape:connector-curvature="0"
         id="path5124"
         style="fill:none;stroke:#646464;stroke-width:4;stroke-linecap:butt;stroke-linejoin:miter;stroke-miterlimit:4;stroke-dasharray:none;stroke-opacity:1"
         d="m 264.273,184.625 c 44.082,-44.082 -61.714,-44.082 -17.949,-0.633" /></g><g
       transform="matrix(1,-0.992806,-0.992806,-1,0,506.89432)"
       id="g5126"><path
         inkscape:connector-curvature="0"
         id="path5128"
         style="fill:#646464;fill-opacity:1;fill-rule:evenodd;stroke:#646464;stroke-width:1.41930997;stroke-linecap:butt;stroke-linejoin:miter;stroke-miterlimit:4;stroke-dasharray:none;stroke-opacity:1"
         d="m 222.596,-30.498 -9.819,5.678 -10e-4,-11.355 z" /></g><text
       id="text5132"
       style="font-variant:normal;font-weight:normal;font-size:47.93700027px;font-family:'DejaVu Sans Mono';-inkscape-font-specification:DejaVuSansMono;writing-mode:lr-tb;fill:#000000;fill-opacity:1;fill-rule:nonzero;stroke:none"
       transform="scale(1,-1)"
       x="389.62488"
       y="-48.678783"><tspan
         id="tspan5130"
         y="-48.678783"
         x="389.62488">b</tspan></text>
<text
       id="text5158"
       style="font-variant:normal;font-weight:normal;font-size:47.93700027px;font-family:'DejaVu Sans Mono';-inkscape-font-specification:DejaVuSansMono;writing-mode:lr-tb;fill:#000000;fill-opacity:1;fill-rule:nonzero;stroke:none"
       transform="scale(1,-1)"
       x="277.62488"
       y="-0.678783"><tspan
         id="tspan5154"
         y="-0.678783"
         x="277.62488">b</tspan><tspan
         id="tspan5156"
         y="-361.82159"
         x="243.33914">b</tspan></text>
<text
       id="text5132-3"
       style="font-style:normal;font-variant:normal;font-weight:normal;font-stretch:normal;font-size:30px;font-family:'Bitstream Vera Sans';-inkscape-font-specification:'Bitstream Vera Sans, Normal';font-variant-ligatures:normal;font-variant-caps:normal;font-variant-numeric:normal;font-feature-settings:normal;text-align:start;writing-mode:lr-tb;text-anchor:start;fill:#000000;fill-opacity:1;fill-rule:nonzero;stroke:none;stroke-width:0.99999994"
       x="374.29156"
       y="-426.39957"
       transform="scale(1,-1)"><tspan
         sodipodi:role="line"
         id="tspan4760"
         x="374.29156"
         y="-426.39957"
         style="font-style:normal;font-variant:normal;font-weight:normal;font-stretch:normal;font-size:48px;font-family:'Bitstream Vera Sans';-inkscape-font-specification:'Bitstream Vera Sans, Normal';font-variant-ligatures:normal;font-variant-caps:normal;font-variant-numeric:normal;font-feature-settings:normal;text-align:start;writing-mode:lr-tb;text-anchor:start">?</tspan></text>
</g></svg>