<?xml version="1.0" encoding="UTF-8" standalone="no"?>
<!-- Created with Inkscape (http://www.inkscape.org/) -->

<svg
   xmlns:dc="http://purl.org/dc/elements/1.1/"
   xmlns:cc="http://creativecommons.org/ns#"
   xmlns:rdf="http://www.w3.org/1999/02/22-rdf-syntax-ns#"
   xmlns:svg="http://www.w3.org/2000/svg"
   xmlns="http://www.w3.org/2000/svg"
   xmlns:sodipodi="http://sodipodi.sourceforge.net/DTD/sodipodi-0.dtd"
   xmlns:inkscape="http://www.inkscape.org/namespaces/inkscape"
   width="204.83795"
   height="110.97958"
   id="svg2"
   version="1.1"
   inkscape:version="0.48.4 r9939"
   sodipodi:docname="latticemodel.svg">
  <defs
     id="defs4">
    <marker
       inkscape:stockid="Arrow2Mend"
       orient="auto"
       refY="0"
       refX="0"
       id="Arrow2Mend"
       style="overflow:visible">
      <path
         id="path3850"
         style="fill-rule:evenodd;stroke-width:0.625;stroke-linejoin:round"
         d="M 8.7185878,4.0337352 -2.2072895,0.01601326 8.7185884,-4.0017078 c -1.7454984,2.3720609 -1.7354408,5.6174519 -6e-7,8.035443 z"
         transform="scale(-0.6,-0.6)"
         inkscape:connector-curvature="0" />
    </marker>
    <marker
       inkscape:stockid="Arrow1Lend"
       orient="auto"
       refY="0"
       refX="0"
       id="Arrow1Lend"
       style="overflow:visible">
      <path
         id="path3826"
         d="M 0,0 5,-5 -12.5,0 5,5 0,0 z"
         style="fill-rule:evenodd;stroke:#000000;stroke-width:1pt"
         transform="matrix(-0.8,0,0,-0.8,-10,0)"
         inkscape:connector-curvature="0" />
    </marker>
    <marker
       inkscape:stockid="Arrow2Mend"
       orient="auto"
       refY="0"
       refX="0"
       id="Arrow2Mend-8"
       style="overflow:visible">
      <path
         inkscape:connector-curvature="0"
         id="path3850-4"
         style="fill-rule:evenodd;stroke-width:0.625;stroke-linejoin:round"
         d="M 8.7185878,4.0337352 -2.2072895,0.01601326 8.7185884,-4.0017078 c -1.7454984,2.3720609 -1.7354408,5.6174519 -6e-7,8.035443 z"
         transform="scale(-0.6,-0.6)" />
    </marker>
    <marker
       inkscape:stockid="Arrow2Mend"
       orient="auto"
       refY="0"
       refX="0"
       id="Arrow2Mend-1"
       style="overflow:visible">
      <path
         inkscape:connector-curvature="0"
         id="path3850-2"
         style="fill-rule:evenodd;stroke-width:0.625;stroke-linejoin:round"
         d="M 8.7185878,4.0337352 -2.2072895,0.01601326 8.7185884,-4.0017078 c -1.7454984,2.3720609 -1.7354408,5.6174519 -6e-7,8.035443 z"
         transform="scale(-0.6,-0.6)" />
    </marker>
    <marker
       inkscape:stockid="Arrow2Mend"
       orient="auto"
       refY="0"
       refX="0"
       id="Arrow2Mend-9"
       style="overflow:visible">
      <path
         inkscape:connector-curvature="0"
         id="path3850-1"
         style="fill-rule:evenodd;stroke-width:0.625;stroke-linejoin:round"
         d="M 8.7185878,4.0337352 -2.2072895,0.01601326 8.7185884,-4.0017078 c -1.7454984,2.3720609 -1.7354408,5.6174519 -6e-7,8.035443 z"
         transform="scale(-0.6,-0.6)" />
    </marker>
  </defs>
  <sodipodi:namedview
     id="base"
     pagecolor="#ffffff"
     bordercolor="#666666"
     borderopacity="1.0"
     inkscape:pageopacity="0.0"
     inkscape:pageshadow="2"
     inkscape:zoom="3.0693461"
     inkscape:cx="100.74195"
     inkscape:cy="52.201125"
     inkscape:document-units="px"
     inkscape:current-layer="layer1"
     showgrid="false"
     inkscape:window-width="1063"
     inkscape:window-height="729"
     inkscape:window-x="1280"
     inkscape:window-y="52"
     inkscape:window-maximized="0"
     fit-margin-top="0"
     fit-margin-left="0"
     fit-margin-right="0"
     fit-margin-bottom="0" />
  <metadata
     id="metadata7">
    <rdf:RDF>
      <cc:Work
         rdf:about="">
        <dc:format>image/svg+xml</dc:format>
        <dc:type
           rdf:resource="http://purl.org/dc/dcmitype/StillImage" />
        <dc:title></dc:title>
      </cc:Work>
    </rdf:RDF>
  </metadata>
  <g
     inkscape:label="Layer 1"
     inkscape:groupmode="layer"
     id="layer1"
     transform="translate(-346.90921,-349.69509)">
    <path
       d="M 0,0 0,1052.3622 M 30,0 30,1052.3622 M 60,0 60,1052.3622 M 90,0 90,1052.3622 M 120,0 120,1052.3622 M 150,0 150,1052.3622 M 180,0 180,1052.3622 M 210,0 210,1052.3622 M 240,0 240,1052.3622 M 270,0 270,1052.3622 M 300,0 300,1052.3622 M 330,0 330,1052.3622 M 360,0 360,1052.3622 M 390,0 390,1052.3622 M 420,0 420,1052.3622 M 450,0 450,1052.3622 M 480,0 480,1052.3622 M 510,0 510,1052.3622 M 540,0 540,1052.3622 M 570,0 570,1052.3622 M 600,0 600,1052.3622 M 630,0 630,1052.3622 M 660,0 660,1052.3622 M 690,0 690,1052.3622 M 720,0 720,1052.3622 M 0,0 744.09003,0 M 0,30 744.09003,30 M 0,60 744.09003,60 M 0,90 744.09003,90 M 0,120 744.09003,120 M 0,150 744.09003,150 M 0,180 744.09003,180 M 0,210 744.09003,210 M 0,240 744.09003,240 M 0,270 744.09003,270 M 0,300 744.09003,300 M 0,330 744.09003,330 M 0,360 744.09003,360 M 0,390 744.09003,390 M 0,420 744.09003,420 M 0,450 744.09003,450 M 0,480 744.09003,480 M 0,510 744.09003,510 M 0,540 744.09003,540 M 0,570 744.09003,570 M 0,600 744.09003,600 M 0,630 744.09003,630 M 0,660 744.09003,660 M 0,690 744.09003,690 M 0,720 744.09003,720 M 0,750 744.09003,750 M 0,780 744.09003,780 M 0,810 744.09003,810 M 0,840 744.09003,840 M 0,870 744.09003,870 M 0,900 744.09003,900 M 0,930 744.09003,930 M 0,960 744.09003,960 M 0,990 744.09003,990 M 0,1020 l 744.09003,0 M 0,1050 l 744.09003,0"
       style="fill:none;stroke:#000000;stroke-width:1pt;stroke-linecap:butt;stroke-linejoin:miter;stroke-opacity:0.36818183"
       id="path3003"
       inkscape:connector-curvature="0" />
    <path
       sodipodi:type="arc"
       style="fill:#ad7f9e;fill-opacity:1;fill-rule:nonzero;stroke:#ad7f9e;stroke-width:2;stroke-miterlimit:4;stroke-opacity:1;stroke-dasharray:none"
       id="path3009"
       sodipodi:cx="373.92856"
       sodipodi:cy="403.79074"
       sodipodi:rx="12.410714"
       sodipodi:ry="12.410714"
       d="m 386.33927,403.79074 c 0,6.85425 -5.55646,12.41072 -12.41071,12.41072 -6.85425,0 -12.41072,-5.55647 -12.41072,-12.41072 0,-6.85425 5.55647,-12.41071 12.41072,-12.41071 6.85425,0 12.41071,5.55646 12.41071,12.41071 z"
       transform="translate(1.0714286,1.0714286)" />
    <path
       sodipodi:type="arc"
       style="fill:#ad7f9e;fill-opacity:1;fill-rule:nonzero;stroke:#ad7f9e;stroke-width:2;stroke-miterlimit:4;stroke-opacity:1;stroke-dasharray:none"
       id="path3009-3"
       sodipodi:cx="373.92856"
       sodipodi:cy="403.79074"
       sodipodi:rx="12.410714"
       sodipodi:ry="12.410714"
       d="m 386.33927,403.79074 c 0,6.85425 -5.55646,12.41072 -12.41071,12.41072 -6.85425,0 -12.41072,-5.55647 -12.41072,-12.41072 0,-6.85425 5.55647,-12.41071 12.41072,-12.41071 6.85425,0 12.41071,5.55646 12.41071,12.41071 z"
       transform="translate(31.160728,1.1607257)" />
    <path
       sodipodi:type="arc"
       style="fill:#ad7f9e;fill-opacity:1;fill-rule:nonzero;stroke:#ad7f9e;stroke-width:2;stroke-miterlimit:4;stroke-opacity:1;stroke-dasharray:none"
       id="path3009-3-0"
       sodipodi:cx="373.92856"
       sodipodi:cy="403.79074"
       sodipodi:rx="12.410714"
       sodipodi:ry="12.410714"
       d="m 386.33927,403.79074 c 0,6.85425 -5.55646,12.41072 -12.41071,12.41072 -6.85425,0 -12.41072,-5.55647 -12.41072,-12.41072 0,-6.85425 5.55647,-12.41071 12.41072,-12.41071 6.85425,0 12.41071,5.55646 12.41071,12.41071 z"
       transform="translate(0.78572833,-29.249989)" />
    <path
       style="fill:none;stroke:#000000;stroke-width:1px;stroke-linecap:butt;stroke-linejoin:miter;stroke-opacity:1;marker-end:url(#Arrow2Mend)"
       d="M 393.45442,393.49018 381.08005,378.08536"
       id="path3049"
       inkscape:connector-curvature="0" />
    <path
       sodipodi:type="arc"
       style="opacity:0.5;fill:#7a41ff;fill-opacity:1;fill-rule:nonzero;stroke:#7a41ff;stroke-width:2;stroke-miterlimit:4;stroke-opacity:1;stroke-dasharray:none"
       id="path3009-3-9"
       sodipodi:cx="373.92856"
       sodipodi:cy="403.79074"
       sodipodi:rx="12.410714"
       sodipodi:ry="12.410714"
       d="m 386.33927,403.79074 c 0,6.85425 -5.55646,12.41072 -12.41071,12.41072 -6.85425,0 -12.41072,-5.55647 -12.41072,-12.41072 0,-6.85425 5.55647,-12.41071 12.41072,-12.41071 6.85425,0 12.41071,5.55646 12.41071,12.41071 z"
       transform="translate(31.142612,31.083964)" />
    <path
       style="fill:none;stroke:#000000;stroke-width:0.83096349px;stroke-linecap:butt;stroke-linejoin:miter;stroke-opacity:1;marker-end:url(#Arrow2Mend)"
       d="m 405.65593,413.74687 -0.13179,13.06561"
       id="path3049-9-5"
       inkscape:connector-curvature="0"
       inkscape:transform-center-x="33.775187"
       inkscape:transform-center-y="-0.19157782" />
    <path
       sodipodi:type="arc"
       style="opacity:0.6;fill:#ad7f9e;fill-opacity:1;fill-rule:nonzero;stroke:#ad7f9e;stroke-width:2;stroke-miterlimit:4;stroke-opacity:1;stroke-dasharray:none"
       id="path3009-3-92"
       sodipodi:cx="373.92856"
       sodipodi:cy="403.79074"
       sodipodi:rx="12.410714"
       sodipodi:ry="12.410714"
       d="m 386.33927,403.79074 c 0,6.85425 -5.55646,12.41072 -12.41071,12.41072 -6.85425,0 -12.41072,-5.55647 -12.41072,-12.41072 0,-6.85425 5.55647,-12.41071 12.41072,-12.41071 6.85425,0 12.41071,5.55646 12.41071,12.41071 z"
       transform="translate(61.04741,-29.02174)" />
    <path
       style="fill:none;stroke:#000000;stroke-width:1px;stroke-linecap:butt;stroke-linejoin:miter;stroke-opacity:1;marker-end:url(#Arrow2Mend)"
       d="M 417.37164,393.87082 429.74601,378.466"
       id="path3049-9"
       inkscape:connector-curvature="0"
       inkscape:transform-center-x="-24.993788"
       inkscape:transform-center-y="20.449572" />
    <path
       style="fill:none;stroke:#000000;stroke-width:1.15656388px;stroke-linecap:butt;stroke-linejoin:miter;stroke-opacity:1;marker-end:url(#Arrow2Mend)"
       d="m 419.37277,405.57884 91.49831,0.0364"
       id="path3049-9-5-2"
       inkscape:connector-curvature="0"
       inkscape:transform-center-x="3.2636172"
       inkscape:transform-center-y="9.3438304" />
    <path
       sodipodi:type="arc"
       style="opacity:0.6;fill:#ad7f9e;fill-opacity:1;fill-rule:nonzero;stroke:#ad7f9e;stroke-width:2;stroke-miterlimit:4;stroke-opacity:1;stroke-dasharray:none"
       id="path3009-3-92-2"
       sodipodi:cx="373.92856"
       sodipodi:cy="403.79074"
       sodipodi:rx="12.410714"
       sodipodi:ry="12.410714"
       d="m 386.33927,403.79074 a 12.410714,12.410714 0 1 1 -24.82143,0 12.410714,12.410714 0 1 1 24.82143,0 z"
       transform="translate(151.02198,1.4236603)" />
    <text
       xml:space="preserve"
       style="font-size:10px;font-style:normal;font-variant:normal;font-weight:normal;font-stretch:normal;line-height:125%;letter-spacing:0px;word-spacing:0px;fill:#000000;fill-opacity:1;stroke:none;font-family:Liberation Sans;-inkscape-font-specification:Liberation Sans"
       x="367.49313"
       y="376.82339"
       id="text4780"
       sodipodi:linespacing="125%"><tspan
         sodipodi:role="line"
         id="tspan4782"
         x="367.49313"
         y="376.82339"
         style="font-size:10px">NO</tspan></text>
    <text
       xml:space="preserve"
       style="font-size:10px;font-style:normal;font-variant:normal;font-weight:normal;font-stretch:normal;line-height:125%;letter-spacing:0px;word-spacing:0px;fill:#000000;fill-opacity:1;stroke:none;font-family:Liberation Sans;-inkscape-font-specification:Liberation Sans"
       x="427.67349"
       y="376.84381"
       id="text4805"
       sodipodi:linespacing="125%"><tspan
         sodipodi:role="line"
         id="tspan4807"
         x="427.67349"
         y="376.84381"
         style="font-size:10px">OK</tspan></text>
    <path
       sodipodi:type="arc"
       style="opacity:0.00819672;fill:#ad7f9e;fill-opacity:1;fill-rule:nonzero;stroke:#ad7f9e;stroke-width:2;stroke-miterlimit:4;stroke-opacity:1;stroke-dasharray:none"
       id="path3009-3-92-2-7"
       sodipodi:cx="373.92856"
       sodipodi:cy="403.79074"
       sodipodi:rx="12.410714"
       sodipodi:ry="12.410714"
       d="m 386.33927,403.79074 c 0,6.85425 -5.55646,12.41072 -12.41071,12.41072 -6.85425,0 -12.41072,-5.55647 -12.41072,-12.41072 0,-6.85425 5.55647,-12.41071 12.41072,-12.41071 6.85425,0 12.41071,5.55646 12.41071,12.41071 z"
       transform="matrix(0.80364619,0,0,0.64027078,240.45983,193.56171)" />
    <path
       sodipodi:type="arc"
       style="opacity:0.00819672;fill:#ad7f9e;fill-opacity:1;fill-rule:nonzero;stroke:#ad7f9e;stroke-width:2;stroke-miterlimit:4;stroke-opacity:1;stroke-dasharray:none"
       id="path3009-3-92-2-7-7"
       sodipodi:cx="373.92856"
       sodipodi:cy="403.79074"
       sodipodi:rx="12.410714"
       sodipodi:ry="12.410714"
       d="m 386.33927,403.79074 c 0,6.85425 -5.55646,12.41072 -12.41071,12.41072 -6.85425,0 -12.41072,-5.55647 -12.41072,-12.41072 0,-6.85425 5.55647,-12.41071 12.41072,-12.41071 6.85425,0 12.41071,5.55646 12.41071,12.41071 z"
       transform="matrix(0.80364619,0,0,0.64027078,57.16964,99.749384)" />
  </g>
</svg>
