<?xml version="1.0" encoding="UTF-8" standalone="no"?>
<!-- Created with Inkscape (http://www.inkscape.org/) -->

<svg
   xmlns:dc="http://purl.org/dc/elements/1.1/"
   xmlns:cc="http://creativecommons.org/ns#"
   xmlns:rdf="http://www.w3.org/1999/02/22-rdf-syntax-ns#"
   xmlns:svg="http://www.w3.org/2000/svg"
   xmlns="http://www.w3.org/2000/svg"
   xmlns:sodipodi="http://sodipodi.sourceforge.net/DTD/sodipodi-0.dtd"
   xmlns:inkscape="http://www.inkscape.org/namespaces/inkscape"
   width="284.51151mm"
   height="149.98727mm"
   viewBox="0 0 284.51151 149.98728"
   version="1.1"
   id="svg8"
   sodipodi:docname="OldModel.svg"
   inkscape:version="0.92.1 r15371">
  <defs
     id="defs2">
    <marker
       inkscape:stockid="TriangleOutM"
       orient="auto"
       refY="0"
       refX="0"
       id="marker5029"
       style="overflow:visible"
       inkscape:isstock="true">
      <path
         id="path5027"
         d="M 5.77,0 -2.88,5 V -5 Z"
         style="fill:#000000;fill-opacity:1;fill-rule:evenodd;stroke:#000000;stroke-width:1.00000003pt;stroke-opacity:1"
         transform="scale(0.4)"
         inkscape:connector-curvature="0" />
    </marker>
    <marker
       inkscape:isstock="true"
       style="overflow:visible"
       id="marker5023"
       refX="0"
       refY="0"
       orient="auto"
       inkscape:stockid="TriangleOutM">
      <path
         transform="scale(0.4)"
         style="fill:#000000;fill-opacity:1;fill-rule:evenodd;stroke:#000000;stroke-width:1.00000003pt;stroke-opacity:1"
         d="M 5.77,0 -2.88,5 V -5 Z"
         id="path5021"
         inkscape:connector-curvature="0" />
    </marker>
    <marker
       inkscape:isstock="true"
       style="overflow:visible"
       id="marker5019"
       refX="0"
       refY="0"
       orient="auto"
       inkscape:stockid="TriangleOutM">
      <path
         transform="scale(0.4)"
         style="fill:#000000;fill-opacity:1;fill-rule:evenodd;stroke:#000000;stroke-width:1.00000003pt;stroke-opacity:1"
         d="M 5.77,0 -2.88,5 V -5 Z"
         id="path5017"
         inkscape:connector-curvature="0" />
    </marker>
    <marker
       inkscape:stockid="TriangleOutM"
       orient="auto"
       refY="0"
       refX="0"
       id="marker5015"
       style="overflow:visible"
       inkscape:isstock="true"
       inkscape:collect="always">
      <path
         id="path4897"
         d="M 5.77,0 -2.88,5 V -5 Z"
         style="fill:#000000;fill-opacity:1;fill-rule:evenodd;stroke:#000000;stroke-width:1.00000003pt;stroke-opacity:1"
         transform="scale(0.4)"
         inkscape:connector-curvature="0" />
    </marker>
    <marker
       inkscape:stockid="TriangleOutM"
       orient="auto"
       refY="0"
       refX="0"
       id="TriangleOutM"
       style="overflow:visible"
       inkscape:isstock="true">
      <path
         id="path4739"
         d="M 5.77,0 -2.88,5 V -5 Z"
         style="fill:#000000;fill-opacity:1;fill-rule:evenodd;stroke:#000000;stroke-width:1.00000003pt;stroke-opacity:1"
         transform="scale(0.4)"
         inkscape:connector-curvature="0" />
    </marker>
    <marker
       inkscape:stockid="TriangleOutM"
       orient="auto"
       refY="0"
       refX="0"
       id="TriangleOutM-5"
       style="overflow:visible"
       inkscape:isstock="true">
      <path
         inkscape:connector-curvature="0"
         id="path4739-9"
         d="M 5.77,0 -2.88,5 V -5 Z"
         style="fill:#000000;fill-opacity:1;fill-rule:evenodd;stroke:#000000;stroke-width:1.00000003pt;stroke-opacity:1"
         transform="scale(0.4)" />
    </marker>
    <marker
       inkscape:stockid="TriangleOutM"
       orient="auto"
       refY="0"
       refX="0"
       id="TriangleOutM-8"
       style="overflow:visible"
       inkscape:isstock="true">
      <path
         inkscape:connector-curvature="0"
         id="path4739-5"
         d="M 5.77,0 -2.88,5 V -5 Z"
         style="fill:#000000;fill-opacity:1;fill-rule:evenodd;stroke:#000000;stroke-width:1.00000003pt;stroke-opacity:1"
         transform="scale(0.4)" />
    </marker>
    <marker
       inkscape:stockid="TriangleOutM"
       orient="auto"
       refY="0"
       refX="0"
       id="TriangleOutM-8-3"
       style="overflow:visible"
       inkscape:isstock="true">
      <path
         inkscape:connector-curvature="0"
         id="path4739-5-8"
         d="M 5.77,0 -2.88,5 V -5 Z"
         style="fill:#000000;fill-opacity:1;fill-rule:evenodd;stroke:#000000;stroke-width:1.00000003pt;stroke-opacity:1"
         transform="scale(0.4)" />
    </marker>
    <marker
       inkscape:stockid="TriangleOutM"
       orient="auto"
       refY="0"
       refX="0"
       id="TriangleOutM-8-3-7"
       style="overflow:visible"
       inkscape:isstock="true">
      <path
         inkscape:connector-curvature="0"
         id="path4739-5-8-9"
         d="M 5.77,0 -2.88,5 V -5 Z"
         style="fill:#000000;fill-opacity:1;fill-rule:evenodd;stroke:#000000;stroke-width:1.00000003pt;stroke-opacity:1"
         transform="scale(0.4)" />
    </marker>
    <marker
       inkscape:stockid="TriangleOutM"
       orient="auto"
       refY="0"
       refX="0"
       id="TriangleOutM-8-3-7-7"
       style="overflow:visible"
       inkscape:isstock="true">
      <path
         inkscape:connector-curvature="0"
         id="path4739-5-8-9-8"
         d="M 5.77,0 -2.88,5 V -5 Z"
         style="fill:#000000;fill-opacity:1;fill-rule:evenodd;stroke:#000000;stroke-width:1.00000003pt;stroke-opacity:1"
         transform="scale(0.4)" />
    </marker>
    <marker
       inkscape:stockid="TriangleOutM"
       orient="auto"
       refY="0"
       refX="0"
       id="TriangleOutM-8-3-7-7-4"
       style="overflow:visible"
       inkscape:isstock="true">
      <path
         inkscape:connector-curvature="0"
         id="path4739-5-8-9-8-1"
         d="M 5.77,0 -2.88,5 V -5 Z"
         style="fill:#000000;fill-opacity:1;fill-rule:evenodd;stroke:#000000;stroke-width:1.00000003pt;stroke-opacity:1"
         transform="scale(0.4)" />
    </marker>
    <marker
       inkscape:stockid="TriangleOutM"
       orient="auto"
       refY="0"
       refX="0"
       id="TriangleOutM-8-3-7-7-0"
       style="overflow:visible"
       inkscape:isstock="true">
      <path
         inkscape:connector-curvature="0"
         id="path4739-5-8-9-8-9"
         d="M 5.77,0 -2.88,5 V -5 Z"
         style="fill:#000000;fill-opacity:1;fill-rule:evenodd;stroke:#000000;stroke-width:1.00000003pt;stroke-opacity:1"
         transform="scale(0.4)" />
    </marker>
    <marker
       inkscape:stockid="TriangleOutM"
       orient="auto"
       refY="0"
       refX="0"
       id="TriangleOutM-8-3-7-7-8"
       style="overflow:visible"
       inkscape:isstock="true">
      <path
         inkscape:connector-curvature="0"
         id="path4739-5-8-9-8-5"
         d="M 5.77,0 -2.88,5 V -5 Z"
         style="fill:#000000;fill-opacity:1;fill-rule:evenodd;stroke:#000000;stroke-width:1.00000003pt;stroke-opacity:1"
         transform="scale(0.4)" />
    </marker>
    <marker
       inkscape:stockid="TriangleOutM"
       orient="auto"
       refY="0"
       refX="0"
       id="TriangleOutM-8-3-7-7-8-3"
       style="overflow:visible"
       inkscape:isstock="true">
      <path
         inkscape:connector-curvature="0"
         id="path4739-5-8-9-8-5-7"
         d="M 5.77,0 -2.88,5 V -5 Z"
         style="fill:#000000;fill-opacity:1;fill-rule:evenodd;stroke:#000000;stroke-width:1.00000003pt;stroke-opacity:1"
         transform="scale(0.4)" />
    </marker>
    <marker
       inkscape:stockid="TriangleOutM"
       orient="auto"
       refY="0"
       refX="0"
       id="TriangleOutM-8-3-7-7-4-3"
       style="overflow:visible"
       inkscape:isstock="true">
      <path
         inkscape:connector-curvature="0"
         id="path4739-5-8-9-8-1-3"
         d="M 5.77,0 -2.88,5 V -5 Z"
         style="fill:#000000;fill-opacity:1;fill-rule:evenodd;stroke:#000000;stroke-width:1.00000003pt;stroke-opacity:1"
         transform="scale(0.4)" />
    </marker>
    <marker
       inkscape:stockid="TriangleOutM"
       orient="auto"
       refY="0"
       refX="0"
       id="TriangleOutM-8-3-7-7-83"
       style="overflow:visible"
       inkscape:isstock="true">
      <path
         inkscape:connector-curvature="0"
         id="path4739-5-8-9-8-7"
         d="M 5.77,0 -2.88,5 V -5 Z"
         style="fill:#000000;fill-opacity:1;fill-rule:evenodd;stroke:#000000;stroke-width:1.00000003pt;stroke-opacity:1"
         transform="scale(0.4)" />
    </marker>
    <marker
       inkscape:stockid="TriangleOutM"
       orient="auto"
       refY="0"
       refX="0"
       id="TriangleOutM-8-3-7-9"
       style="overflow:visible"
       inkscape:isstock="true">
      <path
         inkscape:connector-curvature="0"
         id="path4739-5-8-9-3"
         d="M 5.77,0 -2.88,5 V -5 Z"
         style="fill:#000000;fill-opacity:1;fill-rule:evenodd;stroke:#000000;stroke-width:1.00000003pt;stroke-opacity:1"
         transform="scale(0.4)" />
    </marker>
    <marker
       inkscape:stockid="TriangleOutM"
       orient="auto"
       refY="0"
       refX="0"
       id="TriangleOutM-8-3-78"
       style="overflow:visible"
       inkscape:isstock="true">
      <path
         inkscape:connector-curvature="0"
         id="path4739-5-8-7"
         d="M 5.77,0 -2.88,5 V -5 Z"
         style="fill:#000000;fill-opacity:1;fill-rule:evenodd;stroke:#000000;stroke-width:1.00000003pt;stroke-opacity:1"
         transform="scale(0.4)" />
    </marker>
    <marker
       inkscape:isstock="true"
       style="overflow:visible"
       id="marker5023-0"
       refX="0"
       refY="0"
       orient="auto"
       inkscape:stockid="TriangleOutM">
      <path
         transform="scale(0.4)"
         style="fill:#000000;fill-opacity:1;fill-rule:evenodd;stroke:#000000;stroke-width:1.00000003pt;stroke-opacity:1"
         d="M 5.77,0 -2.88,5 V -5 Z"
         id="path5021-4"
         inkscape:connector-curvature="0" />
    </marker>
    <marker
       inkscape:isstock="true"
       style="overflow:visible"
       id="marker5019-6"
       refX="0"
       refY="0"
       orient="auto"
       inkscape:stockid="TriangleOutM">
      <path
         transform="scale(0.4)"
         style="fill:#000000;fill-opacity:1;fill-rule:evenodd;stroke:#000000;stroke-width:1.00000003pt;stroke-opacity:1"
         d="M 5.77,0 -2.88,5 V -5 Z"
         id="path5017-7"
         inkscape:connector-curvature="0" />
    </marker>
    <marker
       inkscape:stockid="TriangleOutM"
       orient="auto"
       refY="0"
       refX="0"
       id="marker5015-6"
       style="overflow:visible"
       inkscape:isstock="true"
       inkscape:collect="always">
      <path
         id="path4897-0"
         d="M 5.77,0 -2.88,5 V -5 Z"
         style="fill:#000000;fill-opacity:1;fill-rule:evenodd;stroke:#000000;stroke-width:1.00000003pt;stroke-opacity:1"
         transform="scale(0.4)"
         inkscape:connector-curvature="0" />
    </marker>
  </defs>
  <sodipodi:namedview
     id="base"
     pagecolor="#ffffff"
     bordercolor="#666666"
     borderopacity="1.0"
     inkscape:pageopacity="0.0"
     inkscape:pageshadow="2"
     inkscape:zoom="0.98994949"
     inkscape:cx="550.97491"
     inkscape:cy="261.99852"
     inkscape:document-units="mm"
     inkscape:current-layer="layer1"
     showgrid="false"
     inkscape:window-width="1889"
     inkscape:window-height="1052"
     inkscape:window-x="0"
     inkscape:window-y="0"
     inkscape:window-maximized="1"
     fit-margin-top="0"
     fit-margin-left="0"
     fit-margin-right="0"
     fit-margin-bottom="0">
    <inkscape:grid
       type="xygrid"
       id="grid4622"
       originx="37.446899"
       originy="-66.223383" />
  </sodipodi:namedview>
  <metadata
     id="metadata5">
    <rdf:RDF>
      <cc:Work
         rdf:about="">
        <dc:format>image/svg+xml</dc:format>
        <dc:type
           rdf:resource="http://purl.org/dc/dcmitype/StillImage" />
        <dc:title></dc:title>
      </cc:Work>
    </rdf:RDF>
  </metadata>
  <g
     inkscape:label="Layer 1"
     inkscape:groupmode="layer"
     id="layer1"
     transform="translate(37.446899,-80.789361)">
    <path
       style="fill:#cb92ff;fill-opacity:0.34901961;stroke:#460086;stroke-width:1.69299996;stroke-miterlimit:4;stroke-dasharray:3.38599982, 1.69299991;stroke-dashoffset:0;stroke-opacity:1"
       id="path4624-97-5"
       sodipodi:type="arc"
       sodipodi:cx="140.50111"
       sodipodi:cy="219.74672"
       sodipodi:rx="30.832575"
       sodipodi:ry="37.947773"
       sodipodi:start="5.8278289"
       sodipodi:end="5.8217386"
       sodipodi:open="true"
       d="m 168.19198,203.05796 a 30.832575,37.947773 0 0 1 -14.0891,50.74437 30.832575,37.947773 0 0 1 -41.25122,-17.26314 30.832575,37.947773 0 0 1 13.96349,-50.79695 30.832575,37.947773 0 0 1 41.29374,17.10846"
       transform="rotate(-22.619819)" />
    <g
       id="g4590"
       transform="rotate(38.679735,30.54048,161.1554)">
      <path
         d="M 88.123396,129.675 A 64.116074,71.581642 0 0 1 58.76096,225.43035 64.116074,71.581642 0 0 1 -27.019548,192.68786 64.116074,71.581642 0 0 1 2.2732687,96.905938 64.116074,71.581642 0 0 1 88.077551,129.57069"
         sodipodi:open="true"
         sodipodi:end="5.8262057"
         sodipodi:start="5.8278289"
         sodipodi:ry="71.581642"
         sodipodi:rx="64.116074"
         sodipodi:cy="161.15535"
         sodipodi:cx="30.540472"
         sodipodi:type="arc"
         id="path4571-7"
         style="fill:#ff9f92;fill-opacity:0.34977579;stroke:#000000;stroke-width:1.69299996;stroke-miterlimit:4;stroke-dasharray:3.386, 1.693;stroke-dashoffset:0;stroke-opacity:1" />
      <path
         d="M 79.799552,133.83351 A 55.184521,61.610119 0 0 1 54.527387,216.24987 55.184521,61.610119 0 0 1 -19.30365,188.06851 55.184521,61.610119 0 0 1 5.9085934,105.62927 55.184521,61.610119 0 0 1 79.760093,133.74373"
         sodipodi:open="true"
         sodipodi:end="5.8262057"
         sodipodi:start="5.8278289"
         sodipodi:ry="61.610119"
         sodipodi:rx="55.184521"
         sodipodi:cy="160.92856"
         sodipodi:cx="30.238094"
         sodipodi:type="arc"
         id="path4571"
         style="fill:#ff9f92;fill-opacity:1;stroke:#000000;stroke-width:1.69333339;stroke-miterlimit:4;stroke-dasharray:none;stroke-dashoffset:0;stroke-opacity:1" />
    </g>
    <path
       style="fill:none;stroke:#000000;stroke-width:0.76499999;stroke-linecap:butt;stroke-linejoin:miter;stroke-miterlimit:4;stroke-dasharray:none;stroke-opacity:1;marker-end:url(#TriangleOutM)"
       d="M 36.883195,100.49008 V 94.276061"
       id="path4592"
       inkscape:connector-curvature="0" />
    <path
       style="fill:none;stroke:#000000;stroke-width:0.76499999;stroke-linecap:butt;stroke-linejoin:miter;stroke-miterlimit:4;stroke-dasharray:none;stroke-opacity:1;marker-end:url(#TriangleOutM-5)"
       d="m 49.393802,101.89332 1.283249,-6.080078"
       id="path4592-7"
       inkscape:connector-curvature="0" />
    <path
       style="fill:none;stroke:#000000;stroke-width:0.76499999;stroke-linecap:butt;stroke-linejoin:miter;stroke-miterlimit:4;stroke-dasharray:none;stroke-opacity:1;marker-end:url(#TriangleOutM-8)"
       d="m 65.718998,108.75427 3.390298,-5.20768"
       id="path4592-3"
       inkscape:connector-curvature="0" />
    <path
       style="fill:none;stroke:#000000;stroke-width:0.76499999;stroke-linecap:butt;stroke-linejoin:miter;stroke-miterlimit:4;stroke-dasharray:none;stroke-opacity:1;marker-end:url(#TriangleOutM-8-3)"
       d="m 81.90757,125.04479 5.02195,-3.6598"
       id="path4592-3-3"
       inkscape:connector-curvature="0" />
    <path
       style="fill:none;stroke:#000000;stroke-width:0.76499999;stroke-linecap:butt;stroke-linejoin:miter;stroke-miterlimit:4;stroke-dasharray:none;stroke-opacity:1;marker-end:url(#TriangleOutM-8-3-7)"
       d="m 87.093692,136.9698 5.758146,-2.33621"
       id="path4592-3-3-3"
       inkscape:connector-curvature="0" />
    <path
       style="fill:none;stroke:#000000;stroke-width:0.76499999;stroke-linecap:butt;stroke-linejoin:miter;stroke-miterlimit:4;stroke-dasharray:none;stroke-opacity:1;marker-end:url(#TriangleOutM-8-3-7-7)"
       d="m 88.542403,143.35728 6.097067,-1.19995"
       id="path4592-3-3-3-7"
       inkscape:connector-curvature="0" />
    <path
       style="fill:none;stroke:#000000;stroke-width:0.76499999;stroke-linecap:butt;stroke-linejoin:miter;stroke-miterlimit:4;stroke-dasharray:none;stroke-opacity:1;marker-end:url(#TriangleOutM-8-3-7-7-4)"
       d="m 89.516494,151.47218 6.204894,-0.33675"
       id="path4592-3-3-3-7-9"
       inkscape:connector-curvature="0" />
    <path
       style="fill:none;stroke:#000000;stroke-width:0.76499999;stroke-linecap:butt;stroke-linejoin:miter;stroke-miterlimit:4;stroke-dasharray:none;stroke-opacity:1;marker-end:url(#TriangleOutM-8-3-7-7-0)"
       d="m 88.977904,161.25717 6.188725,0.56017"
       id="path4592-3-3-3-7-8"
       inkscape:connector-curvature="0" />
    <path
       style="fill:none;stroke:#000000;stroke-width:0.76499999;stroke-linecap:butt;stroke-linejoin:miter;stroke-miterlimit:4;stroke-dasharray:none;stroke-opacity:1;marker-end:url(#TriangleOutM-8-3-7-7-8)"
       d="m 79.807836,188.36473 5.27301,3.28778"
       id="path4592-3-3-3-7-84"
       inkscape:connector-curvature="0" />
    <path
       style="fill:none;stroke:#000000;stroke-width:0.76499999;stroke-linecap:butt;stroke-linejoin:miter;stroke-miterlimit:4;stroke-dasharray:none;stroke-opacity:1;marker-end:url(#TriangleOutM-8-3-7-7-8-3)"
       d="m 59.49832,210.2323 3.905237,4.83356"
       id="path4592-3-3-3-7-84-1"
       inkscape:connector-curvature="0" />
    <path
       style="fill:#cb92ff;fill-opacity:1;stroke:#000000;stroke-width:1.69299996;stroke-linecap:butt;stroke-linejoin:miter;stroke-miterlimit:4;stroke-dasharray:none;stroke-opacity:1"
       d="m 54.255714,167.64155 c 11.150287,3.82253 18.672942,10.41913 25.591754,17.47749 19.872273,12.53086 28.914152,-24.02427 7.559524,-21.26115 -11.050426,4.2539 -22.100852,4.5273 -33.151278,3.78366 z"
       id="path8008"
       inkscape:connector-curvature="0"
       sodipodi:nodetypes="cccc" />
    <path
       style="fill:#cb92ff;fill-opacity:1;stroke:#000000;stroke-width:0.76499999;stroke-miterlimit:4;stroke-dasharray:none;stroke-dashoffset:0;stroke-opacity:1"
       id="path4624"
       sodipodi:type="arc"
       sodipodi:cx="142.875"
       sodipodi:cy="188.52084"
       sodipodi:rx="2.6458333"
       sodipodi:ry="2.6458333"
       sodipodi:start="5.8278289"
       sodipodi:end="5.8262057"
       sodipodi:open="true"
       d="m 145.25123,187.35725 a 2.6458333,2.6458333 0 0 1 -1.21167,3.53936 2.6458333,2.6458333 0 0 1 -3.53985,-1.21025 2.6458333,2.6458333 0 0 1 1.20881,-3.54033 2.6458333,2.6458333 0 0 1 3.54082,1.20737" />
    <path
       style="fill:#cb92ff;fill-opacity:1;stroke:#000000;stroke-width:0.76499999;stroke-miterlimit:4;stroke-dasharray:none;stroke-dashoffset:0;stroke-opacity:1"
       id="path4624-0"
       sodipodi:type="arc"
       sodipodi:cx="134.9375"
       sodipodi:cy="196.45834"
       sodipodi:rx="2.6458333"
       sodipodi:ry="2.6458333"
       sodipodi:start="5.8278289"
       sodipodi:end="5.8262057"
       sodipodi:open="true"
       d="m 137.31373,195.29475 a 2.6458333,2.6458333 0 0 1 -1.21167,3.53936 2.6458333,2.6458333 0 0 1 -3.53985,-1.21025 2.6458333,2.6458333 0 0 1 1.20881,-3.54033 2.6458333,2.6458333 0 0 1 3.54082,1.20737" />
    <path
       style="fill:#cb92ff;fill-opacity:1;stroke:#000000;stroke-width:0.76499999;stroke-miterlimit:4;stroke-dasharray:none;stroke-dashoffset:0;stroke-opacity:1"
       id="path4624-4"
       sodipodi:type="arc"
       sodipodi:cx="132.29167"
       sodipodi:cy="183.22917"
       sodipodi:rx="2.6458333"
       sodipodi:ry="2.6458333"
       sodipodi:start="5.8278289"
       sodipodi:end="5.8262057"
       sodipodi:open="true"
       d="m 134.66791,182.06558 a 2.6458333,2.6458333 0 0 1 -1.21168,3.53935 2.6458333,2.6458333 0 0 1 -3.53985,-1.21024 2.6458333,2.6458333 0 0 1 1.20881,-3.54033 2.6458333,2.6458333 0 0 1 3.54082,1.20737" />
    <path
       style="fill:#cb92ff;fill-opacity:1;stroke:#000000;stroke-width:0.76499999;stroke-miterlimit:4;stroke-dasharray:none;stroke-dashoffset:0;stroke-opacity:1"
       id="path4624-6"
       sodipodi:type="arc"
       sodipodi:cx="145.52083"
       sodipodi:cy="172.64584"
       sodipodi:rx="2.6458333"
       sodipodi:ry="2.6458333"
       sodipodi:start="5.8278289"
       sodipodi:end="5.8262057"
       sodipodi:open="true"
       d="m 147.89706,171.48225 a 2.6458333,2.6458333 0 0 1 -1.21168,3.53936 2.6458333,2.6458333 0 0 1 -3.53984,-1.21025 2.6458333,2.6458333 0 0 1 1.20881,-3.54033 2.6458333,2.6458333 0 0 1 3.54082,1.20737" />
    <path
       style="fill:#cb92ff;fill-opacity:1;stroke:#000000;stroke-width:0.76499999;stroke-miterlimit:4;stroke-dasharray:none;stroke-dashoffset:0;stroke-opacity:1"
       id="path4624-7"
       sodipodi:type="arc"
       sodipodi:cx="150.8125"
       sodipodi:cy="183.22917"
       sodipodi:rx="2.6458333"
       sodipodi:ry="2.6458333"
       sodipodi:start="5.8278289"
       sodipodi:end="5.8262057"
       sodipodi:open="true"
       d="m 153.18873,182.06558 a 2.6458333,2.6458333 0 0 1 -1.21167,3.53935 2.6458333,2.6458333 0 0 1 -3.53985,-1.21024 2.6458333,2.6458333 0 0 1 1.20881,-3.54033 2.6458333,2.6458333 0 0 1 3.54082,1.20737" />
    <path
       style="fill:#cb92ff;fill-opacity:1;stroke:#000000;stroke-width:0.76499999;stroke-miterlimit:4;stroke-dasharray:none;stroke-dashoffset:0;stroke-opacity:1"
       id="path4624-60"
       sodipodi:type="arc"
       sodipodi:cx="143.14459"
       sodipodi:cy="160.58026"
       sodipodi:rx="2.6458333"
       sodipodi:ry="2.6458333"
       sodipodi:start="5.8278289"
       sodipodi:end="5.8262057"
       sodipodi:open="true"
       d="m 145.52083,159.41667 a 2.6458333,2.6458333 0 0 1 -1.21168,3.53935 2.6458333,2.6458333 0 0 1 -3.53985,-1.21024 2.6458333,2.6458333 0 0 1 1.20881,-3.54033 2.6458333,2.6458333 0 0 1 3.54082,1.20736" />
    <path
       style="fill:#cb92ff;fill-opacity:1;stroke:#000000;stroke-width:0.76499999;stroke-miterlimit:4;stroke-dasharray:none;stroke-dashoffset:0;stroke-opacity:1"
       id="path4624-9"
       sodipodi:type="arc"
       sodipodi:cx="140.22917"
       sodipodi:cy="180.58334"
       sodipodi:rx="2.6458333"
       sodipodi:ry="2.6458333"
       sodipodi:start="5.8278289"
       sodipodi:end="5.8262057"
       sodipodi:open="true"
       d="m 142.60541,179.41975 a 2.6458333,2.6458333 0 0 1 -1.21168,3.53936 2.6458333,2.6458333 0 0 1 -3.53985,-1.21025 2.6458333,2.6458333 0 0 1 1.20881,-3.54033 2.6458333,2.6458333 0 0 1 3.54082,1.20737" />
    <path
       style="fill:#cb92ff;fill-opacity:1;stroke:#000000;stroke-width:0.76499999;stroke-miterlimit:4;stroke-dasharray:none;stroke-dashoffset:0;stroke-opacity:1"
       id="path4624-75"
       sodipodi:type="arc"
       sodipodi:cx="140.22917"
       sodipodi:cy="207.04167"
       sodipodi:rx="2.6458333"
       sodipodi:ry="2.6458333"
       sodipodi:start="5.8278289"
       sodipodi:end="5.8262057"
       sodipodi:open="true"
       d="m 142.60541,205.87808 a 2.6458333,2.6458333 0 0 1 -1.21168,3.53935 2.6458333,2.6458333 0 0 1 -3.53985,-1.21024 2.6458333,2.6458333 0 0 1 1.20881,-3.54033 2.6458333,2.6458333 0 0 1 3.54082,1.20737" />
    <path
       style="fill:#cb92ff;fill-opacity:1;stroke:#460086;stroke-width:1.69299996;stroke-miterlimit:4;stroke-dasharray:none;stroke-dashoffset:0;stroke-opacity:1"
       id="path4624-97"
       sodipodi:type="arc"
       sodipodi:cx="140.5835"
       sodipodi:cy="219.81236"
       sodipodi:rx="21.166651"
       sodipodi:ry="26.051256"
       sodipodi:start="5.8278289"
       sodipodi:end="5.8217386"
       sodipodi:open="true"
       d="m 159.59336,208.35548 a 21.166651,26.051256 0 0 1 -9.67221,34.83616 21.166651,26.051256 0 0 1 -28.31908,-11.8512 21.166651,26.051256 0 0 1 9.58597,-34.87225 21.166651,26.051256 0 0 1 28.34827,11.74501"
       transform="rotate(-22.619819)" />
    <path
       style="fill:none;stroke:#000000;stroke-width:0.76499999;stroke-linecap:butt;stroke-linejoin:miter;stroke-miterlimit:4;stroke-dasharray:none;stroke-opacity:1;marker-end:url(#TriangleOutM-8-3-78)"
       d="m 203.00911,123.38156 -2.76778,-5.56359"
       id="path4592-3-3-4"
       inkscape:connector-curvature="0" />
    <path
       style="fill:none;stroke:#000000;stroke-width:0.76499999;stroke-linecap:butt;stroke-linejoin:miter;stroke-miterlimit:4;stroke-dasharray:none;stroke-opacity:1;marker-end:url(#TriangleOutM-8-3-7-9)"
       d="m 218.35498,123.36177 2.02679,-5.8742"
       id="path4592-3-3-3-1"
       inkscape:connector-curvature="0" />
    <path
       style="fill:none;stroke:#000000;stroke-width:0.76499999;stroke-linecap:butt;stroke-linejoin:miter;stroke-miterlimit:4;stroke-dasharray:none;stroke-opacity:1;marker-end:url(#TriangleOutM-8-3-7-7-83)"
       d="m 224.65976,126.51026 3.84603,-4.88079"
       id="path4592-3-3-3-7-90"
       inkscape:connector-curvature="0" />
    <path
       style="fill:none;stroke:#000000;stroke-width:0.76499999;stroke-linecap:butt;stroke-linejoin:miter;stroke-miterlimit:4;stroke-dasharray:none;stroke-opacity:1;marker-end:url(#TriangleOutM-8-3-7-7-4-3)"
       d="m 230.68304,132.0348 4.48993,-4.29588"
       id="path4592-3-3-3-7-9-9"
       inkscape:connector-curvature="0" />
    <path
       style="fill:none;stroke:#000000;stroke-width:0.75;stroke-linecap:butt;stroke-linejoin:miter;stroke-miterlimit:4;stroke-dasharray:none;stroke-opacity:1;marker-end:url(#marker5015)"
       d="m 103.43331,173.25421 c 11.45042,-2.24105 22.9684,-5.36037 34.66954,-10.86078"
       id="path4746"
       inkscape:connector-curvature="0"
       sodipodi:nodetypes="cc" />
    <path
       style="fill:none;stroke:#000000;stroke-width:0.75;stroke-linecap:butt;stroke-linejoin:miter;stroke-miterlimit:4;stroke-dasharray:none;stroke-opacity:1;marker-end:url(#marker5019)"
       d="m 102.44529,179.39862 24.19461,2.95618"
       id="path4748"
       inkscape:connector-curvature="0"
       sodipodi:nodetypes="cc" />
    <path
       style="fill:none;stroke:#000000;stroke-width:0.75;stroke-linecap:butt;stroke-linejoin:miter;stroke-miterlimit:4;stroke-dasharray:none;stroke-opacity:1;marker-end:url(#marker5023)"
       d="m 100.24507,185.68617 c 12.26246,3.31976 26.40607,10.26053 35.15543,18.85757"
       id="path4750"
       inkscape:connector-curvature="0"
       sodipodi:nodetypes="cc" />
    <path
       style="fill:none;stroke:#000000;stroke-width:0.75;stroke-linecap:butt;stroke-linejoin:miter;stroke-miterlimit:4;stroke-dasharray:none;stroke-opacity:1;marker-end:url(#marker5029)"
       d="m 156.88721,183.81135 c 23.75802,8.28012 43.94944,-4.76382 56.66114,-33.54232"
       id="path5025"
       inkscape:connector-curvature="0"
       sodipodi:nodetypes="cc" />
    <path
       style="fill:#ff9f92;fill-opacity:1;stroke:#000000;stroke-width:0.76499999;stroke-miterlimit:4;stroke-dasharray:none;stroke-dashoffset:0;stroke-opacity:1"
       id="path4624-975"
       sodipodi:type="arc"
       sodipodi:cx="47.031631"
       sodipodi:cy="164.14844"
       sodipodi:rx="2.6458333"
       sodipodi:ry="2.6458333"
       sodipodi:start="5.8278289"
       sodipodi:end="5.8262057"
       sodipodi:open="true"
       d="m 49.407866,162.98485 a 2.6458333,2.6458333 0 0 1 -1.211679,3.53935 2.6458333,2.6458333 0 0 1 -3.539845,-1.21024 2.6458333,2.6458333 0 0 1 1.208807,-3.54034 2.6458333,2.6458333 0 0 1 3.540825,1.20737"
       transform="rotate(-35.307066)" />
    <path
       style="fill:#ff9f92;fill-opacity:1;stroke:#000000;stroke-width:0.76499999;stroke-miterlimit:4;stroke-dasharray:none;stroke-dashoffset:0;stroke-opacity:1"
       id="path4624-0-9"
       sodipodi:type="arc"
       sodipodi:cx="39.094139"
       sodipodi:cy="172.08594"
       sodipodi:rx="2.6458333"
       sodipodi:ry="2.6458333"
       sodipodi:start="5.8278289"
       sodipodi:end="5.8262057"
       sodipodi:open="true"
       d="m 41.470373,170.92235 a 2.6458333,2.6458333 0 0 1 -1.211679,3.53935 2.6458333,2.6458333 0 0 1 -3.539844,-1.21024 2.6458333,2.6458333 0 0 1 1.208806,-3.54034 2.6458333,2.6458333 0 0 1 3.540826,1.20737"
       transform="rotate(-35.307066)" />
    <path
       style="fill:#ff9f92;fill-opacity:1;stroke:#000000;stroke-width:0.76499999;stroke-miterlimit:4;stroke-dasharray:none;stroke-dashoffset:0;stroke-opacity:1"
       id="path4624-4-7"
       sodipodi:type="arc"
       sodipodi:cx="36.448318"
       sodipodi:cy="158.85675"
       sodipodi:rx="2.6458333"
       sodipodi:ry="2.6458333"
       sodipodi:start="5.8278289"
       sodipodi:end="5.8262057"
       sodipodi:open="true"
       d="m 38.824553,157.69316 a 2.6458333,2.6458333 0 0 1 -1.211679,3.53935 2.6458333,2.6458333 0 0 1 -3.539845,-1.21024 2.6458333,2.6458333 0 0 1 1.208807,-3.54034 2.6458333,2.6458333 0 0 1 3.540825,1.20737"
       transform="rotate(-35.307066)" />
    <path
       style="fill:#ff9f92;fill-opacity:1;stroke:#000000;stroke-width:0.76499999;stroke-miterlimit:4;stroke-dasharray:none;stroke-dashoffset:0;stroke-opacity:1"
       id="path4624-6-8"
       sodipodi:type="arc"
       sodipodi:cx="49.677475"
       sodipodi:cy="148.27344"
       sodipodi:rx="2.6458333"
       sodipodi:ry="2.6458333"
       sodipodi:start="5.8278289"
       sodipodi:end="5.8262057"
       sodipodi:open="true"
       d="m 52.053709,147.10985 a 2.6458333,2.6458333 0 0 1 -1.211679,3.53935 2.6458333,2.6458333 0 0 1 -3.539844,-1.21024 2.6458333,2.6458333 0 0 1 1.208806,-3.54034 2.6458333,2.6458333 0 0 1 3.540825,1.20737"
       transform="rotate(-35.307066)" />
    <path
       style="fill:#ff9f92;fill-opacity:1;stroke:#000000;stroke-width:0.76499999;stroke-miterlimit:4;stroke-dasharray:none;stroke-dashoffset:0;stroke-opacity:1"
       id="path4624-7-5"
       sodipodi:type="arc"
       sodipodi:cx="54.969131"
       sodipodi:cy="158.85675"
       sodipodi:rx="2.6458333"
       sodipodi:ry="2.6458333"
       sodipodi:start="5.8278289"
       sodipodi:end="5.8262057"
       sodipodi:open="true"
       d="m 57.345366,157.69316 a 2.6458333,2.6458333 0 0 1 -1.211679,3.53935 2.6458333,2.6458333 0 0 1 -3.539845,-1.21024 2.6458333,2.6458333 0 0 1 1.208807,-3.54034 2.6458333,2.6458333 0 0 1 3.540825,1.20737"
       transform="rotate(-35.307066)" />
    <path
       style="fill:#ff9f92;fill-opacity:1;stroke:#000000;stroke-width:0.76499999;stroke-miterlimit:4;stroke-dasharray:none;stroke-dashoffset:0;stroke-opacity:1"
       id="path4624-60-3"
       sodipodi:type="arc"
       sodipodi:cx="47.301239"
       sodipodi:cy="136.20787"
       sodipodi:rx="2.6458333"
       sodipodi:ry="2.6458333"
       sodipodi:start="5.8278289"
       sodipodi:end="5.8262057"
       sodipodi:open="true"
       d="m 49.677473,135.04428 a 2.6458333,2.6458333 0 0 1 -1.211679,3.53935 2.6458333,2.6458333 0 0 1 -3.539844,-1.21024 2.6458333,2.6458333 0 0 1 1.208806,-3.54034 2.6458333,2.6458333 0 0 1 3.540825,1.20737"
       transform="rotate(-35.307066)" />
    <path
       style="fill:#ff9f92;fill-opacity:1;stroke:#000000;stroke-width:0.76499999;stroke-miterlimit:4;stroke-dasharray:none;stroke-dashoffset:0;stroke-opacity:1"
       id="path4624-9-3"
       sodipodi:type="arc"
       sodipodi:cx="44.385818"
       sodipodi:cy="156.21094"
       sodipodi:rx="2.6458333"
       sodipodi:ry="2.6458333"
       sodipodi:start="5.8278289"
       sodipodi:end="5.8262057"
       sodipodi:open="true"
       d="m 46.762053,155.04735 a 2.6458333,2.6458333 0 0 1 -1.211679,3.53935 2.6458333,2.6458333 0 0 1 -3.539845,-1.21024 2.6458333,2.6458333 0 0 1 1.208807,-3.54034 2.6458333,2.6458333 0 0 1 3.540825,1.20737"
       transform="rotate(-35.307066)" />
    <path
       style="fill:#ff9f92;fill-opacity:1;stroke:#000000;stroke-width:0.76499999;stroke-miterlimit:4;stroke-dasharray:none;stroke-dashoffset:0;stroke-opacity:1"
       id="path4624-75-8"
       sodipodi:type="arc"
       sodipodi:cx="44.385818"
       sodipodi:cy="182.66927"
       sodipodi:rx="2.6458333"
       sodipodi:ry="2.6458333"
       sodipodi:start="5.8278289"
       sodipodi:end="5.8262057"
       sodipodi:open="true"
       d="m 46.762053,181.50567 a 2.6458333,2.6458333 0 0 1 -1.211679,3.53936 2.6458333,2.6458333 0 0 1 -3.539845,-1.21025 2.6458333,2.6458333 0 0 1 1.208807,-3.54033 2.6458333,2.6458333 0 0 1 3.540825,1.20737"
       transform="rotate(-35.307066)" />
    <path
       style="fill:none;stroke:#000000;stroke-width:0.75;stroke-linecap:butt;stroke-linejoin:miter;stroke-miterlimit:4;stroke-dasharray:none;stroke-opacity:1;marker-end:url(#marker5015-6)"
       d="M 92.241383,117.11076 C 100.29045,108.66405 107.88705,99.46157 114.25695,88.210093"
       id="path4746-3"
       inkscape:connector-curvature="0"
       sodipodi:nodetypes="cc" />
    <path
       style="fill:none;stroke:#000000;stroke-width:0.75;stroke-linecap:butt;stroke-linejoin:miter;stroke-miterlimit:4;stroke-dasharray:none;stroke-opacity:1;marker-end:url(#marker5019-6)"
       d="M 94.986305,122.69604 116.43926,111.12501"
       id="path4748-7"
       inkscape:connector-curvature="0"
       sodipodi:nodetypes="cc" />
    <path
       style="fill:none;stroke:#000000;stroke-width:0.75;stroke-linecap:butt;stroke-linejoin:miter;stroke-miterlimit:4;stroke-dasharray:none;stroke-opacity:1;marker-end:url(#marker5023-0)"
       d="m 96.824721,129.09873 c 11.925659,-4.37804 27.479259,-6.88833 39.588049,-4.92934"
       id="path4750-9"
       inkscape:connector-curvature="0"
       sodipodi:nodetypes="cc" />
  </g>
</svg>
