<?xml version="1.0" encoding="UTF-8" standalone="no"?>
<svg
   xmlns:dc="http://purl.org/dc/elements/1.1/"
   xmlns:cc="http://creativecommons.org/ns#"
   xmlns:rdf="http://www.w3.org/1999/02/22-rdf-syntax-ns#"
   xmlns:svg="http://www.w3.org/2000/svg"
   xmlns="http://www.w3.org/2000/svg"
   xmlns:sodipodi="http://sodipodi.sourceforge.net/DTD/sodipodi-0.dtd"
   xmlns:inkscape="http://www.inkscape.org/namespaces/inkscape"
   width="27.637138mm"
   height="73.498657mm"
   viewBox="0 0 27.637138 73.498657"
   version="1.1"
   id="svg8469"
   inkscape:version="1.0.2 (e86c870879, 2021-01-15)"
   sodipodi:docname="forbidden.svg">
  <defs
     id="defs8463">
    <marker
       inkscape:isstock="true"
       style="overflow:visible"
       id="marker6805-3-2-8"
       refX="0"
       refY="0"
       orient="auto"
       inkscape:stockid="Arrow2Mend">
      <path
         transform="scale(-0.6)"
         d="M 8.7185878,4.0337352 -2.2072895,0.01601326 8.7185884,-4.0017078 c -1.7454984,2.3720609 -1.7354408,5.6174519 -6e-7,8.035443 z"
         style="fill:#7e7e7e;fill-opacity:1;fill-rule:evenodd;stroke:#7e7e7e;stroke-width:0.625;stroke-linejoin:round;stroke-opacity:1"
         id="path6803-1-1-9"
         inkscape:connector-curvature="0" />
    </marker>
    <marker
       inkscape:isstock="true"
       style="overflow:visible"
       id="marker6805-3-8-6"
       refX="0"
       refY="0"
       orient="auto"
       inkscape:stockid="Arrow2Mend">
      <path
         transform="scale(-0.6)"
         d="M 8.7185878,4.0337352 -2.2072895,0.01601326 8.7185884,-4.0017078 c -1.7454984,2.3720609 -1.7354408,5.6174519 -6e-7,8.035443 z"
         style="fill:#7e7e7e;fill-opacity:1;fill-rule:evenodd;stroke:#7e7e7e;stroke-width:0.625;stroke-linejoin:round;stroke-opacity:1"
         id="path6803-1-5-4"
         inkscape:connector-curvature="0" />
    </marker>
  </defs>
  <sodipodi:namedview
     id="base"
     pagecolor="#ffffff"
     bordercolor="#666666"
     borderopacity="1.0"
     inkscape:pageopacity="0.0"
     inkscape:pageshadow="2"
     inkscape:zoom="2.8"
     inkscape:cx="135.13435"
     inkscape:cy="138.39196"
     inkscape:document-units="mm"
     inkscape:current-layer="layer1"
     inkscape:document-rotation="0"
     showgrid="false"
     fit-margin-top="0"
     fit-margin-left="0"
     fit-margin-right="0"
     fit-margin-bottom="0"
     inkscape:window-width="1889"
     inkscape:window-height="1080"
     inkscape:window-x="0"
     inkscape:window-y="0"
     inkscape:window-maximized="1" />
  <metadata
     id="metadata8466">
    <rdf:RDF>
      <cc:Work
         rdf:about="">
        <dc:format>image/svg+xml</dc:format>
        <dc:type
           rdf:resource="http://purl.org/dc/dcmitype/StillImage" />
        <dc:title></dc:title>
      </cc:Work>
    </rdf:RDF>
  </metadata>
  <g
     inkscape:label="Layer 1"
     inkscape:groupmode="layer"
     id="layer1"
     transform="translate(-60.264764,-87.982815)">
    <circle
       style="fill:none;fill-opacity:1;stroke:#7e7e7e;stroke-width:1.34837;stroke-linejoin:round;stroke-miterlimit:4;stroke-dasharray:none;stroke-dashoffset:0;stroke-opacity:1"
       id="path817-37-2-3-1-6-5-3-8-7-5-3"
       cx="116.04814"
       cy="46.140549"
       r="3.5675566"
       transform="rotate(30.567101)" />
    <circle
       style="fill:none;fill-opacity:1;stroke:#7e7e7e;stroke-width:1.34837;stroke-linejoin:round;stroke-miterlimit:4;stroke-dasharray:none;stroke-dashoffset:0;stroke-opacity:1"
       id="path817-37-2-3-1-6-5-3-7-1-6-3"
       cx="130.71202"
       cy="70.968338"
       r="3.5675566"
       transform="rotate(30.567101)" />
    <circle
       style="fill:none;fill-opacity:1;stroke:#7e7e7e;stroke-width:1.34837;stroke-linejoin:round;stroke-miterlimit:4;stroke-dasharray:none;stroke-dashoffset:0;stroke-opacity:1"
       id="path817-37-2-3-1-6-5-3-1-1-1-3"
       cx="144.62279"
       cy="94.521042"
       r="3.5675566"
       transform="rotate(30.567101)" />
    <g
       id="g7517-7-7-1-8"
       transform="rotate(30.08517,-18.71552,84.068729)">
      <g
         transform="matrix(0.45070675,-0.24883435,0.24883435,0.45070675,31.288669,28.819113)"
         id="g2801-86-2-5-6">
        <path
           style="fill:none;stroke:#000000;stroke-width:0.846873;stroke-linecap:butt;stroke-linejoin:miter;stroke-miterlimit:4;stroke-dasharray:none;stroke-opacity:1"
           d="m 23.8125,60.953869 c -2.465501,0.817162 -2.25631,4.988108 -1.889881,7.559524 0.24693,1.732832 2.645833,4.535712 2.645833,4.535712 0,0 -1.559065,3.361494 -1.322917,5.10268 0.25413,1.873776 0.950924,5.076629 2.834822,4.913691 2.740036,-0.236986 2.939167,-5.000227 2.83482,-7.748513 -0.05776,-1.521271 -1.889879,-4.157737 -1.889879,-4.157737 0,0 1.780437,-4.671827 0.944941,-6.803572 C 27.31681,62.688447 25.512256,60.390505 23.8125,60.953869 Z"
           id="path2782-8-7-9-0"
           inkscape:connector-curvature="0"
           sodipodi:nodetypes="aacssscaa" />
        <path
           style="fill:none;stroke:#000000;stroke-width:0.846873;stroke-linecap:butt;stroke-linejoin:miter;stroke-miterlimit:4;stroke-dasharray:none;stroke-opacity:1"
           d="m 34.079187,60.24823 c 2.522513,0.619173 2.644574,4.793578 2.483111,7.385947 -0.108807,1.746953 -2.278003,4.731155 -2.278003,4.731155 0,0 1.820595,3.227345 1.723199,4.98177 -0.104813,1.888024 -0.545554,5.136029 -2.436439,5.122923 -2.7502,-0.01906 -3.326244,-4.751534 -3.440057,-7.499444 -0.063,-1.521063 1.554386,-4.29445 1.554386,-4.29445 0,0 -2.145129,-4.516011 -1.481226,-6.707272 0.519228,-1.713753 2.135968,-4.147496 3.875029,-3.720629 z"
           id="path2782-5-8-2-8-4"
           inkscape:connector-curvature="0"
           sodipodi:nodetypes="aacssscaa" />
      </g>
      <ellipse
         transform="rotate(-28.903006)"
         ry="0.13759971"
         rx="1.4361972"
         cy="79.979126"
         cx="26.766407"
         id="path2803-4-2-4-8"
         style="opacity:1;fill:none;fill-opacity:1;stroke:#aeaeae;stroke-width:0.411868;stroke-linejoin:round;stroke-miterlimit:4;stroke-dasharray:none;stroke-dashoffset:0;stroke-opacity:1" />
      <ellipse
         transform="rotate(-34.54719)"
         ry="0.13759971"
         rx="1.4361973"
         cy="82.547195"
         cx="22.56706"
         id="path2803-8-3-6-8-8"
         style="opacity:1;fill:none;fill-opacity:1;stroke:#aeaeae;stroke-width:0.411868;stroke-linejoin:round;stroke-miterlimit:4;stroke-dasharray:none;stroke-dashoffset:0;stroke-opacity:1" />
    </g>
    <g
       transform="rotate(15.561,-358.99865,-111.5609)"
       id="g8454-1-8">
      <g
         transform="matrix(0.4987685,-0.12761305,0.12761305,0.4987685,91.303232,-27.564345)"
         id="g2801-0-8-0-9">
        <path
           style="fill:none;stroke:#000000;stroke-width:0.846873;stroke-linecap:butt;stroke-linejoin:miter;stroke-miterlimit:4;stroke-dasharray:none;stroke-opacity:1"
           d="m 23.8125,60.953869 c -2.465501,0.817162 -2.25631,4.988108 -1.889881,7.559524 0.24693,1.732832 2.645833,4.535712 2.645833,4.535712 0,0 -1.559065,3.361494 -1.322917,5.10268 0.25413,1.873776 0.950924,5.076629 2.834822,4.913691 2.740036,-0.236986 2.939167,-5.000227 2.83482,-7.748513 -0.05776,-1.521271 -1.889879,-4.157737 -1.889879,-4.157737 0,0 1.780437,-4.671827 0.944941,-6.803572 C 27.31681,62.688447 25.512256,60.390505 23.8125,60.953869 Z"
           id="path2782-8-0-3-7"
           inkscape:connector-curvature="0"
           sodipodi:nodetypes="aacssscaa" />
        <path
           style="fill:none;stroke:#000000;stroke-width:0.846873;stroke-linecap:butt;stroke-linejoin:miter;stroke-miterlimit:4;stroke-dasharray:none;stroke-opacity:0.501961"
           d="m 34.079187,60.24823 c 2.522513,0.619173 2.644574,4.793578 2.483111,7.385947 -0.108807,1.746953 -2.278003,4.731155 -2.278003,4.731155 0,0 1.820595,3.227345 1.723199,4.98177 -0.104813,1.888024 -0.545554,5.136029 -2.436439,5.122923 -2.7502,-0.01906 -3.326244,-4.751534 -3.440057,-7.499444 -0.063,-1.521063 1.554386,-4.29445 1.554386,-4.29445 0,0 -2.145129,-4.516011 -1.481226,-6.707272 0.519228,-1.713753 2.135968,-4.147496 3.875029,-3.720629 z"
           id="path2782-5-6-7-0-7"
           inkscape:connector-curvature="0"
           sodipodi:nodetypes="aacssscaa" />
      </g>
      <ellipse
         transform="rotate(-14.351608)"
         ry="0.13759971"
         rx="1.4361972"
         cy="35.55439"
         cx="108.59052"
         id="path2803-9-7-4-6"
         style="opacity:1;fill:none;fill-opacity:1;stroke:#aeaeae;stroke-width:0.411868;stroke-linejoin:round;stroke-miterlimit:4;stroke-dasharray:none;stroke-dashoffset:0;stroke-opacity:1" />
    </g>
    <path
       style="fill:none;stroke:#000000;stroke-width:0.436;stroke-linecap:butt;stroke-linejoin:miter;stroke-miterlimit:4;stroke-dasharray:none;stroke-opacity:0.5"
       d="m 64.245887,148.98597 c -1.300337,0.31193 -1.37448,2.4607 -1.298373,3.79576 0.05129,0.89968 1.159969,2.4419 1.159969,2.4419 0,0 -0.946032,1.6566 -0.900639,2.56009 0.04885,0.97229 0.266959,2.64565 1.240475,2.64402 1.415931,-0.002 1.725309,-2.43722 1.791343,-3.85161 0.03655,-0.78291 -0.788614,-2.21511 -0.788614,-2.21511 0,0 1.116601,-2.31916 0.780738,-3.44908 -0.262673,-0.88369 -1.088426,-2.14103 -1.984899,-1.92597 z"
       id="path2782-7-9-4-0"
       inkscape:connector-curvature="0"
       sodipodi:nodetypes="aacssscaa" />
    <path
       style="fill:none;stroke:#000000;stroke-width:0.436;stroke-linecap:butt;stroke-linejoin:miter;stroke-miterlimit:4;stroke-dasharray:none;stroke-opacity:0.501961"
       d="m 69.54333,149.07063 c 1.267096,0.42737 1.148106,2.57413 0.952495,3.89697 -0.131818,0.89144 -1.374429,2.32795 -1.374429,2.32795 0,0 0.793548,1.73481 0.667258,2.63058 -0.135906,0.96399 -0.503308,2.61102 -1.47275,2.52203 -1.410005,-0.12942 -1.499626,-2.58221 -1.438464,-3.99683 0.03385,-0.78303 0.98422,-2.1354 0.98422,-2.1354 0,0 -0.903969,-2.41001 -0.46806,-3.50523 0.340917,-0.85655 1.276174,-2.03471 2.14973,-1.74007 z"
       id="path2782-5-3-9-7-3"
       inkscape:connector-curvature="0"
       sodipodi:nodetypes="aacssscaa" />
    <path
       style="fill:none;stroke:#7e7e7e;stroke-width:1;stroke-linecap:butt;stroke-linejoin:miter;stroke-miterlimit:4;stroke-dasharray:none;stroke-opacity:1;marker-end:url(#marker6805-3-2-8)"
       d="M 76.44717,133.08698 V 147.7501"
       id="path6789-7-7-9" />
    <path
       style="fill:none;stroke:#7e7e7e;stroke-width:1;stroke-linecap:butt;stroke-linejoin:miter;stroke-miterlimit:4;stroke-dasharray:none;stroke-opacity:1;marker-end:url(#marker6805-3-8-6)"
       d="m 76.44717,103.98281 v 14.66312"
       id="path6789-7-74-2" />
    <text
       xml:space="preserve"
       style="font-style:normal;font-variant:normal;font-weight:normal;font-stretch:normal;font-size:4.23333px;line-height:1.25;font-family:'bitstream vera sans';-inkscape-font-specification:'bitstream vera sans, Normal';font-variant-ligatures:normal;font-variant-caps:normal;font-variant-numeric:normal;font-feature-settings:normal;text-align:start;letter-spacing:0px;word-spacing:0px;writing-mode:lr-tb;text-anchor:start;fill:#616161;fill-opacity:1;stroke:#5e5e5e;stroke-width:0.264583;stroke-opacity:1;"
       x="79.098114"
       y="111.61415"
       id="text7624-5"><tspan
         sodipodi:role="line"
         id="tspan7622-4"
         x="79.098114"
         y="111.61415"
         style="fill:#616161;stroke:#5e5e5e;stroke-width:0.264583;stroke-opacity:1;fill-opacity:1;">LOH</tspan></text>
    <text
       xml:space="preserve"
       style="font-style:normal;font-variant:normal;font-weight:normal;font-stretch:normal;font-size:4.23333px;line-height:1.25;font-family:'bitstream vera sans';-inkscape-font-specification:'bitstream vera sans, Normal';font-variant-ligatures:normal;font-variant-caps:normal;font-variant-numeric:normal;font-feature-settings:normal;text-align:start;letter-spacing:0px;word-spacing:0px;writing-mode:lr-tb;text-anchor:start;fill:#616161;fill-opacity:1;stroke:#5e5e5e;stroke-width:0.264583;stroke-opacity:1;"
       x="79.450012"
       y="139.80812"
       id="text7624-5-9"><tspan
         sodipodi:role="line"
         id="tspan7622-4-4"
         x="79.450012"
         y="139.80812"
         style="fill:#616161;stroke:#5e5e5e;stroke-width:0.264583;stroke-opacity:1;fill-opacity:1;">LOH</tspan></text>
    <g
       id="g8242"
       transform="translate(30.76113,14.181548)">
      <path
         style="fill:none;stroke:#000000;stroke-width:1;stroke-linecap:butt;stroke-linejoin:miter;stroke-miterlimit:4;stroke-dasharray:none;stroke-opacity:1"
         d="M 29.971482,75.381243 56.672925,146.19704"
         id="path8236" />
      <path
         style="fill:none;stroke:#000000;stroke-width:1;stroke-linecap:butt;stroke-linejoin:miter;stroke-miterlimit:4;stroke-dasharray:none;stroke-opacity:1"
         d="M 55.365258,73.945359 33.332355,147.15583"
         id="path8238" />
    </g>
  </g>
</svg>
