<?xml version="1.0" encoding="UTF-8" standalone="no"?>
<svg
   xmlns:dc="http://purl.org/dc/elements/1.1/"
   xmlns:cc="http://creativecommons.org/ns#"
   xmlns:rdf="http://www.w3.org/1999/02/22-rdf-syntax-ns#"
   xmlns:svg="http://www.w3.org/2000/svg"
   xmlns="http://www.w3.org/2000/svg"
   xmlns:sodipodi="http://sodipodi.sourceforge.net/DTD/sodipodi-0.dtd"
   xmlns:inkscape="http://www.inkscape.org/namespaces/inkscape"
   viewBox="0 0 545.46 167.01"
   version="1.1"
   id="svg14"
   sodipodi:docname="MFT-logo2.svg"
   inkscape:version="0.92.4 (5da689c313, 2019-01-14)">
  <metadata
     id="metadata18">
    <rdf:RDF>
      <cc:Work
         rdf:about="">
        <dc:format>image/svg+xml</dc:format>
        <dc:type
           rdf:resource="http://purl.org/dc/dcmitype/StillImage" />
        <dc:title>MFT-logo</dc:title>
      </cc:Work>
    </rdf:RDF>
  </metadata>
  <sodipodi:namedview
     pagecolor="#ffffff"
     bordercolor="#666666"
     borderopacity="1"
     objecttolerance="10"
     gridtolerance="10"
     guidetolerance="10"
     inkscape:pageopacity="0"
     inkscape:pageshadow="2"
     inkscape:window-width="1920"
     inkscape:window-height="1001"
     id="namedview16"
     showgrid="false"
     inkscape:zoom="0.93337158"
     inkscape:cx="142.54626"
     inkscape:cy="102.57585"
     inkscape:window-x="-9"
     inkscape:window-y="-9"
     inkscape:window-maximized="1"
     inkscape:current-layer="svg14" />
  <defs
     id="defs4">
    <style
       id="style2">.cls-1{fill:#005eb8}.cls-2{fill:#231f20}</style>
  </defs>
  <title
     id="title6">MFT-logo</title>
  <path
     d="M 545.97,71.67 V 0 h -178 V 71.67 Z M 439.56,6.91 427.27,64.6 H 407.99 L 395.87,24.69 h -0.18 L 387.64,64.6 H 373.02 L 385.4,6.91 h 19.35 l 11.88,40 h 0.16 l 8.14,-40 z m 55.14,0 -12.01,57.69 h -15.56 l 5.15,-24.71 h -18.37 l -5.15,24.71 h -15.52 l 12,-57.69 h 15.53 l -4.56,22.07 h 18.35 l 4.57,-22.07 z m 44.61,1.59 -3.74,11.49 a 29.34,29.34 0 0 0 -12.79,-2.64 c -6.14,0 -11.13,0.9 -11.13,5.54 0,8.17 22.51,5.12 22.51,22.64 0,15.95 -14.87,20.08 -28.33,20.08 a 65,65 0 0 1 -17.94,-3 l 3.66,-11.74 c 3.07,2 9.22,3.31 14.28,3.31 4.82,0 12.37,-0.91 12.37,-6.86 0,-9.25 -22.51,-5.82 -22.51,-22.05 0,-14.88 13.13,-19.34 25.84,-19.34 7.15,0 13.87,0.75 17.78,2.56 z"
     class="cls-1"
     id="path8"
     inkscape:connector-curvature="0"
     style="fill:#005eb8" />
  <path
     d="M10.69 90.72l8.67 24.88a25.58 25.58 0 0 1 1 5.94 22.74 22.74 0 0 1 1-5.94l9-24.88h10.63v35.78h-6.77v-26.43a45.61 45.61 0 0 1 .46-6.4c-.67 2.84-1.19 4.59-1.39 5.21L23.28 126.5h-6.3L7.17 99.09a35.34 35.34 0 0 1-1.34-5.47c.26 3.36.41 5.52.41 6.45v26.43H0V90.72zm59.88 35.78h-5.94l-.1-4.23a10.35 10.35 0 0 1-8.88 4.9c-5.37 0-8.78-3.51-8.78-8.26 0-5.78 4.59-8.72 13.78-8.72h3.46v-.36c0-3.61-2.37-5.63-6.45-5.63a16.09 16.09 0 0 0-7.49 2.12l-.1-4.8a24.34 24.34 0 0 1 9.19-1.86c7.9 0 11.3 3.72 11.3 11.92zm-17.09-7.9c0 2.22 1.65 3.87 4.28 3.87 3.56 0 6.35-2.74 6.35-7v-1.39h-2.37c-5.52-.02-8.26 1.52-8.26 4.52zm49.21 7.9h-6.76v-14.1c0-4.8-1.6-7.07-5.16-7.07s-6.14 2.94-6.14 8.21v13H77.9v-26.16h6.14v4.75a10 10 0 0 1 9.29-5.42c6.09 0 9.34 3.82 9.34 11.25zm26.27-20.19a15.85 15.85 0 0 0-5.27-1.34c-5.16 0-8.41 3.51-8.41 8.41s3.3 8.57 8.31 8.57a12.31 12.31 0 0 0 5.78-1.7l.26 5.37a23 23 0 0 1-7.33 1.6c-8.62 0-14-5.58-14-14 0-7.59 5.63-13.52 14-13.52a28.65 28.65 0 0 1 7.23 1.34zm13.06-18.37v16.36a9.6 9.6 0 0 1 8.72-4.59c6.09 0 9.34 3.82 9.34 11.25v15.54h-6.76v-14.1c0-4.8-1.6-7.07-5.16-7.07s-6.14 2.94-6.14 8.21v13h-6.71v-38.6zm48.58 27.35h-18.43c.36 4.39 3.56 7.12 8.57 7.12a16.17 16.17 0 0 0 7.69-1.91v5.16a23.57 23.57 0 0 1-8.88 1.55c-8.72 0-13.94-5.32-13.94-14.2 0-7.95 5.27-13.32 13-13.32s12 5 12 13.47zm-12.08-11.2c-3.41 0-5.83 2.53-6.35 7h12.34c-.37-4.47-2.64-7-5.99-7zm33.45 2.07a14.6 14.6 0 0 0-6.76-1.81c-2.48 0-3.77.88-3.77 2.38 0 1.91 1.91 2.58 4.8 3.87 4.9 2.17 7.38 4.13 7.38 8.1 0 4.85-4.08 8.1-11.1 8.1a24 24 0 0 1-8.1-1.34l.36-5.16a17.54 17.54 0 0 0 7.69 1.86c2.74 0 4.18-1 4.18-2.53 0-2-2-2.94-5.32-4.59-4.18-2.06-6.61-3.82-6.61-7.54 0-4.39 4-7.79 10.58-7.79a25.11 25.11 0 0 1 7.18 1.5zm16.42-5.78h6.3v5h-6.3v11.46c0 3.77 1 5.47 3.87 5.47a8.84 8.84 0 0 0 2.58-.46l.1 4.75a19.3 19.3 0 0 1-4.65.57c-6.35 0-8.67-3-8.67-9.91v-11.93h-5.16v-5h5.47v-6.35l6.45-2.17zm34.95 14.91h-18.43c.36 4.39 3.56 7.12 8.57 7.12a16.17 16.17 0 0 0 7.69-1.91v5.16a23.57 23.57 0 0 1-8.88 1.55c-8.72 0-13.94-5.32-13.94-14.2 0-7.95 5.27-13.32 13-13.32s12 5 12 13.47zm-12.08-11.2c-3.41 0-5.83 2.53-6.35 7h12.34c-.37-4.47-2.64-7-5.99-7zm33.19 1.96a7.28 7.28 0 0 0-2.32-.36c-4.39 0-6.81 2.94-6.81 8.62v12.19h-6.71v-26.12h6v5.21c1.65-3.87 4.23-5.83 7.74-5.83a13.69 13.69 0 0 1 2.32.26zm26.74-15.33v21c0 6.81 2.17 10.07 7.23 10.07s7.59-3.46 7.59-10.32V90.72h6.68v20.78c0 10.48-4.8 15.74-14.35 15.74-9.34 0-14.2-5.21-14.2-15.43V90.72zm54.26 35.78h-6.76v-14.1c0-4.8-1.6-7.07-5.16-7.07s-6.14 2.94-6.14 8.21v13h-6.7v-26.16h6.14v4.75a10 10 0 0 1 9.29-5.42c6.09 0 9.34 3.82 9.34 11.25zm14.04-37.84v6.5h-6.92v-6.5zm-.1 11.72v26.12h-6.7v-26.12zm11.67 0l6.24 20.12 6.4-20.13h6.71l-9.49 26.13h-7.74l-9.34-26.17zm46.51 14.91h-18.43c.36 4.39 3.56 7.12 8.57 7.12a16.16 16.16 0 0 0 7.69-1.91v5.16a23.57 23.57 0 0 1-8.88 1.55c-8.72 0-13.94-5.32-13.94-14.2 0-7.95 5.27-13.32 13-13.32s12 5 12 13.47zm-12.08-11.2c-3.41 0-5.83 2.53-6.35 7h12.34c-.36-4.47-2.64-7-5.99-7zm33.2 1.96a7.28 7.28 0 0 0-2.32-.36c-4.39 0-6.81 2.94-6.81 8.62v12.19h-6.71v-26.12h6v5.21c1.65-3.87 4.23-5.83 7.74-5.83a13.69 13.69 0 0 1 2.32.26zm20.64.11a14.59 14.59 0 0 0-6.76-1.81c-2.48 0-3.77.88-3.77 2.38 0 1.91 1.91 2.58 4.8 3.87 4.9 2.17 7.38 4.13 7.38 8.1 0 4.85-4.08 8.1-11.1 8.1a24 24 0 0 1-8.1-1.34l.36-5.16a17.54 17.54 0 0 0 7.69 1.86c2.74 0 4.18-1 4.18-2.53 0-2-2-2.94-5.32-4.59-4.18-2.06-6.61-3.82-6.61-7.54 0-4.39 4-7.79 10.58-7.79a25.12 25.12 0 0 1 7.17 1.5zm14.15-17.5v6.5h-6.92v-6.5zm-.1 11.72v26.12h-6.69v-26.12zm16.72 0h6.3v5h-6.3v11.46c0 3.77 1 5.47 3.87 5.47a8.83 8.83 0 0 0 2.58-.46l.14 4.65a19.31 19.31 0 0 1-4.65.57c-6.35 0-8.67-3-8.67-9.91v-11.83h-5.16v-5h5.48v-6.35l6.45-2.17zm15.75 0l6.5 20 6.35-20h6.76l-10.32 27.36c-2.58 6.92-5.26 10.07-11.15 10.07a24.78 24.78 0 0 1-3.82-.41l.57-5.26a7.3 7.3 0 0 0 2.17.36c2.74 0 4.39-1.55 6-5l-10.32-27.1z"
     class="cls-2"
     id="path10" />
  <path
     d="m 215.61,143.83 8.32,15.83 a 28,28 0 0 1 1.5,4.11 33.34,33.34 0 0 1 -0.55,-5.19 v -14.75 h 4 v 22.67 h -5.47 l -8.58,-16.2 a 18.06,18.06 0 0 1 -1.34,-3.92 c 0.39,2.94 0.56,4.73 0.56,5.42 v 14.7 h -4 v -22.67 z m 22.82,0 V 153 h 8.81 v -9.17 h 4.45 v 22.67 h -4.45 v -10 h -8.81 v 10 h -4.47 v -22.67 z m 31.17,4.15 a 12.14,12.14 0 0 0 -5,-1.14 c -2.48,0 -3.82,1 -3.82,2.51 0,1.51 1.53,2.25 4.18,3.59 3.79,1.93 5.88,3.59 5.88,7 0,4 -3.26,7.12 -8.68,7.12 a 22.64,22.64 0 0 1 -6,-1.34 l 0.42,-3.88 a 13.44,13.44 0 0 0 5.58,1.66 c 2.58,0 4,-1.37 4,-2.94 0,-1.76 -1.57,-2.51 -4,-3.85 a 14.87,14.87 0 0 1 -4.24,-2.84 5.91,5.91 0 0 1 -1.6,-4.11 c 0,-3.66 3,-6.43 8.29,-6.43 a 21.63,21.63 0 0 1 5.35,1.08 z m 28.27,-4.15 v 3.3 h -8.68 v 6.17 h 8.29 v 3.33 h -8.29 v 9.87 h -4.5 v -22.67 z m 19.26,14.37 c 0,5.42 -3.36,8.71 -8.81,8.71 -5.45,0 -8.78,-3.3 -8.78,-8.71 0,-5.41 3.3,-8.68 8.78,-8.68 5.48,0 8.81,3.26 8.81,8.68 z m -13.15,0 c 0,3.39 1.83,5.55 4.34,5.55 2.51,0 4.34,-2.12 4.34,-5.55 0,-3.43 -1.79,-5.58 -4.34,-5.58 -2.55,0 -4.35,2.15 -4.35,5.54 z m 20.89,-8.26 v 8.78 c 0,3 1,4.47 3.26,4.47 2.48,0 3.88,-2 3.88,-5.87 v -7.38 h 4.28 v 16.56 h -3.88 v -3.17 a 6.34,6.34 0 0 1 -5.87,3.43 c -3.85,0 -5.94,-2.42 -5.94,-7.12 v -9.69 z m 32.05,16.56 h -4.23 v -9 c 0,-3 -1,-4.47 -3.26,-4.47 -2.26,0 -3.88,1.86 -3.88,5.19 v 8.28 h -4.24 v -16.56 h 3.88 v 3 a 6.34,6.34 0 0 1 5.88,-3.43 c 3.85,0 5.91,2.42 5.91,7.12 z m 20.44,-24.43 v 24.43 h -3.82 v -3.33 a 6.47,6.47 0 0 1 -6,3.59 c -3.95,0 -7,-3.49 -7,-8.81 0,-5.16 2.87,-8.42 6.89,-8.42 a 6.29,6.29 0 0 1 5.65,2.9 v -10.36 z m -12.37,16.06 c 0,3.39 1.6,5.35 4,5.35 2.4,0 4.11,-2 4.11,-5.35 0,-3.35 -1.67,-5.42 -4.21,-5.42 -2.2,0 -3.9,2.03 -3.9,5.42 z m 31.04,8.37 h -3.75 l -0.07,-2.68 a 6.54,6.54 0 0 1 -5.61,3.1 c -3.39,0 -5.55,-2.22 -5.55,-5.22 0,-3.66 2.91,-5.52 8.71,-5.52 h 2.19 v -0.23 c 0,-2.29 -1.5,-3.56 -4.08,-3.56 a 10.17,10.17 0 0 0 -4.73,1.34 l -0.07,-3 a 15.39,15.39 0 0 1 5.81,-1.17 c 5,0 7.15,2.35 7.15,7.54 z m -10.8,-5 a 2.46,2.46 0 0 0 2.71,2.45 c 2.25,0 4,-1.73 4,-4.44 v -0.88 h -1.5 c -3.49,-0.04 -5.22,0.94 -5.22,2.87 z m 21.11,-11.56 h 4 v 3.13 h -4 v 7.25 c 0,2.38 0.65,3.46 2.45,3.46 a 5.57,5.57 0 0 0 1.63,-0.29 l 0.07,3 a 12.23,12.23 0 0 1 -2.94,0.36 c -4,0 -5.48,-1.89 -5.48,-6.27 v -7.51 h -3.26 v -3.13 h 3.46 v -4 l 4.08,-1.37 z m 11.69,-7.44 v 4.11 h -4.34 v -4.11 z m -0.07,7.41 v 16.59 h -4.27 v -16.56 z m 21.39,8.29 c 0,5.42 -3.36,8.71 -8.81,8.71 -5.45,0 -8.78,-3.3 -8.78,-8.71 0,-5.41 3.3,-8.68 8.78,-8.68 5.48,0 8.81,3.26 8.81,8.68 z m -13.15,0 c 0,3.39 1.83,5.55 4.34,5.55 2.51,0 4.34,-2.12 4.34,-5.55 0,-3.43 -1.79,-5.58 -4.34,-5.58 -2.55,0 -4.35,2.15 -4.35,5.54 z m 32.64,8.3 h -4.28 v -9 c 0,-3 -1,-4.47 -3.26,-4.47 -2.26,0 -3.88,1.86 -3.88,5.19 v 8.28 h -4.24 v -16.56 h 3.88 v 3 a 6.34,6.34 0 0 1 5.88,-3.43 c 3.85,0 5.91,2.42 5.91,7.12 z m 28.66,-22.67 v 3.49 h -6 v 19.18 h -4.51 v -19.17 h -6 v -3.49 z m 9.95,9.67 a 4.58,4.58 0 0 0 -1.47,-0.23 c -2.77,0 -4.31,1.86 -4.31,5.45 v 7.78 h -4.24 v -16.56 h 3.82 v 3.3 c 1,-2.45 2.68,-3.69 4.9,-3.69 a 8.78,8.78 0 0 1 1.47,0.16 z m 6.79,-3.56 v 8.78 c 0,3 1,4.47 3.26,4.47 2.48,0 3.88,-2 3.88,-5.87 v -7.38 h 4.31 v 16.56 h -3.88 v -3.17 a 6.34,6.34 0 0 1 -5.87,3.43 c -3.85,0 -5.94,-2.42 -5.94,-7.12 v -9.69 z m 26.57,3.65 a 9.24,9.24 0 0 0 -4.28,-1.14 c -1.57,0 -2.38,0.55 -2.38,1.5 0,1.21 1.21,1.63 3,2.45 3.1,1.37 4.67,2.61 4.67,5.12 0,3.07 -2.58,5.12 -7,5.12 a 15.21,15.21 0 0 1 -5.12,-0.85 l 0.23,-3.26 a 11.09,11.09 0 0 0 4.86,1.17 c 1.73,0 2.64,-0.62 2.64,-1.6 0,-1.24 -1.27,-1.86 -3.36,-2.9 -2.64,-1.31 -4.18,-2.42 -4.18,-4.77 0,-2.77 2.51,-4.93 6.69,-4.93 a 15.89,15.89 0 0 1 4.54,0.95 z m 10.38,-3.65 h 4 v 3.13 h -4 v 7.25 c 0,2.38 0.65,3.46 2.45,3.46 a 5.57,5.57 0 0 0 1.63,-0.29 l 0.07,3 a 12.23,12.23 0 0 1 -2.94,0.36 c -4,0 -5.48,-1.89 -5.48,-6.27 v -7.51 h -3.23 v -3.13 h 3.46 v -4 l 4.08,-1.37 z"
     class="cls-1"
     id="path12"
     inkscape:connector-curvature="0"
     style="fill:#005eb8" />
</svg>
