<?xml version="1.0" encoding="UTF-8" standalone="no"?>
<!-- Created with Inkscape (http://www.inkscape.org/) -->

<svg
   width="178.0701mm"
   height="111.71507mm"
   viewBox="0 0 178.0701 111.71507"
   version="1.1"
   id="svg5"
   inkscape:version="1.2.2 (b0a84865, 2022-12-01)"
   sodipodi:docname="intuition4.svg"
   inkscape:export-filename="intuition3.pdf"
   inkscape:export-xdpi="96"
   inkscape:export-ydpi="96"
   xmlns:inkscape="http://www.inkscape.org/namespaces/inkscape"
   xmlns:sodipodi="http://sodipodi.sourceforge.net/DTD/sodipodi-0.dtd"
   xmlns="http://www.w3.org/2000/svg"
   xmlns:svg="http://www.w3.org/2000/svg">
  <sodipodi:namedview
     id="namedview7"
     pagecolor="#ffffff"
     bordercolor="#000000"
     borderopacity="0.25"
     inkscape:showpageshadow="2"
     inkscape:pageopacity="0.0"
     inkscape:pagecheckerboard="0"
     inkscape:deskcolor="#d1d1d1"
     inkscape:document-units="mm"
     showgrid="true"
     inkscape:zoom="1.0051671"
     inkscape:cx="295.9707"
     inkscape:cy="190.01817"
     inkscape:window-width="1512"
     inkscape:window-height="916"
     inkscape:window-x="0"
     inkscape:window-y="38"
     inkscape:window-maximized="1"
     inkscape:current-layer="layer1">
    <inkscape:grid
       type="xygrid"
       id="grid9"
       originx="-15.576262"
       originy="-39.467144" />
  </sodipodi:namedview>
  <defs
     id="defs2">
    <marker
       style="overflow:visible"
       id="marker9493"
       refX="0"
       refY="0"
       orient="auto-start-reverse"
       inkscape:stockid="TriangleStart"
       markerWidth="5.3244081"
       markerHeight="6.155385"
       viewBox="0 0 5.3244081 6.1553851"
       inkscape:isstock="true"
       inkscape:collect="always"
       preserveAspectRatio="xMidYMid">
      <path
         transform="scale(0.5)"
         style="fill:context-stroke;fill-rule:evenodd;stroke:context-stroke;stroke-width:1pt"
         d="M 5.77,0 -2.88,5 V -5 Z"
         id="path9491" />
    </marker>
    <marker
       style="overflow:visible"
       id="marker1201"
       refX="0"
       refY="0"
       orient="auto-start-reverse"
       inkscape:stockid="TriangleStart"
       markerWidth="5.3244081"
       markerHeight="6.155385"
       viewBox="0 0 5.3244081 6.1553851"
       inkscape:isstock="true"
       inkscape:collect="always"
       preserveAspectRatio="xMidYMid">
      <path
         transform="scale(0.5)"
         style="fill:context-stroke;fill-rule:evenodd;stroke:context-stroke;stroke-width:1pt"
         d="M 5.77,0 -2.88,5 V -5 Z"
         id="path1199" />
    </marker>
    <marker
       style="overflow:visible"
       id="TriangleStart"
       refX="0"
       refY="0"
       orient="auto-start-reverse"
       inkscape:stockid="TriangleStart"
       markerWidth="5.3244081"
       markerHeight="6.155385"
       viewBox="0 0 5.3244081 6.1553851"
       inkscape:isstock="true"
       inkscape:collect="always"
       preserveAspectRatio="xMidYMid">
      <path
         transform="scale(0.5)"
         style="fill:context-stroke;fill-rule:evenodd;stroke:context-stroke;stroke-width:1pt"
         d="M 5.77,0 -2.88,5 V -5 Z"
         id="path135" />
    </marker>
    <marker
       style="overflow:visible"
       id="TriangleStart-4"
       refX="0"
       refY="0"
       orient="auto-start-reverse"
       inkscape:stockid="TriangleStart"
       markerWidth="5.3244081"
       markerHeight="6.155385"
       viewBox="0 0 5.3244081 6.1553851"
       inkscape:isstock="true"
       inkscape:collect="always"
       preserveAspectRatio="xMidYMid">
      <path
         transform="scale(0.5)"
         style="fill:context-stroke;fill-rule:evenodd;stroke:context-stroke;stroke-width:1pt"
         d="M 5.77,0 -2.88,5 V -5 Z"
         id="path135-0" />
    </marker>
    <marker
       style="overflow:visible"
       id="TriangleStart-5"
       refX="0"
       refY="0"
       orient="auto-start-reverse"
       inkscape:stockid="TriangleStart"
       markerWidth="5.3244081"
       markerHeight="6.155385"
       viewBox="0 0 5.3244081 6.1553851"
       inkscape:isstock="true"
       inkscape:collect="always"
       preserveAspectRatio="xMidYMid">
      <path
         transform="scale(0.5)"
         style="fill:context-stroke;fill-rule:evenodd;stroke:context-stroke;stroke-width:1pt"
         d="M 5.77,0 -2.88,5 V -5 Z"
         id="path135-7" />
    </marker>
    <marker
       style="overflow:visible"
       id="TriangleStart-06"
       refX="0"
       refY="0"
       orient="auto-start-reverse"
       inkscape:stockid="TriangleStart"
       markerWidth="5.3244081"
       markerHeight="6.155385"
       viewBox="0 0 5.3244081 6.1553851"
       inkscape:isstock="true"
       inkscape:collect="always"
       preserveAspectRatio="xMidYMid">
      <path
         transform="scale(0.5)"
         style="fill:context-stroke;fill-rule:evenodd;stroke:context-stroke;stroke-width:1pt"
         d="M 5.77,0 -2.88,5 V -5 Z"
         id="path135-4" />
    </marker>
    <marker
       style="overflow:visible"
       id="TriangleStart-47"
       refX="0"
       refY="0"
       orient="auto-start-reverse"
       inkscape:stockid="TriangleStart"
       markerWidth="5.3244081"
       markerHeight="6.155385"
       viewBox="0 0 5.3244081 6.1553851"
       inkscape:isstock="true"
       inkscape:collect="always"
       preserveAspectRatio="xMidYMid">
      <path
         transform="scale(0.5)"
         style="fill:context-stroke;fill-rule:evenodd;stroke:context-stroke;stroke-width:1pt"
         d="M 5.77,0 -2.88,5 V -5 Z"
         id="path135-41" />
    </marker>
    <marker
       style="overflow:visible"
       id="TriangleStart-47-9"
       refX="0"
       refY="0"
       orient="auto-start-reverse"
       inkscape:stockid="TriangleStart"
       markerWidth="5.3244081"
       markerHeight="6.155385"
       viewBox="0 0 5.3244081 6.1553851"
       inkscape:isstock="true"
       inkscape:collect="always"
       preserveAspectRatio="xMidYMid">
      <path
         transform="scale(0.5)"
         style="fill:context-stroke;fill-rule:evenodd;stroke:context-stroke;stroke-width:1pt"
         d="M 5.77,0 -2.88,5 V -5 Z"
         id="path135-41-9" />
    </marker>
    <marker
       style="overflow:visible"
       id="TriangleStart-47-7"
       refX="0"
       refY="0"
       orient="auto-start-reverse"
       inkscape:stockid="TriangleStart"
       markerWidth="5.3244081"
       markerHeight="6.155385"
       viewBox="0 0 5.3244081 6.1553851"
       inkscape:isstock="true"
       inkscape:collect="always"
       preserveAspectRatio="xMidYMid">
      <path
         transform="scale(0.5)"
         style="fill:context-stroke;fill-rule:evenodd;stroke:context-stroke;stroke-width:1pt"
         d="M 5.77,0 -2.88,5 V -5 Z"
         id="path135-41-7" />
    </marker>
    <marker
       style="overflow:visible"
       id="TriangleStart-47-9-2"
       refX="0"
       refY="0"
       orient="auto-start-reverse"
       inkscape:stockid="TriangleStart"
       markerWidth="5.3244081"
       markerHeight="6.155385"
       viewBox="0 0 5.3244081 6.1553851"
       inkscape:isstock="true"
       inkscape:collect="always"
       preserveAspectRatio="xMidYMid">
      <path
         transform="scale(0.5)"
         style="fill:context-stroke;fill-rule:evenodd;stroke:context-stroke;stroke-width:1pt"
         d="M 5.77,0 -2.88,5 V -5 Z"
         id="path135-41-9-5" />
    </marker>
    <marker
       style="overflow:visible"
       id="TriangleStart-3"
       refX="0"
       refY="0"
       orient="auto-start-reverse"
       inkscape:stockid="TriangleStart"
       markerWidth="5.3244081"
       markerHeight="6.155385"
       viewBox="0 0 5.3244081 6.1553851"
       inkscape:isstock="true"
       inkscape:collect="always"
       preserveAspectRatio="xMidYMid">
      <path
         transform="scale(0.5)"
         style="fill:context-stroke;fill-rule:evenodd;stroke:context-stroke;stroke-width:1pt"
         d="M 5.77,0 -2.88,5 V -5 Z"
         id="path135-40" />
    </marker>
    <marker
       style="overflow:visible"
       id="TriangleStart-47-9-2-0"
       refX="0"
       refY="0"
       orient="auto-start-reverse"
       inkscape:stockid="TriangleStart"
       markerWidth="5.3244081"
       markerHeight="6.155385"
       viewBox="0 0 5.3244081 6.1553851"
       inkscape:isstock="true"
       inkscape:collect="always"
       preserveAspectRatio="xMidYMid">
      <path
         transform="scale(0.5)"
         style="fill:context-stroke;fill-rule:evenodd;stroke:context-stroke;stroke-width:1pt"
         d="M 5.77,0 -2.88,5 V -5 Z"
         id="path135-41-9-5-4" />
    </marker>
  </defs>
  <g
     inkscape:label="Layer 1"
     inkscape:groupmode="layer"
     id="layer1"
     transform="translate(-15.576262,-39.467145)">
    <path
       style="fill:#ff8585;fill-opacity:0.619608;stroke:none;stroke-width:0.675118;stroke-dasharray:none;stroke-dashoffset:0;stroke-opacity:1"
       id="path9783"
       d="m 84.837875,103.94722 c 1.740393,-0.52893 3.461469,-1.1094 5.183807,-1.68373 -1.563832,-0.71467 -3.090026,-1.49864 -4.691504,-2.14399 -0.08332,-0.0336 0.0087,0.16769 -0.02591,0.24303 -0.138323,0.30153 -0.305282,0.593 -0.487277,0.87557 -0.527712,0.81933 -1.179081,1.58429 -1.792276,2.35391 -1.197441,1.65945 -0.45389,0.45617 4.696994,2.98403 0.110394,0.0541 0.39421,-0.159 0.287457,-0.21867 -1.579189,-0.88258 -3.266807,-1.60197 -4.919778,-2.37025 -0.03065,-0.0143 0.02826,0.0624 0.01609,0.0911 -0.05596,0.13213 -0.143191,0.25206 -0.21479,0.37809 -0.162029,0.27644 -0.423547,0.6715 -0.492015,0.98684 -0.44024,2.02764 5.15397,3.07068 5.283253,3.12477 0.09534,0.0399 1.636608,-0.32595 1.662854,-0.3319 0.297839,-0.0741 1.181531,-0.30544 1.523594,-0.35037 1.819519,-0.23899 5.065073,1.90497 -4.105152,-2.19185 -0.08309,-0.037 0.158568,0.11295 0.172928,0.19468 0.02773,0.15772 -0.03666,0.31761 -0.05499,0.47641 -0.09092,0.54673 -0.432548,1.02793 -0.584373,1.55691 -0.03413,0.11895 -0.166843,0.29786 -0.05164,0.36553 4.995142,2.93402 3.534299,3.56307 5.757009,2.23265 0.765227,-0.32321 1.733385,-1.21846 2.525038,-1.43214 0.07573,-0.0205 0.304112,0.0626 0.235393,0.0276 -1.600028,-0.81316 -3.229325,-1.5799 -4.843987,-2.36984 -0.0065,0.27569 0.01625,0.16323 -0.140728,0.52232 -0.05103,0.11678 -0.108894,0.23104 -0.166782,0.34521 -0.03643,0.0718 -0.189573,0.16868 -0.116076,0.21267 4.897991,2.93246 3.824319,4.02622 5.210012,2.23999 0.454133,-0.75135 2.073556,-2.23853 1.71068,-3.11645 -0.08398,-0.20317 -0.294491,-0.34469 -0.441738,-0.51703 -1.795856,-0.90278 -3.56599,-1.8473 -5.387575,-2.70832 -0.210256,-0.0994 -0.461595,-0.10443 -0.689965,-0.16441 -1.95569,-0.51321 -2.804207,-1.35286 3.925841,2.06937 0.02644,0.0135 -0.103727,0.0276 -0.09138,0.002 0.03621,-0.0727 0.119097,-0.11869 0.178636,-0.17807 0.531807,-0.4155 1.095672,-0.79737 1.651834,-1.18644 0.226761,-0.15866 0.715731,-0.4621 0.899192,-0.69983 0.07413,-0.096 0.09469,-0.21724 0.142032,-0.32587 -4.138033,-2.59269 -3.392012,-3.41123 -5.88989,-2.45522 -0.306812,0.11742 -0.605778,0.30944 -0.935874,0.35511 -0.0186,-0.009 -0.03724,-0.0174 -0.05585,-0.0263 1.625172,0.85869 3.211431,1.7785 4.87552,2.57604 0.07075,0.0339 0.139685,-0.16462 0.07293,-0.20445 -1.593615,-0.95073 -3.230364,-1.84706 -4.905926,-2.67886 -0.03436,-0.0171 -0.416555,0.26687 -0.43234,0.27818 -0.390891,0.25607 -0.541527,0.61579 -0.279532,0.99783 0.253397,0.41119 0.677575,0.70582 1.083773,0.99271 1.691894,1.1208 0.09345,0.0699 5.159971,2.65844 0,0 -4.434587,-3.1492 -4.434587,-3.1492 v 0 c 4.756574,2.45447 6.254914,3.25495 4.536938,2.33824 -0.417364,-0.23534 -0.797233,-0.50664 -1.167579,-0.79675 -0.148094,-0.22695 -0.08886,-0.17904 -0.317855,-0.14639 -0.04997,0.008 0.229559,-0.22149 0.167152,-0.1322 0.03491,-8e-5 0.07522,-0.0168 0.104793,-2.8e-4 0.03384,0.0188 0.09397,0.1108 0.05984,0.0923 -1.588738,-0.85834 -3.18377,-1.70909 -4.736023,-2.61871 -0.04236,-0.0248 0.07045,-0.11361 0.113659,-0.0901 4.934722,2.69716 3.344359,3.87643 4.861074,2.71961 0.374357,-0.20642 0.816324,-0.43844 1.269185,-0.45622 0.118252,-0.005 0.446805,0.11473 0.349782,0.0545 -1.4757,-0.91742 -3.00761,-1.76111 -4.511417,-2.64168 0.176867,0.16285 0.157141,0.0888 -0.171829,0.37444 -0.699662,0.60746 -1.567618,1.03879 -2.301883,1.60878 -0.0077,0.009 -0.809391,0.74618 -0.523066,0.92305 1.61707,0.9988 3.40081,1.76603 5.129179,2.60449 0.164246,0.0797 0.359831,0.0917 0.537277,0.14436 0.215681,0.064 0.832544,0.31598 0.641682,0.20601 -1.326034,-0.764 -2.706644,-1.45032 -4.059968,-2.17547 0.234933,0.0894 0.79821,0.18892 0.792839,0.55663 -0.0086,0.58917 -1.284197,1.87819 -1.728293,2.32855 -1.820394,0.91555 -0.498069,0.18092 4.534474,2.77957 0.06854,0.0354 0.02394,-0.14023 0.05031,-0.20671 0.153926,-0.38793 0.395501,-0.74752 0.552299,-1.13467 -1.643873,-0.88518 -3.244348,-1.83753 -4.931616,-2.65558 -0.08887,-0.0431 -0.176638,0.0883 -0.261043,0.13802 -0.813893,0.47935 -1.565965,1.04803 -2.462368,1.41037 -2.247256,0.52095 -0.929953,0.0852 3.89239,2.71298 0.07569,0.0413 -0.110497,-0.13852 -0.105835,-0.21735 0.03121,-0.5289 0.511114,-1.09209 0.591083,-1.61567 0.01042,-0.0327 0.39604,-1.08286 0.2382,-1.17744 -4.884211,-2.92658 -3.793341,-2.85352 -7.144379,-2.04931 -0.28654,0.0435 -0.569838,0.11015 -0.85962,0.13059 -0.248708,0.0176 -0.94318,-0.15577 -0.7482,-0.0173 1.313277,0.93254 2.803809,1.64832 4.205713,2.47245 -0.06181,-0.0734 -0.178592,-0.12877 -0.185415,-0.22031 -0.02041,-0.27421 0.313218,-0.69427 0.443251,-0.89235 0.0037,-0.005 0.619433,-0.81487 0.563478,-0.84966 -1.565858,-0.97393 -3.327171,-1.67191 -4.992112,-2.50571 -0.03629,-0.0182 -0.146245,-0.0706 -0.111505,-0.0502 1.541799,0.90774 3.056241,1.85411 4.633375,2.71248 0.06418,0.0349 -0.01159,-0.13347 -0.01738,-0.20019 0.644542,-1.22401 1.594362,-2.138 2.348137,-3.27848 0.16848,-0.25492 0.705013,-0.61437 0.442017,-0.79523 -1.527336,-1.05034 -3.409462,-1.61187 -5.114193,-2.417805 -1.391952,0.540825 -3.196562,1.254425 -4.703607,1.385685 -0.149003,0.013 -0.298247,-0.0237 -0.447372,-0.0355 0,0 4.521495,3.04523 4.521495,3.04523 z" />
    <path
       style="fill:#ff8585;fill-opacity:0.619608;stroke:none;stroke-width:0.675118;stroke-dasharray:none;stroke-dashoffset:0;stroke-opacity:1"
       id="path9783-5"
       d="m 117.32418,100.80923 c 1.74039,-0.52893 3.46147,-1.109396 5.18381,-1.683726 -1.56384,-0.71467 -3.09003,-1.49864 -4.69151,-2.14399 -0.0833,-0.0336 0.009,0.16769 -0.0259,0.24303 -0.13832,0.30153 -0.30528,0.593 -0.48728,0.87557 -0.52771,0.81933 -1.17908,1.58429 -1.79227,2.353906 -1.19744,1.65945 -0.45389,0.45617 4.69699,2.98403 0.1104,0.0541 0.39421,-0.159 0.28746,-0.21867 -1.57919,-0.88258 -3.26681,-1.60197 -4.91978,-2.37025 -0.0306,-0.0143 0.0283,0.0624 0.0161,0.0911 -0.056,0.13213 -0.14319,0.25206 -0.21479,0.37809 -0.16203,0.27644 -0.42354,0.6715 -0.49201,0.98684 -0.44024,2.02764 5.15397,3.07068 5.28325,3.12477 0.0953,0.0399 1.63661,-0.32595 1.66285,-0.3319 0.29784,-0.0741 1.18154,-0.30544 1.5236,-0.35037 1.81952,-0.23899 5.06507,1.90497 -4.10515,-2.19185 -0.0831,-0.037 0.15856,0.11295 0.17292,0.19468 0.0277,0.15772 -0.0367,0.31761 -0.055,0.47641 -0.0909,0.54673 -0.43254,1.02793 -0.58437,1.55691 -0.0341,0.11895 -0.16684,0.29786 -0.0516,0.36553 4.99514,2.93402 3.5343,3.56307 5.75701,2.23265 0.76523,-0.32321 1.73339,-1.21846 2.52504,-1.43214 0.0757,-0.0205 0.30411,0.0626 0.23539,0.0276 -1.60003,-0.81316 -3.22932,-1.5799 -4.84399,-2.36984 -0.007,0.27569 0.0162,0.16323 -0.14072,0.52232 -0.051,0.11678 -0.1089,0.23104 -0.16679,0.34521 -0.0364,0.0718 -0.18957,0.16868 -0.11607,0.21267 4.89799,2.93246 3.82432,4.02622 5.21001,2.23999 0.45413,-0.75135 2.07356,-2.23853 1.71068,-3.11645 -0.084,-0.20317 -0.29449,-0.34469 -0.44174,-0.51703 -1.79585,-0.90278 -3.56599,-1.8473 -5.38757,-2.70832 -0.21026,-0.0994 -0.4616,-0.10443 -0.68997,-0.16441 -1.95569,-0.513206 -2.8042,-1.352856 3.92584,2.06937 0.0264,0.0135 -0.10372,0.0276 -0.0914,0.002 0.0362,-0.0727 0.1191,-0.11869 0.17864,-0.17807 0.53181,-0.4155 1.09567,-0.79737 1.65183,-1.18644 0.22676,-0.15866 0.71573,-0.4621 0.89919,-0.69983 0.0741,-0.096 0.0947,-0.21724 0.14204,-0.32587 -4.13804,-2.592686 -3.39201,-3.411226 -5.88989,-2.455216 -0.30681,0.11742 -0.60578,0.30944 -0.93588,0.35511 -0.0186,-0.009 -0.0372,-0.0174 -0.0559,-0.0263 1.62518,0.85869 3.21143,1.7785 4.87552,2.576036 0.0708,0.0339 0.13969,-0.16462 0.0729,-0.20445 -1.59361,-0.950726 -3.23036,-1.847056 -4.90592,-2.678856 -0.0344,-0.0171 -0.41656,0.26687 -0.43234,0.27818 -0.39089,0.25607 -0.54153,0.61579 -0.27953,0.99783 0.25339,0.41119 0.67757,0.70582 1.08377,0.99271 1.69189,1.120796 0.0934,0.0699 5.15997,2.658436 0,0 -4.43459,-3.149196 -4.43459,-3.149196 v 0 c 4.75658,2.454466 6.25492,3.254946 4.53694,2.338236 -0.41736,-0.23534 -0.79723,-0.50664 -1.16758,-0.79675 -0.14809,-0.22695 -0.0889,-0.17904 -0.31785,-0.14639 -0.05,0.008 0.22956,-0.22149 0.16715,-0.1322 0.0349,-8e-5 0.0752,-0.0168 0.10479,-2.8e-4 0.0338,0.0188 0.094,0.1108 0.0598,0.0923 -1.58874,-0.858336 -3.18377,-1.709086 -4.73602,-2.618706 -0.0424,-0.0248 0.0705,-0.11361 0.11366,-0.0901 4.93472,2.697156 3.34436,3.876426 4.86107,2.719606 0.37436,-0.20642 0.81632,-0.43844 1.26919,-0.45622 0.11825,-0.005 0.4468,0.11473 0.34978,0.0545 -1.4757,-0.917416 -3.00761,-1.761106 -4.51142,-2.641676 0.17687,0.16285 0.15714,0.0888 -0.17183,0.37444 -0.69966,0.60746 -1.56762,1.03879 -2.30188,1.60878 -0.008,0.009 -0.80939,0.746176 -0.52307,0.923046 1.61707,0.9988 3.40081,1.76603 5.12918,2.60449 0.16425,0.0797 0.35983,0.0917 0.53728,0.14436 0.21568,0.064 0.83254,0.31598 0.64168,0.20601 -1.32603,-0.764 -2.70664,-1.45032 -4.05997,-2.17547 0.23494,0.0894 0.79821,0.18892 0.79284,0.55663 -0.009,0.58917 -1.28419,1.87819 -1.72829,2.32855 -1.82039,0.91555 -0.49807,0.18092 4.53447,2.77957 0.0685,0.0354 0.0239,-0.14023 0.0503,-0.20671 0.15393,-0.38793 0.3955,-0.74752 0.5523,-1.13467 -1.64387,-0.88518 -3.24435,-1.83753 -4.93161,-2.65558 -0.0889,-0.0431 -0.17664,0.0883 -0.26105,0.13802 -0.81389,0.47935 -1.56596,1.04803 -2.46236,1.41037 -2.24726,0.52095 -0.92996,0.0852 3.89239,2.71298 0.0757,0.0413 -0.1105,-0.13852 -0.10584,-0.21735 0.0312,-0.5289 0.51111,-1.09209 0.59108,-1.61567 0.0104,-0.0327 0.39604,-1.08286 0.2382,-1.17744 -4.88421,-2.92658 -3.79334,-2.85352 -7.14438,-2.04931 -0.28654,0.0435 -0.56983,0.11015 -0.85962,0.13059 -0.2487,0.0176 -0.94318,-0.15577 -0.7482,-0.0173 1.31328,0.93254 2.80381,1.64832 4.20572,2.47245 -0.0618,-0.0734 -0.17859,-0.12877 -0.18542,-0.22031 -0.0204,-0.27421 0.31322,-0.69427 0.44325,-0.89235 0.004,-0.005 0.61944,-0.81487 0.56348,-0.84966 -1.56586,-0.97393 -3.32717,-1.67191 -4.99211,-2.50571 -0.0363,-0.0182 -0.14625,-0.0706 -0.11151,-0.0502 1.5418,0.90774 3.05625,1.85411 4.63338,2.71248 0.0642,0.0349 -0.0116,-0.13347 -0.0174,-0.20019 0.64454,-1.22401 1.59436,-2.138 2.34814,-3.278476 0.16848,-0.25492 0.70501,-0.61437 0.44201,-0.79523 -1.52733,-1.05034 -3.40946,-1.61187 -5.11419,-2.417805 -1.39195,0.540825 -3.19656,1.254425 -4.70361,1.385685 -0.149,0.013 -0.29824,-0.0237 -0.44737,-0.0355 0,0 4.5215,3.045226 4.5215,3.045226 z" />
    <path
       style="fill:#ff8585;fill-opacity:0.619608;stroke:none;stroke-width:0.675118;stroke-dasharray:none;stroke-dashoffset:0;stroke-opacity:1"
       id="path9783-8"
       d="m 79.309514,84.735919 c 1.740393,-0.52893 3.461469,-1.1094 5.183807,-1.68373 -1.563832,-0.71467 -3.090026,-1.49864 -4.691504,-2.14399 -0.08332,-0.0336 0.0087,0.16769 -0.02591,0.24303 -0.138323,0.30153 -0.305282,0.593 -0.487277,0.87557 -0.527712,0.81933 -1.179081,1.58429 -1.792276,2.35391 -1.197441,1.65945 -0.45389,0.45617 4.696994,2.98403 0.110394,0.0541 0.39421,-0.159 0.287457,-0.21867 -1.579189,-0.88258 -3.266807,-1.60197 -4.919778,-2.37025 -0.03065,-0.0143 0.02826,0.0624 0.01609,0.0911 -0.05596,0.13213 -0.143191,0.25206 -0.21479,0.37809 -0.162029,0.27644 -0.423547,0.6715 -0.492015,0.98684 -0.44024,2.02764 5.15397,3.07068 5.283253,3.12477 0.09534,0.0399 1.636608,-0.32595 1.662854,-0.3319 0.297839,-0.0741 1.181531,-0.30544 1.523594,-0.35037 1.819519,-0.23899 5.065073,1.90497 -4.105152,-2.19185 -0.08309,-0.037 0.158568,0.11295 0.172928,0.19468 0.02773,0.15772 -0.03666,0.31761 -0.05499,0.47641 -0.09092,0.54673 -0.432548,1.02793 -0.584373,1.55691 -0.03413,0.11895 -0.166843,0.29786 -0.05164,0.36553 4.995142,2.93402 3.534299,3.56307 5.757009,2.23265 0.765227,-0.32321 1.733385,-1.21846 2.525038,-1.43214 0.07573,-0.0205 0.304112,0.0626 0.235393,0.0276 -1.600028,-0.81316 -3.229325,-1.5799 -4.843987,-2.36984 -0.0065,0.27569 0.01625,0.16323 -0.140728,0.52232 -0.05103,0.11678 -0.108894,0.23104 -0.166782,0.34521 -0.03643,0.0718 -0.189573,0.16868 -0.116076,0.21267 4.897991,2.93246 3.824319,4.02622 5.210012,2.23999 0.454133,-0.75135 2.073556,-2.23853 1.71068,-3.11645 -0.08398,-0.20317 -0.294491,-0.34469 -0.441738,-0.51703 -1.795856,-0.90278 -3.56599,-1.8473 -5.387575,-2.70832 -0.210256,-0.0994 -0.461595,-0.10443 -0.689965,-0.16441 -1.95569,-0.51321 -2.804207,-1.35286 3.925841,2.06937 0.02644,0.0135 -0.103727,0.0276 -0.09138,0.002 0.03621,-0.0727 0.119097,-0.11869 0.178636,-0.17807 0.531807,-0.4155 1.095672,-0.79737 1.651834,-1.18644 0.226761,-0.15866 0.715731,-0.4621 0.899192,-0.69983 0.07413,-0.096 0.09469,-0.21724 0.142032,-0.32587 -4.138033,-2.59269 -3.392012,-3.41123 -5.88989,-2.45522 -0.306812,0.11742 -0.605778,0.30944 -0.935874,0.35511 -0.0186,-0.009 -0.03724,-0.0174 -0.05585,-0.0263 1.625172,0.85869 3.211431,1.7785 4.87552,2.57604 0.07075,0.0339 0.139685,-0.16462 0.07293,-0.20445 -1.593615,-0.95073 -3.230364,-1.84706 -4.905926,-2.67886 -0.03436,-0.0171 -0.416555,0.26687 -0.43234,0.27818 -0.390891,0.25607 -0.541527,0.61579 -0.279532,0.99783 0.253397,0.41119 0.677575,0.70582 1.083773,0.99271 1.691894,1.1208 0.09345,0.0699 5.159971,2.65844 0,0 -4.434587,-3.1492 -4.434587,-3.1492 v 0 c 4.756574,2.45447 6.254914,3.25495 4.536938,2.33824 -0.417364,-0.23534 -0.797233,-0.50664 -1.167579,-0.79675 -0.148094,-0.22695 -0.08886,-0.17904 -0.317855,-0.14639 -0.04997,0.008 0.229559,-0.22149 0.167152,-0.1322 0.03491,-8e-5 0.07522,-0.0168 0.104793,-2.8e-4 0.03384,0.0188 0.09397,0.1108 0.05984,0.0923 -1.588738,-0.85834 -3.18377,-1.70909 -4.736023,-2.61871 -0.04236,-0.0248 0.07045,-0.11361 0.113659,-0.0901 4.934722,2.69716 3.344359,3.87643 4.861074,2.71961 0.374357,-0.20642 0.816324,-0.43844 1.269185,-0.45622 0.118252,-0.005 0.446805,0.11473 0.349782,0.0545 -1.4757,-0.91742 -3.00761,-1.76111 -4.511417,-2.64168 0.176867,0.16285 0.157141,0.0888 -0.171829,0.37444 -0.699662,0.60746 -1.567618,1.03879 -2.301883,1.60878 -0.0077,0.009 -0.809391,0.74618 -0.523066,0.92305 1.61707,0.9988 3.40081,1.76603 5.129179,2.60449 0.164246,0.0797 0.359831,0.0917 0.537277,0.14436 0.215681,0.064 0.832544,0.31598 0.641682,0.20601 -1.326034,-0.764 -2.706644,-1.45032 -4.059968,-2.17547 0.234933,0.0894 0.79821,0.18892 0.792839,0.55663 -0.0086,0.58917 -1.284197,1.87819 -1.728293,2.32855 -1.820394,0.91555 -0.498069,0.18092 4.534474,2.77957 0.06854,0.0354 0.02394,-0.14023 0.05031,-0.20671 0.153926,-0.38793 0.395501,-0.74752 0.552299,-1.13467 -1.643873,-0.88518 -3.244348,-1.83753 -4.931616,-2.65558 -0.08887,-0.0431 -0.176638,0.0883 -0.261043,0.13802 -0.813893,0.47935 -1.565965,1.04803 -2.462368,1.41037 -2.247256,0.52095 -0.929953,0.0852 3.89239,2.71298 0.07569,0.0413 -0.110497,-0.13852 -0.105835,-0.21735 0.03121,-0.5289 0.511114,-1.09209 0.591083,-1.61567 0.01042,-0.0327 0.39604,-1.08286 0.2382,-1.17744 -4.884211,-2.92658 -3.793341,-2.85352 -7.144379,-2.04931 -0.28654,0.0435 -0.569838,0.11015 -0.85962,0.13059 -0.248708,0.0176 -0.94318,-0.15577 -0.7482,-0.0173 1.313277,0.93254 2.803809,1.64832 4.205713,2.47245 -0.06181,-0.0734 -0.178592,-0.12877 -0.185415,-0.22031 -0.02041,-0.27421 0.313218,-0.69427 0.443251,-0.89235 0.0037,-0.005 0.619433,-0.81487 0.563478,-0.84966 -1.565858,-0.97393 -3.327171,-1.67191 -4.992112,-2.50571 -0.03629,-0.0182 -0.146245,-0.0706 -0.111505,-0.0502 1.541799,0.90774 3.056241,1.85411 4.633375,2.71248 0.06418,0.0349 -0.01159,-0.13347 -0.01738,-0.20019 0.644542,-1.22401 1.594362,-2.138 2.348137,-3.27848 0.16848,-0.25492 0.705013,-0.61437 0.442017,-0.79523 -1.527336,-1.05034 -3.409462,-1.61187 -5.114193,-2.417805 -1.391952,0.540825 -3.196562,1.254425 -4.703607,1.385685 -0.149003,0.013 -0.298247,-0.0237 -0.447372,-0.0355 0,0 4.521495,3.04523 4.521495,3.04523 z" />
    <path
       style="fill:#ff8585;fill-opacity:0.619608;stroke:none;stroke-width:0.675118;stroke-dasharray:none;stroke-dashoffset:0;stroke-opacity:1"
       id="path9783-56"
       d="m 116.81391,78.612752 c 1.7404,-0.52893 3.46147,-1.1094 5.18381,-1.68373 -1.56383,-0.71467 -3.09002,-1.49864 -4.6915,-2.14399 -0.0833,-0.0336 0.009,0.16769 -0.0259,0.24303 -0.13832,0.30153 -0.30528,0.593 -0.48728,0.87557 -0.52771,0.81933 -1.17908,1.58429 -1.79228,2.35391 -1.19744,1.65945 -0.45389,0.45617 4.697,2.98403 0.11039,0.0541 0.39421,-0.159 0.28746,-0.21867 -1.57919,-0.88258 -3.26681,-1.60197 -4.91978,-2.37025 -0.0307,-0.0143 0.0283,0.0624 0.0161,0.0911 -0.056,0.13213 -0.14319,0.25206 -0.21479,0.37809 -0.16203,0.27644 -0.42355,0.6715 -0.49202,0.98684 -0.44024,2.02764 5.15397,3.07068 5.28326,3.12477 0.0953,0.0399 1.6366,-0.32595 1.66285,-0.3319 0.29784,-0.0741 1.18153,-0.30544 1.52359,-0.35037 1.81952,-0.23899 5.06508,1.90497 -4.10515,-2.19185 -0.0831,-0.037 0.15857,0.11295 0.17293,0.19468 0.0277,0.15772 -0.0367,0.31761 -0.055,0.47641 -0.0909,0.54673 -0.43255,1.02793 -0.58437,1.55691 -0.0341,0.11895 -0.16685,0.29786 -0.0516,0.36553 4.99514,2.93402 3.5343,3.56307 5.75701,2.23265 0.76522,-0.32321 1.73338,-1.21846 2.52503,-1.43214 0.0757,-0.0205 0.30412,0.0626 0.2354,0.0276 -1.60003,-0.81316 -3.22933,-1.5799 -4.84399,-2.36984 -0.006,0.27569 0.0162,0.16323 -0.14073,0.52232 -0.051,0.11678 -0.10889,0.23104 -0.16678,0.34521 -0.0364,0.0718 -0.18957,0.16868 -0.11608,0.21267 4.898,2.93246 3.82432,4.02622 5.21002,2.23999 0.45413,-0.75135 2.07355,-2.23853 1.71068,-3.11645 -0.084,-0.20317 -0.29449,-0.34469 -0.44174,-0.51703 -1.79586,-0.90278 -3.56599,-1.8473 -5.38758,-2.70832 -0.21025,-0.0994 -0.46159,-0.10443 -0.68996,-0.16441 -1.95569,-0.51321 -2.80421,-1.35286 3.92584,2.06937 0.0264,0.0135 -0.10373,0.0276 -0.0914,0.002 0.0362,-0.0727 0.1191,-0.11869 0.17864,-0.17807 0.5318,-0.4155 1.09567,-0.79737 1.65183,-1.18644 0.22676,-0.15866 0.71573,-0.4621 0.89919,-0.69983 0.0741,-0.096 0.0947,-0.21724 0.14203,-0.32587 -4.13803,-2.59269 -3.39201,-3.41123 -5.88989,-2.45522 -0.30681,0.11742 -0.60577,0.30944 -0.93587,0.35511 -0.0186,-0.009 -0.0372,-0.0174 -0.0558,-0.0263 1.62517,0.85869 3.21143,1.7785 4.87552,2.57604 0.0708,0.0339 0.13968,-0.16462 0.0729,-0.20445 -1.59362,-0.95073 -3.23036,-1.84706 -4.90593,-2.67886 -0.0344,-0.0171 -0.41655,0.26687 -0.43234,0.27818 -0.39089,0.25607 -0.54152,0.61579 -0.27953,0.99783 0.2534,0.41119 0.67758,0.70582 1.08377,0.99271 1.6919,1.1208 0.0935,0.0699 5.15998,2.65844 0,0 -4.43459,-3.1492 -4.43459,-3.1492 v 0 c 4.75657,2.45447 6.25491,3.25495 4.53694,2.33824 -0.41737,-0.23534 -0.79724,-0.50664 -1.16758,-0.79675 -0.1481,-0.22695 -0.0889,-0.17904 -0.31786,-0.14639 -0.05,0.008 0.22956,-0.22149 0.16715,-0.1322 0.0349,-8e-5 0.0752,-0.0168 0.1048,-2.8e-4 0.0338,0.0188 0.094,0.1108 0.0598,0.0923 -1.58874,-0.85834 -3.18377,-1.70909 -4.73603,-2.61871 -0.0424,-0.0248 0.0704,-0.11361 0.11366,-0.0901 4.93473,2.69716 3.34436,3.87643 4.86108,2.71961 0.37435,-0.20642 0.81632,-0.43844 1.26918,-0.45622 0.11825,-0.005 0.44681,0.11473 0.34978,0.0545 -1.4757,-0.91742 -3.00761,-1.76111 -4.51141,-2.64168 0.17686,0.16285 0.15714,0.0888 -0.17183,0.37444 -0.69966,0.60746 -1.56762,1.03879 -2.30188,1.60878 -0.008,0.009 -0.8094,0.74618 -0.52307,0.92305 1.61707,0.9988 3.40081,1.76603 5.12918,2.60449 0.16424,0.0797 0.35983,0.0917 0.53728,0.14436 0.21568,0.064 0.83254,0.31598 0.64168,0.20601 -1.32604,-0.764 -2.70665,-1.45032 -4.05997,-2.17547 0.23493,0.0894 0.79821,0.18892 0.79284,0.55663 -0.009,0.58917 -1.2842,1.87819 -1.72829,2.32855 -1.8204,0.91555 -0.49807,0.18092 4.53447,2.77957 0.0685,0.0354 0.0239,-0.14023 0.0503,-0.20671 0.15393,-0.38793 0.3955,-0.74752 0.5523,-1.13467 -1.64387,-0.88518 -3.24435,-1.83753 -4.93162,-2.65558 -0.0889,-0.0431 -0.17664,0.0883 -0.26104,0.13802 -0.81389,0.47935 -1.56597,1.04803 -2.46237,1.41037 -2.24725,0.52095 -0.92995,0.0852 3.89239,2.71298 0.0757,0.0413 -0.1105,-0.13852 -0.10583,-0.21735 0.0312,-0.5289 0.51111,-1.09209 0.59108,-1.61567 0.0104,-0.0327 0.39604,-1.08286 0.2382,-1.17744 -4.88421,-2.92658 -3.79334,-2.85352 -7.14438,-2.04931 -0.28654,0.0435 -0.56984,0.11015 -0.85962,0.13059 -0.24871,0.0176 -0.94318,-0.15577 -0.7482,-0.0173 1.31328,0.93254 2.80381,1.64832 4.20571,2.47245 -0.0618,-0.0734 -0.17859,-0.12877 -0.18541,-0.22031 -0.0204,-0.27421 0.31322,-0.69427 0.44325,-0.89235 0.004,-0.005 0.61943,-0.81487 0.56348,-0.84966 -1.56586,-0.97393 -3.32717,-1.67191 -4.99211,-2.50571 -0.0363,-0.0182 -0.14625,-0.0706 -0.11151,-0.0502 1.5418,0.90774 3.05624,1.85411 4.63338,2.71248 0.0642,0.0349 -0.0116,-0.13347 -0.0174,-0.20019 0.64454,-1.22401 1.59436,-2.138 2.34813,-3.27848 0.16848,-0.25492 0.70502,-0.61437 0.44202,-0.79523 -1.52734,-1.05034 -3.40946,-1.61187 -5.11419,-2.417805 -1.39196,0.540825 -3.19657,1.254425 -4.70361,1.385685 -0.149,0.013 -0.29825,-0.0237 -0.44737,-0.0355 0,0 4.52149,3.04523 4.52149,3.04523 z" />
    <path
       style="fill:none;fill-opacity:1;stroke:#000000;stroke-width:0.499999;stroke-dasharray:none;stroke-dashoffset:0;stroke-opacity:1;marker-end:url(#TriangleStart)"
       d="m 110.15735,47.911885 c 12.94278,6.952663 11.79118,22.402613 14.98941,32.934487"
       id="path9694"
       sodipodi:nodetypes="cc" />
    <path
       style="fill:none;fill-opacity:1;stroke:#000000;stroke-width:0.499999;stroke-dasharray:none;stroke-dashoffset:0;stroke-opacity:1;marker-end:url(#TriangleStart)"
       d="M 94.112344,49.600833 C 79.914548,55.958973 80.10815,68.038516 81.656353,86.75769"
       id="path9648"
       sodipodi:nodetypes="cc" />
    <path
       style="fill:#000000;stroke:#000000;stroke-width:1;stroke-dasharray:none;stroke-opacity:1;marker-end:url(#TriangleStart)"
       d="M 15.996137,106.00121 96.851585,41.677909"
       id="path115"
       sodipodi:nodetypes="cc" />
    <path
       style="fill:#000000;stroke:#000000;stroke-width:0.5;stroke-dasharray:1, 0.5;stroke-dashoffset:0;stroke-opacity:1"
       d="M 35.564677,112.93462 116.42013,48.611327"
       id="path115-4"
       sodipodi:nodetypes="cc" />
    <path
       style="fill:#000000;stroke:#000000;stroke-width:0.5;stroke-dasharray:1, 0.5;stroke-dashoffset:0;stroke-opacity:1"
       d="M 74.366156,128.75659 155.2216,64.433289"
       id="path115-2"
       sodipodi:nodetypes="cc" />
    <path
       style="fill:#000000;stroke:#000000;stroke-width:0.5;stroke-dasharray:1, 0.5;stroke-dashoffset:0;stroke-opacity:1"
       d="M 92.448398,135.91415 173.30384,71.590843"
       id="path115-1"
       sodipodi:nodetypes="cc" />
    <path
       style="fill:#000000;stroke:#000000;stroke-width:0.5;stroke-dasharray:1, 0.5;stroke-dashoffset:0;stroke-opacity:1"
       d="M 112.79092,143.44841 193.64636,79.125111"
       id="path115-8"
       sodipodi:nodetypes="cc" />
    <path
       style="fill:#000000;stroke:#000000;stroke-width:0.5;stroke-dasharray:1, 0.5;stroke-dashoffset:0;stroke-opacity:1"
       d="M 54.777059,120.84561 135.63251,56.522307"
       id="path115-15"
       sodipodi:nodetypes="cc" />
    <path
       style="fill:#000000;stroke:#000000;stroke-width:1;stroke-dasharray:none;stroke-opacity:1;marker-end:url(#marker1201)"
       d="M 15.760575,105.82101 124.58359,148.97496"
       id="path1197" />
    <path
       style="fill:#000000;stroke:#000000;stroke-width:0.5;stroke-dasharray:1.5, 0.5;stroke-dashoffset:0;stroke-opacity:1"
       d="M 32.309624,92.714608 141.13263,135.86856"
       id="path1197-4" />
    <path
       style="fill:#000000;stroke:#000000;stroke-width:0.5;stroke-dasharray:1.5, 0.5;stroke-dashoffset:0;stroke-opacity:1"
       d="M 47.639981,80.320225 156.46299,123.47418"
       id="path1197-5" />
    <path
       style="fill:#000000;stroke:#000000;stroke-width:0.5;stroke-dasharray:1.5, 0.5;stroke-dashoffset:0;stroke-opacity:1"
       d="M 62.623959,68.380288 171.44697,111.53424"
       id="path1197-1" />
    <path
       style="fill:#000000;stroke:#000000;stroke-width:0.5;stroke-dasharray:1.5, 0.5;stroke-dashoffset:0;stroke-opacity:1"
       d="M 77.618175,56.362619 186.44119,99.516569"
       id="path1197-41" />
    <text
       xml:space="preserve"
       style="font-style:normal;font-variant:normal;font-weight:normal;font-stretch:normal;font-size:8.46667px;font-family:sans-serif;-inkscape-font-specification:'sans-serif, Normal';font-variant-ligatures:normal;font-variant-caps:normal;font-variant-numeric:normal;font-variant-east-asian:normal;fill:#000000;stroke:none;stroke-width:0.499999;stroke-dasharray:none;stroke-dashoffset:0;stroke-opacity:1"
       x="48.061058"
       y="68.614563"
       id="text2584"><tspan
         sodipodi:role="line"
         id="tspan2582"
         style="font-style:normal;font-variant:normal;font-weight:normal;font-stretch:normal;font-size:8.46667px;font-family:sans-serif;-inkscape-font-specification:'sans-serif, Normal';font-variant-ligatures:normal;font-variant-caps:normal;font-variant-numeric:normal;font-variant-east-asian:normal;stroke:none;stroke-width:0.5;stroke-dasharray:none"
         x="48.061058"
         y="68.614563">N<tspan
   style="font-size:65%;baseline-shift:sub"
   id="tspan2636">2</tspan></tspan></text>
    <text
       xml:space="preserve"
       style="font-style:normal;font-variant:normal;font-weight:normal;font-stretch:normal;font-size:8.46667px;font-family:sans-serif;-inkscape-font-specification:'sans-serif, Normal';font-variant-ligatures:normal;font-variant-caps:normal;font-variant-numeric:normal;font-variant-east-asian:normal;fill:#000000;stroke:none;stroke-width:0.499999;stroke-dasharray:none;stroke-dashoffset:0;stroke-opacity:1"
       x="56.203033"
       y="139.60594"
       id="text2640"><tspan
         sodipodi:role="line"
         id="tspan2638"
         style="stroke-width:0.5"
         x="56.203033"
         y="139.60594">N<tspan
   style="font-size:65%;baseline-shift:sub"
   id="tspan2642">1</tspan></tspan></text>
    <path
       style="fill:#dfdfdf;fill-opacity:1;stroke:#000000;stroke-width:0.499999;stroke-dasharray:none;stroke-dashoffset:0;stroke-opacity:1"
       d="M 105.88386,103.26405 V 64.621904 L 87.981849,56.325849 87.10858,95.404635"
       id="path4190" />
    <path
       style="fill:#dfdfdf;fill-opacity:1;stroke:#000000;stroke-width:0.499999;stroke-dasharray:none;stroke-dashoffset:0;stroke-opacity:1"
       d="m 105.88386,64.621904 13.9723,-10.042594 1.30991,36.895614 -14.84557,11.570816"
       id="path5596" />
    <path
       style="fill:#f3f3f3;fill-opacity:1;stroke:#000000;stroke-width:0.499999;stroke-dasharray:none;stroke-dashoffset:0;stroke-opacity:1"
       d="m 88.084064,55.778828 14.990556,-8.018208 16.73365,6.27512 -13.71229,10.342324 z"
       id="path5598" />
    <path
       style="fill:#ff8585;fill-opacity:0.61774743;stroke:#000000;stroke-width:0.499999;stroke-dasharray:none;stroke-dashoffset:0;stroke-opacity:1"
       d="m 88.573771,55.800842 17.140299,8.267674 -0.20165,-8.670975 -17.5436,-6.452819 z"
       id="path8265" />
    <path
       style="fill:#ff8585;fill-opacity:0.617747;stroke:#000000;stroke-width:0.499999;stroke-dasharray:none;stroke-dashoffset:0;stroke-opacity:1"
       d="m 105.31077,55.397541 14.11554,-8.469325 0.4033,7.057771 -14.11554,10.284179 z"
       id="path8753" />
    <path
       style="fill:#ff8585;fill-opacity:0.617747;stroke:#000000;stroke-width:0.499999;stroke-dasharray:none;stroke-dashoffset:0;stroke-opacity:1"
       d="m 104.90747,54.994239 -16.737001,-6.049517 14.317191,-7.05777 16.93865,4.637963 z"
       id="path8755" />
    <text
       xml:space="preserve"
       style="font-style:normal;font-variant:normal;font-weight:normal;font-stretch:normal;font-size:8.46667px;font-family:sans-serif;-inkscape-font-specification:'sans-serif, Normal';font-variant-ligatures:normal;font-variant-caps:normal;font-variant-numeric:normal;font-variant-east-asian:normal;fill:#000000;fill-opacity:1;stroke:none;stroke-width:0.499999;stroke-dasharray:none;stroke-dashoffset:0;stroke-opacity:1"
       x="121.87505"
       y="51.389084"
       id="text8811"><tspan
         sodipodi:role="line"
         id="tspan8809"
         style="fill:#000000;fill-opacity:1;stroke:none;stroke-width:0.5"
         x="121.87505"
         y="51.389084">δP</tspan></text>
    <path
       style="fill:#000000;fill-opacity:1;stroke:none;stroke-width:0.499999;stroke-dasharray:none;stroke-dashoffset:0;stroke-opacity:1"
       d="m 112.36854,54.994239 12.09903,45.371381"
       id="path9389" />
    <path
       style="fill:none;fill-opacity:1;stroke:#000000;stroke-width:0.5;stroke-dasharray:none;stroke-dashoffset:0;stroke-opacity:1;marker-end:url(#marker9493)"
       d="m 110.85401,54.995839 c 9.37312,13.341088 14.82533,28.250539 13.68631,45.796481"
       id="path9487"
       sodipodi:nodetypes="cc" />
    <path
       style="fill:none;fill-opacity:1;stroke:#000000;stroke-width:0.499999;stroke-dasharray:none;stroke-dashoffset:0;stroke-opacity:1;marker-end:url(#TriangleStart)"
       d="m 98.545832,56.778862 c -7.202315,1.018375 -8.93972,21.374125 -8.866976,48.135018"
       id="path9604"
       sodipodi:nodetypes="cc" />
    <circle
       id="path9787"
       style="fill:#000000;stroke:#000000;stroke-width:0.264583"
       cx="91.156685"
       cy="110.40296"
       r="0.053141631" />
    <text
       xml:space="preserve"
       style="font-style:normal;font-variant:normal;font-weight:normal;font-stretch:normal;font-size:8.46667px;font-family:sans-serif;-inkscape-font-specification:'sans-serif, Normal';font-variant-ligatures:normal;font-variant-caps:normal;font-variant-numeric:normal;font-variant-east-asian:normal;fill:#070000;fill-opacity:1;stroke:none;stroke-width:0.499999;stroke-dasharray:none;stroke-dashoffset:0;stroke-opacity:1"
       x="133.19209"
       y="69.572723"
       id="text9875"><tspan
         sodipodi:role="line"
         id="tspan9873"
         style="fill:#070000;fill-opacity:1;stroke-width:0.5"
         x="133.19209"
         y="69.572723">δt</tspan></text>
    <text
       xml:space="preserve"
       style="font-style:normal;font-variant:normal;font-weight:normal;font-stretch:normal;font-size:8.46667px;font-family:sans-serif;-inkscape-font-specification:'sans-serif, Normal';font-variant-ligatures:normal;font-variant-caps:normal;font-variant-numeric:normal;font-variant-east-asian:normal;fill:#070000;fill-opacity:1;stroke:none;stroke-width:0.499999;stroke-dasharray:none;stroke-dashoffset:0;stroke-opacity:1"
       x="153.26591"
       y="99.301331"
       id="text9875-3"><tspan
         sodipodi:role="line"
         id="tspan9873-1"
         style="fill:#070000;fill-opacity:1;stroke-width:0.5"
         x="153.26591"
         y="99.301331">2δt</tspan></text>
    <path
       style="fill:#ff8585;fill-opacity:0.619608;stroke:none;stroke-width:0.675118;stroke-dasharray:none;stroke-dashoffset:0;stroke-opacity:1"
       id="path9783-89"
       d="m 63.853308,97.837823 c 1.740393,-0.52893 3.461469,-1.1094 5.183807,-1.68373 -1.563832,-0.71467 -3.090026,-1.49864 -4.691504,-2.14399 -0.08332,-0.0336 0.0087,0.16769 -0.02591,0.24303 -0.138323,0.30153 -0.305282,0.593 -0.487277,0.87557 -0.527712,0.81933 -1.179081,1.58429 -1.792276,2.35391 -1.197441,1.65945 -0.45389,0.45617 4.696994,2.984027 0.110394,0.0541 0.39421,-0.159 0.287457,-0.21867 -1.579189,-0.882577 -3.266807,-1.601967 -4.919778,-2.370247 -0.03065,-0.0143 0.02826,0.0624 0.01609,0.0911 -0.05596,0.13213 -0.143191,0.25206 -0.21479,0.37809 -0.162029,0.27644 -0.423547,0.6715 -0.492015,0.98684 -0.44024,2.027637 5.15397,3.070677 5.283253,3.124767 0.09534,0.0399 1.636608,-0.32595 1.662854,-0.3319 0.297839,-0.0741 1.181531,-0.30544 1.523594,-0.35037 1.819519,-0.23899 5.065073,1.90497 -4.105152,-2.191847 -0.08309,-0.037 0.158568,0.11295 0.172928,0.19468 0.02773,0.15772 -0.03666,0.317607 -0.05499,0.476407 -0.09092,0.54673 -0.432548,1.02793 -0.584373,1.55691 -0.03413,0.11895 -0.166843,0.29786 -0.05164,0.36553 4.995142,2.93402 3.534299,3.56307 5.757009,2.23265 0.765227,-0.32321 1.733385,-1.21846 2.525038,-1.43214 0.07573,-0.0205 0.304112,0.0626 0.235393,0.0276 -1.600028,-0.81316 -3.229325,-1.5799 -4.843987,-2.36984 -0.0065,0.27569 0.01625,0.16323 -0.140728,0.52232 -0.05103,0.11678 -0.108894,0.23104 -0.166782,0.34521 -0.03643,0.0718 -0.189573,0.16868 -0.116076,0.21267 4.897991,2.93246 3.824319,4.02622 5.210012,2.23999 0.454133,-0.75135 2.073556,-2.23853 1.71068,-3.11645 -0.08398,-0.20317 -0.294491,-0.34469 -0.441738,-0.51703 -1.795856,-0.902777 -3.56599,-1.847297 -5.387575,-2.708317 -0.210256,-0.0994 -0.461595,-0.10443 -0.689965,-0.16441 -1.95569,-0.51321 -2.804207,-1.35286 3.925841,2.06937 0.02644,0.0135 -0.103727,0.0276 -0.09138,0.002 0.03621,-0.0727 0.119097,-0.11869 0.178636,-0.17807 0.531807,-0.4155 1.095672,-0.79737 1.651834,-1.18644 0.226761,-0.15866 0.715731,-0.4621 0.899192,-0.69983 0.07413,-0.096 0.09469,-0.21724 0.142032,-0.32587 -4.138033,-2.59269 -3.392012,-3.41123 -5.88989,-2.45522 -0.306812,0.11742 -0.605778,0.30944 -0.935874,0.35511 -0.0186,-0.009 -0.03724,-0.0174 -0.05585,-0.0263 1.625172,0.85869 3.211431,1.7785 4.87552,2.57604 0.07075,0.0339 0.139685,-0.16462 0.07293,-0.20445 -1.593615,-0.95073 -3.230364,-1.84706 -4.905926,-2.67886 -0.03436,-0.0171 -0.416555,0.26687 -0.43234,0.27818 -0.390891,0.25607 -0.541527,0.61579 -0.279532,0.99783 0.253397,0.41119 0.677575,0.70582 1.083773,0.99271 1.691894,1.1208 0.09345,0.0699 5.159971,2.65844 0,0 -4.434587,-3.1492 -4.434587,-3.1492 v 0 c 4.756574,2.45447 6.254914,3.25495 4.536938,2.33824 -0.417364,-0.23534 -0.797233,-0.50664 -1.167579,-0.79675 -0.148094,-0.22695 -0.08886,-0.17904 -0.317855,-0.14639 -0.04997,0.008 0.229559,-0.22149 0.167152,-0.1322 0.03491,-8e-5 0.07522,-0.0168 0.104793,-2.8e-4 0.03384,0.0188 0.09397,0.1108 0.05984,0.0923 -1.588738,-0.85834 -3.18377,-1.70909 -4.736023,-2.61871 -0.04236,-0.0248 0.07045,-0.11361 0.113659,-0.0901 4.934722,2.69716 3.344359,3.87643 4.861074,2.71961 0.374357,-0.20642 0.816324,-0.43844 1.269185,-0.45622 0.118252,-0.005 0.446805,0.11473 0.349782,0.0545 -1.4757,-0.91742 -3.00761,-1.76111 -4.511417,-2.64168 0.176867,0.16285 0.157141,0.0888 -0.171829,0.37444 -0.699662,0.60746 -1.567618,1.03879 -2.301883,1.60878 -0.0077,0.009 -0.809391,0.74618 -0.523066,0.92305 1.61707,0.9988 3.40081,1.76603 5.129179,2.604487 0.164246,0.0797 0.359831,0.0917 0.537277,0.14436 0.215681,0.064 0.832544,0.31598 0.641682,0.20601 -1.326034,-0.763997 -2.706644,-1.450317 -4.059968,-2.175467 0.234933,0.0894 0.79821,0.18892 0.792839,0.55663 -0.0086,0.58917 -1.284197,1.878187 -1.728293,2.328547 -1.820394,0.91555 -0.498069,0.18092 4.534474,2.77957 0.06854,0.0354 0.02394,-0.14023 0.05031,-0.20671 0.153926,-0.38793 0.395501,-0.74752 0.552299,-1.13467 -1.643873,-0.88518 -3.244348,-1.83753 -4.931616,-2.65558 -0.08887,-0.0431 -0.176638,0.0883 -0.261043,0.13802 -0.813893,0.47935 -1.565965,1.04803 -2.462368,1.41037 -2.247256,0.52095 -0.929953,0.0852 3.89239,2.71298 0.07569,0.0413 -0.110497,-0.13852 -0.105835,-0.21735 0.03121,-0.5289 0.511114,-1.09209 0.591083,-1.61567 0.01042,-0.0327 0.39604,-1.08286 0.2382,-1.17744 -4.884211,-2.926577 -3.793341,-2.853517 -7.144379,-2.049307 -0.28654,0.0435 -0.569838,0.11015 -0.85962,0.13059 -0.248708,0.0176 -0.94318,-0.15577 -0.7482,-0.0173 1.313277,0.932537 2.803809,1.648317 4.205713,2.472447 -0.06181,-0.0734 -0.178592,-0.12877 -0.185415,-0.22031 -0.02041,-0.27421 0.313218,-0.69427 0.443251,-0.89235 0.0037,-0.005 0.619433,-0.81487 0.563478,-0.849657 -1.565858,-0.97393 -3.327171,-1.67191 -4.992112,-2.50571 -0.03629,-0.0182 -0.146245,-0.0706 -0.111505,-0.0502 1.541799,0.90774 3.056241,1.85411 4.633375,2.712477 0.06418,0.0349 -0.01159,-0.133467 -0.01738,-0.200187 0.644542,-1.22401 1.594362,-2.138 2.348137,-3.27848 0.16848,-0.25492 0.705013,-0.61437 0.442017,-0.79523 -1.527336,-1.05034 -3.409462,-1.61187 -5.114193,-2.417805 -1.391952,0.540825 -3.196562,1.254425 -4.703607,1.385685 -0.149003,0.013 -0.298247,-0.0237 -0.447372,-0.0355 0,0 4.521495,3.04523 4.521495,3.04523 z" />
    <path
       style="fill:#ff8585;fill-opacity:0.619608;stroke:none;stroke-width:0.675118;stroke-dasharray:none;stroke-dashoffset:0;stroke-opacity:1"
       id="path9783-1"
       d="m 70.071578,119.60177 c 1.740393,-0.52893 3.461469,-1.1094 5.183807,-1.68373 -1.563832,-0.71467 -3.090026,-1.49864 -4.691504,-2.14399 -0.08332,-0.0336 0.0087,0.16769 -0.02591,0.24303 -0.138323,0.30153 -0.305282,0.593 -0.487277,0.87557 -0.527712,0.81933 -1.179081,1.58429 -1.792276,2.35391 -1.197441,1.65945 -0.45389,0.45617 4.696994,2.98403 0.110394,0.0541 0.39421,-0.159 0.287457,-0.21867 -1.579189,-0.88258 -3.266807,-1.60197 -4.919778,-2.37025 -0.03065,-0.0143 0.02826,0.0624 0.01609,0.0911 -0.05596,0.13213 -0.143191,0.25206 -0.21479,0.37809 -0.162029,0.27644 -0.423547,0.6715 -0.492015,0.98684 -0.44024,2.02764 5.15397,3.07068 5.283253,3.12477 0.09534,0.0399 1.636608,-0.32595 1.662854,-0.3319 0.297839,-0.0741 1.181531,-0.30544 1.523594,-0.35037 1.819519,-0.23899 5.065073,1.90497 -4.105152,-2.19185 -0.08309,-0.037 0.158568,0.11295 0.172928,0.19468 0.02773,0.15772 -0.03666,0.31761 -0.05499,0.47641 -0.09092,0.54673 -0.432548,1.02793 -0.584373,1.55691 -0.03413,0.11895 -0.166843,0.29786 -0.05164,0.36553 4.995142,2.93402 3.534299,3.56307 5.757009,2.23265 0.765227,-0.32321 1.733385,-1.21846 2.525038,-1.43214 0.07573,-0.0205 0.304112,0.0626 0.235393,0.0276 -1.600028,-0.81316 -3.229325,-1.5799 -4.843987,-2.36984 -0.0065,0.27569 0.01625,0.16323 -0.140728,0.52232 -0.05103,0.11678 -0.108894,0.23104 -0.166782,0.34521 -0.03643,0.0718 -0.189573,0.16868 -0.116076,0.21267 4.897991,2.93246 3.824319,4.02622 5.210012,2.23999 0.454133,-0.75135 2.073556,-2.23853 1.71068,-3.11645 -0.08398,-0.20317 -0.294491,-0.34469 -0.441738,-0.51703 -1.795856,-0.90278 -3.56599,-1.8473 -5.387575,-2.70832 -0.210256,-0.0994 -0.461595,-0.10443 -0.689965,-0.16441 -1.95569,-0.51321 -2.804207,-1.35286 3.925841,2.06937 0.02644,0.0135 -0.103727,0.0276 -0.09138,0.002 0.03621,-0.0727 0.119097,-0.11869 0.178636,-0.17807 0.531807,-0.4155 1.095672,-0.79737 1.651834,-1.18644 0.226761,-0.15866 0.715731,-0.4621 0.899192,-0.69983 0.07413,-0.096 0.09469,-0.21724 0.142032,-0.32587 -4.138033,-2.59269 -3.392012,-3.41123 -5.88989,-2.45522 -0.306812,0.11742 -0.605778,0.30944 -0.935874,0.35511 -0.0186,-0.009 -0.03724,-0.0174 -0.05585,-0.0263 1.625172,0.85869 3.211431,1.7785 4.87552,2.57604 0.07075,0.0339 0.139685,-0.16462 0.07293,-0.20445 -1.593615,-0.95073 -3.230364,-1.84706 -4.905926,-2.67886 -0.03436,-0.0171 -0.416555,0.26687 -0.43234,0.27818 -0.390891,0.25607 -0.541527,0.61579 -0.279532,0.99783 0.253397,0.41119 0.677575,0.70582 1.083773,0.99271 1.691894,1.1208 0.09345,0.0699 5.159971,2.65844 0,0 -4.434587,-3.1492 -4.434587,-3.1492 v 0 c 4.756574,2.45447 6.254914,3.25495 4.536938,2.33824 -0.417364,-0.23534 -0.797233,-0.50664 -1.167579,-0.79675 -0.148094,-0.22695 -0.08886,-0.17904 -0.317855,-0.14639 -0.04997,0.008 0.229559,-0.22149 0.167152,-0.1322 0.03491,-8e-5 0.07522,-0.0168 0.104793,-2.8e-4 0.03384,0.0188 0.09397,0.1108 0.05984,0.0923 -1.588738,-0.85834 -3.18377,-1.70909 -4.736023,-2.61871 -0.04236,-0.0248 0.07045,-0.11361 0.113659,-0.0901 4.934722,2.69716 3.344359,3.87643 4.861074,2.71961 0.374357,-0.20642 0.816324,-0.43844 1.269185,-0.45622 0.118252,-0.005 0.446805,0.11473 0.349782,0.0545 -1.4757,-0.91742 -3.00761,-1.76111 -4.511417,-2.64168 0.176867,0.16285 0.157141,0.0888 -0.171829,0.37444 -0.699662,0.60746 -1.567618,1.03879 -2.301883,1.60878 -0.0077,0.009 -0.809391,0.74618 -0.523066,0.92305 1.61707,0.9988 3.40081,1.76603 5.129179,2.60449 0.164246,0.0797 0.359831,0.0917 0.537277,0.14436 0.215681,0.064 0.832544,0.31598 0.641682,0.20601 -1.326034,-0.764 -2.706644,-1.45032 -4.059968,-2.17547 0.234933,0.0894 0.79821,0.18892 0.792839,0.55663 -0.0086,0.58917 -1.284197,1.87819 -1.728293,2.32855 -1.820394,0.91555 -0.498069,0.18092 4.534474,2.77957 0.06854,0.0354 0.02394,-0.14023 0.05031,-0.20671 0.153926,-0.38793 0.395501,-0.74752 0.552299,-1.13467 -1.643873,-0.88518 -3.244348,-1.83753 -4.931616,-2.65558 -0.08887,-0.0431 -0.176638,0.0883 -0.261043,0.13802 -0.813893,0.47935 -1.565965,1.04803 -2.462368,1.41037 -2.247256,0.52095 -0.929953,0.0852 3.89239,2.71298 0.07569,0.0413 -0.110497,-0.13852 -0.105835,-0.21735 0.03121,-0.5289 0.511114,-1.09209 0.591083,-1.61567 0.01042,-0.0327 0.39604,-1.08286 0.2382,-1.17744 -4.884211,-2.92658 -3.793341,-2.85352 -7.144379,-2.04931 -0.28654,0.0435 -0.569838,0.11015 -0.85962,0.13059 -0.248708,0.0176 -0.94318,-0.15577 -0.7482,-0.0173 1.313277,0.93254 2.803809,1.64832 4.205713,2.47245 -0.06181,-0.0734 -0.178592,-0.12877 -0.185415,-0.22031 -0.02041,-0.27421 0.313218,-0.69427 0.443251,-0.89235 0.0037,-0.005 0.619433,-0.81487 0.563478,-0.84966 -1.565858,-0.97393 -3.327171,-1.67191 -4.992112,-2.50571 -0.03629,-0.0182 -0.146245,-0.0706 -0.111505,-0.0502 1.541799,0.90774 3.056241,1.85411 4.633375,2.71248 0.06418,0.0349 -0.01159,-0.13347 -0.01738,-0.20019 0.644542,-1.22401 1.594362,-2.138 2.348137,-3.27848 0.16848,-0.25492 0.705013,-0.61437 0.442017,-0.79523 -1.527336,-1.05034 -3.409462,-1.61187 -5.114193,-2.41781 -1.391952,0.54083 -3.196562,1.25443 -4.703607,1.38569 -0.149003,0.013 -0.298247,-0.0237 -0.447372,-0.0355 0,0 4.521495,3.04523 4.521495,3.04523 z" />
    <path
       style="fill:#ff8585;fill-opacity:0.619608;stroke:none;stroke-width:0.675118;stroke-dasharray:none;stroke-dashoffset:0;stroke-opacity:1"
       id="path9783-4"
       d="m 60.505009,76.313043 c 1.740393,-0.52893 3.461469,-1.1094 5.183807,-1.68373 -1.563832,-0.71467 -3.090026,-1.49864 -4.691504,-2.14399 -0.08332,-0.0336 0.0087,0.16769 -0.02591,0.24303 -0.138323,0.30153 -0.305282,0.593 -0.487277,0.87557 -0.527712,0.81933 -1.179081,1.58429 -1.792276,2.35391 -1.197441,1.65945 -0.45389,0.45617 4.696994,2.98403 0.110394,0.0541 0.39421,-0.159 0.287457,-0.21867 -1.579189,-0.88258 -3.266807,-1.60197 -4.919778,-2.37025 -0.03065,-0.0143 0.02826,0.0624 0.01609,0.0911 -0.05596,0.13213 -0.143191,0.25206 -0.21479,0.37809 -0.162029,0.27644 -0.423547,0.6715 -0.492015,0.98684 -0.44024,2.02764 5.15397,3.07068 5.283253,3.12477 0.09534,0.0399 1.636608,-0.32595 1.662854,-0.3319 0.297839,-0.0741 1.181531,-0.30544 1.523594,-0.35037 1.819519,-0.23899 5.065073,1.90497 -4.105152,-2.19185 -0.08309,-0.037 0.158568,0.11295 0.172928,0.19468 0.02773,0.15772 -0.03666,0.31761 -0.05499,0.47641 -0.09092,0.54673 -0.432548,1.02793 -0.584373,1.55691 -0.03413,0.11895 -0.166843,0.29786 -0.05164,0.36553 4.995142,2.93402 3.534299,3.56307 5.757009,2.23265 0.765227,-0.32321 1.733385,-1.21846 2.525038,-1.43214 0.07573,-0.0205 0.304112,0.0626 0.235393,0.0276 -1.600028,-0.81316 -3.229325,-1.5799 -4.843987,-2.36984 -0.0065,0.27569 0.01625,0.16323 -0.140728,0.52232 -0.05103,0.11678 -0.108894,0.23104 -0.166782,0.34521 -0.03643,0.0718 -0.189573,0.16868 -0.116076,0.21267 4.897991,2.93246 3.824319,4.02622 5.210012,2.23999 0.454133,-0.75135 2.073556,-2.23853 1.71068,-3.11645 -0.08398,-0.20317 -0.294491,-0.34469 -0.441738,-0.51703 -1.795856,-0.90278 -3.56599,-1.8473 -5.387575,-2.70832 -0.210256,-0.0994 -0.461595,-0.10443 -0.689965,-0.16441 -1.95569,-0.51321 -2.804207,-1.35286 3.925841,2.06937 0.02644,0.0135 -0.103727,0.0276 -0.09138,0.002 0.03621,-0.0727 0.119097,-0.11869 0.178636,-0.17807 0.531807,-0.4155 1.095672,-0.79737 1.651834,-1.18644 0.226761,-0.15866 0.715731,-0.4621 0.899192,-0.69983 0.07413,-0.096 0.09469,-0.21724 0.142032,-0.32587 -4.138033,-2.59269 -3.392012,-3.41123 -5.88989,-2.45522 -0.306812,0.11742 -0.605778,0.30944 -0.935874,0.35511 -0.0186,-0.009 -0.03724,-0.0174 -0.05585,-0.0263 1.625172,0.85869 3.211431,1.7785 4.87552,2.57604 0.07075,0.0339 0.139685,-0.16462 0.07293,-0.20445 -1.593615,-0.95073 -3.230364,-1.84706 -4.905926,-2.67886 -0.03436,-0.0171 -0.416555,0.26687 -0.43234,0.27818 -0.390891,0.25607 -0.541527,0.61579 -0.279532,0.99783 0.253397,0.41119 0.677575,0.70582 1.083773,0.99271 1.691894,1.1208 0.09345,0.0699 5.159971,2.65844 0,0 -4.434587,-3.1492 -4.434587,-3.1492 v 0 c 4.756574,2.45447 6.254914,3.25495 4.536938,2.33824 -0.417364,-0.23534 -0.797233,-0.50664 -1.167579,-0.79675 -0.148094,-0.22695 -0.08886,-0.17904 -0.317855,-0.14639 -0.04997,0.008 0.229559,-0.22149 0.167152,-0.1322 0.03491,-8e-5 0.07522,-0.0168 0.104793,-2.8e-4 0.03384,0.0188 0.09397,0.1108 0.05984,0.0923 -1.588738,-0.85834 -3.18377,-1.70909 -4.736023,-2.61871 -0.04236,-0.0248 0.07045,-0.11361 0.113659,-0.0901 4.934722,2.69716 3.344359,3.87643 4.861074,2.71961 0.374357,-0.20642 0.816324,-0.43844 1.269185,-0.45622 0.118252,-0.005 0.446805,0.11473 0.349782,0.0545 -1.4757,-0.91742 -3.00761,-1.76111 -4.511417,-2.64168 0.176867,0.16285 0.157141,0.0888 -0.171829,0.37444 -0.699662,0.60746 -1.567618,1.03879 -2.301883,1.60878 -0.0077,0.009 -0.809391,0.74618 -0.523066,0.92305 1.61707,0.9988 3.40081,1.76603 5.129179,2.60449 0.164246,0.0797 0.359831,0.0917 0.537277,0.14436 0.215681,0.064 0.832544,0.31598 0.641682,0.20601 -1.326034,-0.764 -2.706644,-1.45032 -4.059968,-2.17547 0.234933,0.0894 0.79821,0.18892 0.792839,0.55663 -0.0086,0.58917 -1.284197,1.87819 -1.728293,2.32855 -1.820394,0.91555 -0.498069,0.18092 4.534474,2.77957 0.06854,0.0354 0.02394,-0.14023 0.05031,-0.20671 0.153926,-0.38793 0.395501,-0.74752 0.552299,-1.13467 -1.643873,-0.88518 -3.244348,-1.83753 -4.931616,-2.65558 -0.08887,-0.0431 -0.176638,0.0883 -0.261043,0.13802 -0.813893,0.47935 -1.565965,1.04803 -2.462368,1.41037 -2.247256,0.52095 -0.929953,0.0852 3.89239,2.71298 0.07569,0.0413 -0.110497,-0.13852 -0.105835,-0.21735 0.03121,-0.5289 0.511114,-1.09209 0.591083,-1.61567 0.01042,-0.0327 0.39604,-1.08286 0.2382,-1.17744 -4.884211,-2.92658 -3.793341,-2.85352 -7.144379,-2.04931 -0.28654,0.0435 -0.569838,0.11015 -0.85962,0.13059 -0.248708,0.0176 -0.94318,-0.15577 -0.7482,-0.0173 1.313277,0.93254 2.803809,1.64832 4.205713,2.47245 -0.06181,-0.0734 -0.178592,-0.12877 -0.185415,-0.22031 -0.02041,-0.27421 0.313218,-0.69427 0.443251,-0.89235 0.0037,-0.005 0.619433,-0.81487 0.563478,-0.84966 -1.565858,-0.97393 -3.327171,-1.67191 -4.992112,-2.50571 -0.03629,-0.0182 -0.146245,-0.0706 -0.111505,-0.0502 1.541799,0.90774 3.056241,1.85411 4.633375,2.71248 0.06418,0.0349 -0.01159,-0.13347 -0.01738,-0.20019 0.644542,-1.22401 1.594362,-2.138 2.348137,-3.27848 0.16848,-0.25492 0.705013,-0.61437 0.442017,-0.79523 -1.527336,-1.05034 -3.409462,-1.61187 -5.114193,-2.417805 -1.391952,0.540825 -3.196562,1.254425 -4.703607,1.385685 -0.149003,0.013 -0.298247,-0.0237 -0.447372,-0.0355 0,0 4.521495,3.04523 4.521495,3.04523 z" />
    <path
       style="fill:#ff8585;fill-opacity:0.619608;stroke:none;stroke-width:0.675118;stroke-dasharray:none;stroke-dashoffset:0;stroke-opacity:1"
       id="path9783-88"
       d="m 104.0329,112.42685 c 1.7404,-0.52893 3.46147,-1.1094 5.18381,-1.68373 -1.56383,-0.71467 -3.09002,-1.49864 -4.6915,-2.14399 -0.0833,-0.0336 0.009,0.16769 -0.0259,0.24303 -0.13833,0.30153 -0.30528,0.593 -0.48728,0.87557 -0.52771,0.81933 -1.17908,1.58429 -1.79228,2.35391 -1.19744,1.65945 -0.45389,0.45617 4.697,2.98403 0.11039,0.0541 0.39421,-0.159 0.28746,-0.21867 -1.57919,-0.88258 -3.26681,-1.60197 -4.91978,-2.37025 -0.0306,-0.0143 0.0283,0.0624 0.0161,0.0911 -0.056,0.13213 -0.14319,0.25206 -0.21479,0.37809 -0.16203,0.27644 -0.42355,0.6715 -0.49202,0.98684 -0.44024,2.02764 5.15397,3.07068 5.28326,3.12477 0.0953,0.0399 1.6366,-0.32595 1.66285,-0.3319 0.29784,-0.0741 1.18153,-0.30544 1.52359,-0.35037 1.81952,-0.23899 5.06508,1.90497 -4.10515,-2.19185 -0.0831,-0.037 0.15857,0.11295 0.17293,0.19468 0.0277,0.15772 -0.0367,0.31761 -0.055,0.47641 -0.0909,0.54673 -0.43255,1.02793 -0.58437,1.55691 -0.0341,0.11895 -0.16685,0.29786 -0.0516,0.36553 4.99514,2.93402 3.5343,3.56307 5.75701,2.23265 0.76522,-0.32321 1.73338,-1.21846 2.52503,-1.43214 0.0757,-0.0205 0.30412,0.0626 0.2354,0.0276 -1.60003,-0.81316 -3.22933,-1.5799 -4.84399,-2.36984 -0.007,0.27569 0.0162,0.16323 -0.14073,0.52232 -0.051,0.11678 -0.10889,0.23104 -0.16678,0.34521 -0.0364,0.0718 -0.18957,0.16868 -0.11608,0.21267 4.89799,2.93246 3.82432,4.02622 5.21002,2.23999 0.45413,-0.75135 2.07355,-2.23853 1.71068,-3.11645 -0.084,-0.20317 -0.2945,-0.34469 -0.44174,-0.51703 -1.79586,-0.90278 -3.56599,-1.8473 -5.38758,-2.70832 -0.21025,-0.0994 -0.46159,-0.10443 -0.68996,-0.16441 -1.95569,-0.51321 -2.80421,-1.35286 3.92584,2.06937 0.0264,0.0135 -0.10373,0.0276 -0.0914,0.002 0.0362,-0.0727 0.1191,-0.11869 0.17863,-0.17807 0.53181,-0.4155 1.09568,-0.79737 1.65184,-1.18644 0.22676,-0.15866 0.71573,-0.4621 0.89919,-0.69983 0.0741,-0.096 0.0947,-0.21724 0.14203,-0.32587 -4.13803,-2.59269 -3.39201,-3.41123 -5.88989,-2.45522 -0.30681,0.11742 -0.60578,0.30944 -0.93587,0.35511 -0.0186,-0.009 -0.0372,-0.0174 -0.0559,-0.0263 1.62517,0.85869 3.21143,1.7785 4.87552,2.57604 0.0708,0.0339 0.13968,-0.16462 0.0729,-0.20445 -1.59362,-0.95073 -3.23037,-1.84706 -4.90593,-2.67886 -0.0344,-0.0171 -0.41655,0.26687 -0.43234,0.27818 -0.39089,0.25607 -0.54152,0.61579 -0.27953,0.99783 0.2534,0.41119 0.67758,0.70582 1.08377,0.99271 1.6919,1.1208 0.0935,0.0699 5.15997,2.65844 0,0 -4.43458,-3.1492 -4.43458,-3.1492 v 0 c 4.75657,2.45447 6.25491,3.25495 4.53694,2.33824 -0.41737,-0.23534 -0.79724,-0.50664 -1.16758,-0.79675 -0.1481,-0.22695 -0.0889,-0.17904 -0.31786,-0.14639 -0.05,0.008 0.22956,-0.22149 0.16715,-0.1322 0.0349,-8e-5 0.0752,-0.0168 0.1048,-2.8e-4 0.0338,0.0188 0.094,0.1108 0.0598,0.0923 -1.58874,-0.85834 -3.18377,-1.70909 -4.73603,-2.61871 -0.0424,-0.0248 0.0705,-0.11361 0.11366,-0.0901 4.93472,2.69716 3.34436,3.87643 4.86108,2.71961 0.37435,-0.20642 0.81632,-0.43844 1.26918,-0.45622 0.11825,-0.005 0.44681,0.11473 0.34978,0.0545 -1.4757,-0.91742 -3.00761,-1.76111 -4.51141,-2.64168 0.17686,0.16285 0.15714,0.0888 -0.17183,0.37444 -0.69966,0.60746 -1.56762,1.03879 -2.30189,1.60878 -0.008,0.009 -0.80939,0.74618 -0.52306,0.92305 1.61707,0.9988 3.40081,1.76603 5.12918,2.60449 0.16424,0.0797 0.35983,0.0917 0.53727,0.14436 0.21569,0.064 0.83255,0.31598 0.64169,0.20601 -1.32604,-0.764 -2.70665,-1.45032 -4.05997,-2.17547 0.23493,0.0894 0.79821,0.18892 0.79284,0.55663 -0.009,0.58917 -1.2842,1.87819 -1.7283,2.32855 -1.82039,0.91555 -0.49806,0.18092 4.53448,2.77957 0.0685,0.0354 0.0239,-0.14023 0.0503,-0.20671 0.15392,-0.38793 0.3955,-0.74752 0.5523,-1.13467 -1.64388,-0.88518 -3.24435,-1.83753 -4.93162,-2.65558 -0.0889,-0.0431 -0.17664,0.0883 -0.26104,0.13802 -0.81389,0.47935 -1.56597,1.04803 -2.46237,1.41037 -2.24726,0.52095 -0.92995,0.0852 3.89239,2.71298 0.0757,0.0413 -0.1105,-0.13852 -0.10583,-0.21735 0.0312,-0.5289 0.51111,-1.09209 0.59108,-1.61567 0.0104,-0.0327 0.39604,-1.08286 0.2382,-1.17744 -4.88421,-2.92658 -3.79334,-2.85352 -7.14438,-2.04931 -0.28654,0.0435 -0.56984,0.11015 -0.85962,0.13059 -0.24871,0.0176 -0.94318,-0.15577 -0.7482,-0.0173 1.31328,0.93254 2.80381,1.64832 4.20571,2.47245 -0.0618,-0.0734 -0.17859,-0.12877 -0.18541,-0.22031 -0.0204,-0.27421 0.31322,-0.69427 0.44325,-0.89235 0.004,-0.005 0.61943,-0.81487 0.56348,-0.84966 -1.56586,-0.97393 -3.32717,-1.67191 -4.99212,-2.50571 -0.0363,-0.0182 -0.14624,-0.0706 -0.1115,-0.0502 1.5418,0.90774 3.05624,1.85411 4.63337,2.71248 0.0642,0.0349 -0.0116,-0.13347 -0.0174,-0.20019 0.64455,-1.22401 1.59437,-2.138 2.34814,-3.27848 0.16848,-0.25492 0.70501,-0.61437 0.44202,-0.79523 -1.52734,-1.05034 -3.40946,-1.61187 -5.11419,-2.41781 -1.39196,0.54083 -3.19657,1.25443 -4.703614,1.38569 -0.149,0.013 -0.29825,-0.0237 -0.44737,-0.0355 0,0 4.521494,3.04523 4.521494,3.04523 z" />
    <path
       style="fill:#ff8585;fill-opacity:0.619608;stroke:none;stroke-width:0.675118;stroke-dasharray:none;stroke-dashoffset:0;stroke-opacity:1"
       id="path9783-7"
       d="m 138.71171,107.64356 c 1.74039,-0.52893 3.46147,-1.1094 5.18381,-1.68373 -1.56384,-0.71467 -3.09003,-1.49864 -4.69151,-2.14399 -0.0833,-0.0336 0.009,0.16769 -0.0259,0.24303 -0.13832,0.30153 -0.30528,0.593 -0.48727,0.87557 -0.52772,0.81933 -1.17908,1.58429 -1.79228,2.35391 -1.19744,1.65945 -0.45389,0.45617 4.69699,2.98403 0.1104,0.0541 0.39421,-0.159 0.28746,-0.21867 -1.57919,-0.88258 -3.26681,-1.60197 -4.91978,-2.37025 -0.0307,-0.0143 0.0283,0.0624 0.0161,0.0911 -0.056,0.13213 -0.14319,0.25206 -0.21479,0.37809 -0.16203,0.27644 -0.42354,0.6715 -0.49201,0.98684 -0.44024,2.02764 5.15397,3.07068 5.28325,3.12477 0.0953,0.0399 1.63661,-0.32595 1.66286,-0.3319 0.29783,-0.0741 1.18153,-0.30544 1.52359,-0.35037 1.81952,-0.23899 5.06507,1.90497 -4.10515,-2.19185 -0.0831,-0.037 0.15857,0.11295 0.17293,0.19468 0.0277,0.15772 -0.0367,0.31761 -0.055,0.47641 -0.0909,0.54673 -0.43254,1.02793 -0.58437,1.55691 -0.0341,0.11895 -0.16684,0.29786 -0.0516,0.36553 4.99514,2.93402 3.5343,3.56307 5.75701,2.23265 0.76523,-0.32321 1.73339,-1.21846 2.52504,-1.43214 0.0757,-0.0205 0.30411,0.0626 0.23539,0.0276 -1.60003,-0.81316 -3.22932,-1.5799 -4.84399,-2.36984 -0.006,0.27569 0.0163,0.16323 -0.14072,0.52232 -0.051,0.11678 -0.1089,0.23104 -0.16678,0.34521 -0.0364,0.0718 -0.18958,0.16868 -0.11608,0.21267 4.89799,2.93246 3.82432,4.02622 5.21001,2.23999 0.45413,-0.75135 2.07356,-2.23853 1.71068,-3.11645 -0.084,-0.20317 -0.29449,-0.34469 -0.44174,-0.51703 -1.79585,-0.90278 -3.56599,-1.8473 -5.38757,-2.70832 -0.21026,-0.0994 -0.4616,-0.10443 -0.68997,-0.16441 -1.95569,-0.51321 -2.8042,-1.35286 3.92584,2.06937 0.0264,0.0135 -0.10372,0.0276 -0.0914,0.002 0.0362,-0.0727 0.1191,-0.11869 0.17864,-0.17807 0.53181,-0.4155 1.09567,-0.79737 1.65183,-1.18644 0.22676,-0.15866 0.71574,-0.4621 0.8992,-0.69983 0.0741,-0.096 0.0947,-0.21724 0.14203,-0.32587 -4.13803,-2.59269 -3.39201,-3.41123 -5.88989,-2.45522 -0.30681,0.11742 -0.60578,0.30944 -0.93588,0.35511 -0.0186,-0.009 -0.0372,-0.0174 -0.0559,-0.0263 1.62518,0.85869 3.21144,1.7785 4.87552,2.57604 0.0708,0.0339 0.13969,-0.16462 0.0729,-0.20445 -1.59361,-0.95073 -3.23036,-1.84706 -4.90592,-2.67886 -0.0344,-0.0171 -0.41656,0.26687 -0.43234,0.27818 -0.39089,0.25607 -0.54153,0.61579 -0.27953,0.99783 0.25339,0.41119 0.67757,0.70582 1.08377,0.99271 1.69189,1.1208 0.0934,0.0699 5.15997,2.65844 0,0 -4.43459,-3.1492 -4.43459,-3.1492 v 0 c 4.75658,2.45447 6.25492,3.25495 4.53694,2.33824 -0.41736,-0.23534 -0.79723,-0.50664 -1.16758,-0.79675 -0.14809,-0.22695 -0.0889,-0.17904 -0.31785,-0.14639 -0.05,0.008 0.22956,-0.22149 0.16715,-0.1322 0.0349,-8e-5 0.0752,-0.0168 0.10479,-2.8e-4 0.0338,0.0188 0.094,0.1108 0.0598,0.0923 -1.58874,-0.85834 -3.18377,-1.70909 -4.73602,-2.61871 -0.0424,-0.0248 0.0704,-0.11361 0.11366,-0.0901 4.93472,2.69716 3.34436,3.87643 4.86107,2.71961 0.37436,-0.20642 0.81633,-0.43844 1.26919,-0.45622 0.11825,-0.005 0.4468,0.11473 0.34978,0.0545 -1.4757,-0.91742 -3.00761,-1.76111 -4.51142,-2.64168 0.17687,0.16285 0.15714,0.0888 -0.17183,0.37444 -0.69966,0.60746 -1.56762,1.03879 -2.30188,1.60878 -0.008,0.009 -0.80939,0.74618 -0.52307,0.92305 1.61707,0.9988 3.40081,1.76603 5.12918,2.60449 0.16425,0.0797 0.35983,0.0917 0.53728,0.14436 0.21568,0.064 0.83254,0.31598 0.64168,0.20601 -1.32603,-0.764 -2.70664,-1.45032 -4.05997,-2.17547 0.23494,0.0894 0.79821,0.18892 0.79284,0.55663 -0.009,0.58917 -1.28419,1.87819 -1.72829,2.32855 -1.82039,0.91555 -0.49807,0.18092 4.53447,2.77957 0.0685,0.0354 0.0239,-0.14023 0.0503,-0.20671 0.15393,-0.38793 0.39551,-0.74752 0.5523,-1.13467 -1.64387,-0.88518 -3.24434,-1.83753 -4.93161,-2.65558 -0.0889,-0.0431 -0.17664,0.0883 -0.26105,0.13802 -0.81389,0.47935 -1.56596,1.04803 -2.46236,1.41037 -2.24726,0.52095 -0.92996,0.0852 3.89239,2.71298 0.0757,0.0413 -0.1105,-0.13852 -0.10584,-0.21735 0.0312,-0.5289 0.51112,-1.09209 0.59108,-1.61567 0.0104,-0.0327 0.39604,-1.08286 0.2382,-1.17744 -4.88421,-2.92658 -3.79334,-2.85352 -7.14437,-2.04931 -0.28654,0.0435 -0.56984,0.11015 -0.85962,0.13059 -0.24871,0.0176 -0.94318,-0.15577 -0.7482,-0.0173 1.31327,0.93254 2.8038,1.64832 4.20571,2.47245 -0.0618,-0.0734 -0.17859,-0.12877 -0.18542,-0.22031 -0.0204,-0.27421 0.31322,-0.69427 0.44325,-0.89235 0.004,-0.005 0.61944,-0.81487 0.56348,-0.84966 -1.56586,-0.97393 -3.32717,-1.67191 -4.99211,-2.50571 -0.0363,-0.0182 -0.14624,-0.0706 -0.1115,-0.0502 1.54179,0.90774 3.05624,1.85411 4.63337,2.71248 0.0642,0.0349 -0.0116,-0.13347 -0.0174,-0.20019 0.64454,-1.22401 1.59436,-2.138 2.34814,-3.27848 0.16848,-0.25492 0.70501,-0.61437 0.44201,-0.79523 -1.52733,-1.05034 -3.40946,-1.61187 -5.11419,-2.41781 -1.39195,0.54083 -3.19656,1.25443 -4.70361,1.38569 -0.149,0.013 -0.29824,-0.0237 -0.44737,-0.0355 0,0 4.5215,3.04523 4.5215,3.04523 z" />
    <path
       style="fill:#ff8585;fill-opacity:0.619608;stroke:none;stroke-width:0.675118;stroke-dasharray:none;stroke-dashoffset:0;stroke-opacity:1"
       id="path9783-19"
       d="m 133.68926,89.227911 c 1.74039,-0.52893 3.46147,-1.1094 5.18381,-1.68373 -1.56383,-0.71467 -3.09003,-1.49864 -4.69151,-2.14399 -0.0833,-0.0336 0.009,0.16769 -0.0259,0.24303 -0.13832,0.30153 -0.30528,0.593 -0.48727,0.87557 -0.52771,0.81933 -1.17908,1.58429 -1.79228,2.35391 -1.19744,1.65945 -0.45389,0.45617 4.69699,2.98403 0.1104,0.0541 0.39421,-0.159 0.28746,-0.21867 -1.57919,-0.88258 -3.2668,-1.60197 -4.91978,-2.37025 -0.0306,-0.0143 0.0283,0.0624 0.0161,0.0911 -0.056,0.13213 -0.14319,0.25206 -0.21479,0.37809 -0.16203,0.27644 -0.42354,0.6715 -0.49201,0.98684 -0.44024,2.02764 5.15397,3.07068 5.28325,3.12477 0.0953,0.0399 1.63661,-0.32595 1.66286,-0.3319 0.29784,-0.0741 1.18153,-0.30544 1.52359,-0.35037 1.81952,-0.23899 5.06507,1.90497 -4.10515,-2.19185 -0.0831,-0.037 0.15857,0.11295 0.17293,0.19468 0.0277,0.15772 -0.0367,0.31761 -0.055,0.47641 -0.0909,0.54673 -0.43255,1.02793 -0.58438,1.55691 -0.0341,0.11895 -0.16684,0.29786 -0.0516,0.36553 4.99514,2.93402 3.5343,3.56307 5.75701,2.23265 0.76523,-0.32321 1.73339,-1.21846 2.52504,-1.43214 0.0757,-0.0205 0.30411,0.0626 0.23539,0.0276 -1.60003,-0.81316 -3.22932,-1.5799 -4.84398,-2.36984 -0.007,0.27569 0.0162,0.16323 -0.14073,0.52232 -0.051,0.11678 -0.1089,0.23104 -0.16678,0.34521 -0.0364,0.0718 -0.18958,0.16868 -0.11608,0.21267 4.89799,2.93246 3.82432,4.02622 5.21001,2.23999 0.45413,-0.75135 2.07356,-2.23853 1.71068,-3.11645 -0.084,-0.20317 -0.29449,-0.34469 -0.44174,-0.51703 -1.79585,-0.90278 -3.56599,-1.8473 -5.38757,-2.70832 -0.21026,-0.0994 -0.4616,-0.10443 -0.68997,-0.16441 -1.95569,-0.51321 -2.8042,-1.35286 3.92585,2.06937 0.0264,0.0135 -0.10373,0.0276 -0.0914,0.002 0.0362,-0.0727 0.1191,-0.11869 0.17864,-0.17807 0.53181,-0.4155 1.09567,-0.79737 1.65183,-1.18644 0.22677,-0.15866 0.71574,-0.4621 0.8992,-0.69983 0.0741,-0.096 0.0947,-0.21724 0.14203,-0.32587 -4.13803,-2.59269 -3.39201,-3.41123 -5.88989,-2.45522 -0.30681,0.11742 -0.60578,0.30944 -0.93588,0.35511 -0.0186,-0.009 -0.0372,-0.0174 -0.0558,-0.0263 1.62517,0.85869 3.21143,1.7785 4.87551,2.57604 0.0708,0.0339 0.13969,-0.16462 0.0729,-0.20445 -1.59361,-0.95073 -3.23036,-1.84706 -4.90592,-2.67886 -0.0344,-0.0171 -0.41656,0.26687 -0.43234,0.27818 -0.39089,0.25607 -0.54153,0.61579 -0.27953,0.99783 0.25339,0.41119 0.67757,0.70582 1.08377,0.99271 1.69189,1.1208 0.0934,0.0699 5.15997,2.65844 0,0 -4.43459,-3.1492 -4.43459,-3.1492 v 0 c 4.75658,2.45447 6.25492,3.25495 4.53694,2.33824 -0.41736,-0.23534 -0.79723,-0.50664 -1.16758,-0.79675 -0.14809,-0.22695 -0.0889,-0.17904 -0.31785,-0.14639 -0.05,0.008 0.22956,-0.22149 0.16715,-0.1322 0.0349,-8e-5 0.0752,-0.0168 0.10479,-2.8e-4 0.0338,0.0188 0.094,0.1108 0.0598,0.0923 -1.58873,-0.85834 -3.18377,-1.70909 -4.73602,-2.61871 -0.0424,-0.0248 0.0704,-0.11361 0.11366,-0.0901 4.93472,2.69716 3.34436,3.87643 4.86107,2.71961 0.37436,-0.20642 0.81633,-0.43844 1.26919,-0.45622 0.11825,-0.005 0.4468,0.11473 0.34978,0.0545 -1.4757,-0.91742 -3.00761,-1.76111 -4.51142,-2.64168 0.17687,0.16285 0.15714,0.0888 -0.17183,0.37444 -0.69966,0.60746 -1.56761,1.03879 -2.30188,1.60878 -0.008,0.009 -0.80939,0.74618 -0.52306,0.92305 1.61706,0.9988 3.4008,1.76603 5.12917,2.60449 0.16425,0.0797 0.35983,0.0917 0.53728,0.14436 0.21568,0.064 0.83254,0.31598 0.64168,0.20601 -1.32603,-0.764 -2.70664,-1.45032 -4.05997,-2.17547 0.23494,0.0894 0.79822,0.18892 0.79284,0.55663 -0.009,0.58917 -1.28419,1.87819 -1.72829,2.32855 -1.82039,0.91555 -0.49807,0.18092 4.53448,2.77957 0.0685,0.0354 0.0239,-0.14023 0.0503,-0.20671 0.15392,-0.38793 0.3955,-0.74752 0.55229,-1.13467 -1.64387,-0.88518 -3.24434,-1.83753 -4.93161,-2.65558 -0.0889,-0.0431 -0.17664,0.0883 -0.26105,0.13802 -0.81389,0.47935 -1.56596,1.04803 -2.46236,1.41037 -2.24726,0.52095 -0.92996,0.0852 3.89239,2.71298 0.0757,0.0413 -0.1105,-0.13852 -0.10584,-0.21735 0.0312,-0.5289 0.51112,-1.09209 0.59109,-1.61567 0.0104,-0.0327 0.39604,-1.08286 0.2382,-1.17744 -4.88422,-2.92658 -3.79335,-2.85352 -7.14438,-2.04931 -0.28654,0.0435 -0.56984,0.11015 -0.85962,0.13059 -0.24871,0.0176 -0.94318,-0.15577 -0.7482,-0.0173 1.31327,0.93254 2.80381,1.64832 4.20571,2.47245 -0.0618,-0.0734 -0.17859,-0.12877 -0.18542,-0.22031 -0.0204,-0.27421 0.31322,-0.69427 0.44326,-0.89235 0.004,-0.005 0.61943,-0.81487 0.56347,-0.84966 -1.56585,-0.97393 -3.32717,-1.67191 -4.99211,-2.50571 -0.0363,-0.0182 -0.14624,-0.0706 -0.1115,-0.0502 1.5418,0.90774 3.05624,1.85411 4.63337,2.71248 0.0642,0.0349 -0.0116,-0.13347 -0.0174,-0.20019 0.64454,-1.22401 1.59436,-2.138 2.34814,-3.27848 0.16848,-0.25492 0.70501,-0.61437 0.44202,-0.79523 -1.52734,-1.05034 -3.40947,-1.61187 -5.1142,-2.417805 -1.39195,0.540825 -3.19656,1.254425 -4.7036,1.385685 -0.14901,0.013 -0.29825,-0.0237 -0.44738,-0.0355 0,0 4.5215,3.04523 4.5215,3.04523 z" />
    <path
       style="fill:none;fill-opacity:1;stroke:#000000;stroke-width:0.5;stroke-dasharray:none;stroke-dashoffset:0;stroke-opacity:1;marker-end:url(#TriangleStart)"
       d="m 129.22498,103.01765 8.62803,3.61821"
       id="path11008" />
    <path
       style="fill:none;fill-opacity:1;stroke:#000000;stroke-width:0.5;stroke-dasharray:none;stroke-dashoffset:0;stroke-opacity:1;marker-end:url(#TriangleStart-3)"
       d="m 123.39842,82.973018 8.62803,3.61821"
       id="path11008-6" />
    <path
       style="fill:none;fill-opacity:1;stroke:#000000;stroke-width:0.5;stroke-dasharray:none;stroke-dashoffset:0;stroke-opacity:1;marker-end:url(#TriangleStart-4)"
       d="m 94.081688,107.0016 8.628032,3.61821"
       id="path11008-7" />
    <path
       style="fill:none;fill-opacity:1;stroke:#000000;stroke-width:0.5;stroke-dasharray:none;stroke-dashoffset:0;stroke-opacity:1;marker-end:url(#TriangleStart-5)"
       d="m 83.519257,103.22017 -8.859051,-3.00858"
       id="path11008-5" />
    <path
       style="fill:none;fill-opacity:1;stroke:#000000;stroke-width:0.5;stroke-dasharray:none;stroke-dashoffset:0;stroke-opacity:1;marker-end:url(#TriangleStart-06)"
       d="M 78.759571,83.628884 69.945862,80.489953"
       id="path11008-78" />
    <path
       style="fill:none;fill-opacity:1;stroke:#000000;stroke-width:0.5;stroke-dasharray:none;stroke-dashoffset:0;stroke-opacity:1;marker-end:url(#TriangleStart-47)"
       d="m 84.162786,109.66397 -6.498927,6.7304"
       id="path11008-8" />
    <path
       style="fill:none;fill-opacity:1;stroke:#000000;stroke-width:0.5;stroke-dasharray:none;stroke-dashoffset:0;stroke-opacity:1;marker-end:url(#TriangleStart-47-9)"
       d="m 119.5489,103.6466 -6.49893,6.7304"
       id="path11008-8-9" />
    <path
       style="fill:none;fill-opacity:1;stroke:#000000;stroke-width:0.5;stroke-dasharray:none;stroke-dashoffset:0;stroke-opacity:1;marker-end:url(#TriangleStart-47-9-2)"
       d="m 127.94558,97.737112 6.35344,-6.86791"
       id="path11008-8-9-6" />
    <path
       style="fill:none;fill-opacity:1;stroke:#000000;stroke-width:0.5;stroke-dasharray:none;stroke-dashoffset:0;stroke-opacity:1;marker-end:url(#TriangleStart-47-9-2-0)"
       d="m 122.29005,77.052253 6.35344,-6.86791"
       id="path11008-8-9-6-0" />
    <path
       style="fill:none;fill-opacity:1;stroke:#000000;stroke-width:0.5;stroke-dasharray:none;stroke-dashoffset:0;stroke-opacity:1;marker-end:url(#TriangleStart-47-7)"
       d="m 78.26426,87.87494 -6.498927,6.7304"
       id="path11008-8-3" />
  </g>
</svg>
